<svg viewBox="0 0 85 147" xmlns="http://www.w3.org/2000/svg"><g fill="none" fill-rule="evenodd"><path d="M87.1134134,46.612862 C86.336519,44.2267032 87.2618497,41.4706778 86.6570433,38.8983589 C86.4497786,37.8809237 86.0558215,34.1008437 85.6602249,31.8904756 C85.4389394,30.6540582 86.7627855,30.2701716 86.9661916,29.7766607 C88.3979732,25.34345 77.953357,14.9142293 77.3157831,14.5299712 C76.3604099,13.9781099 75.5150291,13.5030501 74.581501,12.9392509 C71.8583038,11.9831563 68.5927907,9.32326987 66.124019,11.0316979 C61.8465683,4.66726819 63.5387744,-3.17405356 61.2177092,-4.10601409 C58.8966439,-5.03797463 52.042431,-6.92158219 48.1237972,-4.5162755 C45.7749873,-2.77925402 45.9481211,0.21100908 44.8764345,2.67706897 C44.2473684,3.83791769 43.938315,5.51956754 43.2060187,6.27668164 C40.7178702,8.8491543 37.6150958,9.29270992 34.1463578,9.72932432 C33.8821544,9.76257993 33.6042073,9.04436484 33.3474883,9.13305276 C27.4962574,11.1544592 20.6877937,11.7442645 14.0612901,23.062841 C13.125438,24.6815474 10.6008218,27.2786877 11.4449944,29.1492716 C5.88286761,42.0770564 0.409937054,71.1748839 15.6718561,78.4314637 C16.1597013,78.7433371 19.4692404,77.0708795 20.0084944,77.0863796 C20.9074049,77.1122175 19.1850392,79.2937505 20.0084944,78.9050794 C26.0540987,79.3635652 59.3198763,78.180714 72.071107,79.3635652 C80.8397299,79.2979659 86.393565,80.8346305 88.4183078,79.2979659 C87.6088782,77.3428712 87.6464099,75.2486587 87.9022761,73.1816315 C89.7657303,71.7956548 87.4621211,62.0277457 87.6571,59.1674991 C89.4014521,57.0774235 88.0125472,49.2386059 87.1134134,46.612862 Z" fill="#D08B5B" transform="translate(-323.000000, -372.000000) translate(289.000000, 346.000000) translate(12.000000, 17.000000) translate(17.080986, 74.215082)"/><path d="M33.8043884,9.71027112 L33.7482522,9.74635274 C33.7389565,9.75244377 33.7298285,9.75870256 33.721075,9.76532268 C33.6613497,9.8101537 33.6707616,9.8912212 33.7411771,9.91839855 C33.834832,9.95498345 33.9332511,9.98262537 34.034575,10.0044602 C34.3422651,10.4505637 34.5826771,11.0020084 34.750582,11.2814474 C35.2329166,12.0844569 39.3733708,17.1332892 39.992237,17.7820614 C40.9976912,18.8361711 45.9492018,22.7997675 46.0163637,22.7206744 C46.8127792,23.1962781 47.6380116,23.6229858 48.4951982,23.9870927 C53.5679025,26.1416529 60.0743637,26.3371208 64.4337335,22.7580723 C64.7586208,22.8469214 67.8406349,18.4113217 68.3171595,16.8224918 C68.5494185,16.8869238 68.8372621,15.184125 68.6765574,15.2100849 C68.8166832,14.2473834 67.1286708,10.7894807 66.9684513,10.6240979 C66.9925585,10.6165332 67.01665,10.6093165 67.0407948,10.602405 C67.0548321,10.6327265 67.0870513,10.6557337 67.124744,10.6459154 C67.4466498,10.5620539 67.7729973,10.5177382 68.0990056,10.5243442 C68.3469804,10.529369 70.1172906,11.3355045 70.1860124,11.3685303 C70.2281587,11.3887847 70.2705524,11.4091562 70.3131947,11.4296453 C84.4753521,18.2343786 86.6581586,29.2929513 87.1478873,29.2679197 C86.9417535,29.5290081 81.3458849,37.4370955 81.0450504,38.1360413 C80.9825363,36.6247946 82.016575,76.9122022 82.0888497,77.7535388 C82.1184799,78.1004565 82.1206877,78.9193776 82.1696067,79.2491062 C81.8142023,79.2685906 69.3601768,78.4188143 46.2018965,78.5580579 C41.2718668,78.5877007 32.7142267,78.8705558 20.5289764,79.4066232 L20.5229396,79.3563721 C20.4705695,78.8630123 20.5161405,77.9063436 20.5088743,77.414751 C21.2108215,77.0095297 21.8997546,76.578757 22.5806701,76.1555336 C24.1310235,75.1916969 33.6971831,66.4335321 40.7277126,58.5973853 C44.8956192,53.9518847 50.0950256,50.8255903 50.3764306,50.5215977 C50.3818919,50.5154422 50.3845644,50.5085898 50.3886313,50.5022019 C50.4032722,50.5130032 50.4214265,50.523287 50.4446384,50.5199718 C53.6830986,50.0574341 58.5148813,51.0528337 62.0721419,49.2122068 C63.6602088,48.3906145 69.0488532,42.7967252 70.6370363,41.250868 C70.6845609,41.204411 70.7189553,41.1553989 70.7430081,41.1054576 C71.8020292,40.4605181 75.9288701,37.1908954 76.2208621,36.7870597 L76.3078074,36.6654445 C76.630487,36.2088882 77.115494,35.7277096 76.5532159,35.2891554 C75.9608069,34.8270832 74.8253203,35.3821817 74.2003272,35.6481858 L74.1133074,35.6846207 C73.8092194,35.8093578 73.5109412,35.9451284 73.2173109,36.0894936 C72.8465257,35.0511793 71.9423954,35.029693 70.968082,35.1730129 C70.2734553,35.2753344 69.599163,35.5128459 68.9221982,35.6936799 C68.0626877,35.9231775 67.199575,36.1392026 66.333325,36.3419875 C64.7733778,36.7069074 62.9703461,37.3743785 61.3922722,37.6507978 C61.3505574,37.6023663 61.2926912,37.5641554 61.2154201,37.5448758 C60.6751032,37.4099181 60.0788954,37.513285 59.5246349,37.5235055 C59.0497757,37.532313 58.5748359,37.5332164 58.0999498,37.5264844 L57.8150257,37.5215311 C56.7970222,37.5007416 55.4314729,37.027693 54.4137018,37.0100394 L54.3528506,36.9726894 L54.2927309,36.9346072 C54.0300658,36.7651837 53.7453685,36.5385164 53.6677159,36.2532546 C53.6580149,36.2176343 54.6986487,33.8238414 54.7137437,31.8867905 C54.7221366,30.809784 54.3522725,29.802166 54.2640845,29.2679197 C54.0487879,27.9636452 53.5669014,28.8033496 52.8697183,30.0809175 C52.1725352,31.3584854 51.2429577,32.5199108 50.5457746,33.4490511 C49.6471203,34.6466934 48.7657725,35.0084895 48.307656,35.7026228 C48.2300363,35.8202752 48.1536947,35.9416442 48.0792123,36.066149 C47.9000363,35.8875217 46.3893567,39.4446193 46.6534729,40.1297441 C46.4695328,40.0687693 39.0422535,49.592864 22.8908451,56.4452737 C22.993784,55.804533 25.7957746,38.9077504 25.0985915,36.1203295 C24.4014085,33.3329086 15.18126,23.0309265 14.2224905,22.8022065 C14.3184694,22.6458786 10.5739437,25.2029309 17.3133803,18.5828062 C24.0528169,11.9626815 28.5437357,10.8416085 31.898856,9.6115638 C32.0866523,9.55319955 32.2735289,9.49430807 32.4595247,9.43461569 C32.4125607,9.51768894 32.5190906,9.60937244 32.6009342,9.54186444 C33.0647933,9.15847792 33.4674166,9.33838271 33.8043884,9.71027112 Z" fill="#9DDADB" transform="translate(-323.000000, -372.000000) translate(289.000000, 346.000000) translate(12.000000, 17.000000) translate(17.080986, 74.215082)"/><path d="M84.3334306,32.3052954 C83.4969271,33.5213078 82.728399,34.7732082 82.033656,36.0753984 C81.6754201,36.7470507 81.341237,37.4320594 81.0404025,38.1310052 C80.9778884,36.6197585 80.9641771,35.0906258 80.7874412,33.5942453 C80.7747757,33.4862328 80.5945539,33.4337363 80.5756137,33.565442 C80.3804025,34.9223353 80.3482159,36.3143036 80.2744306,37.6857147 C80.1894905,37.6596987 80.0956032,37.6447164 79.9921877,37.6447164 C78.988244,37.6447164 77.999406,37.7269453 76.9990644,37.8080128 C76.5507757,37.8442492 76.0818039,37.8720073 75.624568,37.943435 C75.9925644,37.5371684 76.3353461,37.1080217 76.6517511,36.6604083 C76.9744306,36.203852 77.3432405,35.4903884 76.7809623,35.0518342 C76.1598884,34.5674037 74.9419095,35.2009612 74.3410539,35.4472995 C74.0369659,35.5720366 73.7386877,35.7078072 73.4450574,35.8521724 C73.0742722,34.8138581 71.9377475,34.6762292 70.9634342,34.8195491 C70.2688074,34.9218707 69.5945151,35.1593822 68.9175504,35.3402161 C68.0580398,35.5697138 67.1949271,35.7857389 66.3286771,35.9885238 C64.7687299,36.3534436 63.1980926,36.6724872 61.6200187,36.9489064 C61.5783039,36.900475 61.5204377,36.8622641 61.4431666,36.8429844 C60.9028497,36.7080268 60.3066419,36.8113936 59.7523813,36.8216142 C59.1825504,36.8321832 58.6126032,36.8313702 58.0427722,36.8196398 C57.0247687,36.7988502 56.0078109,36.7903718 54.9900398,36.7727182 C54.7007088,36.5974591 54.3338743,36.3458943 54.2440539,36.0159334 C54.1319236,35.6042081 54.4821419,35.1481163 54.6447018,34.7975982 C55.2690292,33.4517384 55.4873637,31.945602 55.2424201,30.4798832 C55.1987299,30.2185624 55.1087933,29.9328518 54.9788849,29.6651432 C56.0940292,29.7844216 57.194649,29.865373 58.3158356,29.9019579 C60.5546067,29.9747793 62.7932616,30.0510849 65.0330785,30.0676933 C69.5114342,30.1010262 73.989906,30.1012585 78.4682616,30.0685063 C81.0004306,30.0500396 83.5267898,30.0268111 86.0558215,29.8975445 C85.8496877,30.1586329 85.6492475,30.4254123 85.4535715,30.6962567 C85.4131349,30.6841779 85.3602651,30.7058965 85.3664236,30.7560701 C85.368399,30.7736076 85.3704905,30.791029 85.372582,30.8084504 C85.0155081,31.3069342 84.6717968,31.8133156 84.3334306,32.3052954 M79.3538004,78.5842643 C78.3130222,78.5511637 77.2724764,78.517947 76.2318144,78.4848463 C74.189068,78.4199227 72.1463215,78.3548828 70.1036912,78.2899592 C66.0568919,78.1611571 62.0102088,78.0370007 57.9628285,77.9253877 C53.9252088,77.8141232 49.8856137,77.6963546 45.846832,77.8222532 C41.7988708,77.9485001 37.7612511,78.2749768 33.7208426,78.5371105 C31.4746349,78.6826371 29.2268004,78.8087679 26.9764095,78.869162 C24.8331525,78.9265364 22.6709553,78.8396618 20.531068,78.9925054 C20.4591419,78.4637084 20.5120116,77.9364213 20.5042264,77.4097149 C21.2061736,77.0044935 21.8951067,76.5737209 22.5760222,76.1504975 C25.0584588,74.6071954 27.4049447,72.8612246 29.6182687,70.9526543 C29.958494,70.6592782 30.2920961,70.3596305 30.6223285,70.0568469 C30.3924905,70.5588149 30.5764306,71.2059612 31.2351525,71.418502 C32.0384236,71.6774999 32.8608673,71.585515 33.695163,71.5658869 C34.5423567,71.5460265 35.3895504,71.5270953 36.2368602,71.5092093 C37.8927863,71.4741343 39.5488285,71.4426596 41.2048708,71.4149016 C44.4400328,71.3607792 47.6753109,71.32071 50.9107053,71.2944618 C57.4200715,71.2419653 63.924906,71.3305821 70.4332264,71.4478861 C72.263332,71.4809867 74.0915785,71.521985 75.9216842,71.4805221 C76.837318,71.4598487 77.7566701,71.4532286 78.6712581,71.4039842 C79.4039975,71.3643796 80.1411525,71.2607804 80.8737757,71.1676341 C80.9661525,72.4429953 81.0627123,73.7180081 81.1703109,74.9922079 C81.2415398,75.8335445 81.314744,76.674881 81.3870187,77.5162176 C81.416649,77.8631353 81.4188567,78.2174862 81.4677757,78.5472149 C80.7644342,78.5857742 80.0653919,78.606796 79.3538004,78.5842643 M80.0694588,42.5711344 C80.0438954,43.5473125 80.0303004,44.5241873 80.0233285,45.5011784 C79.9388532,45.4527469 79.8436877,45.4174396 79.7364377,45.4011797 C78.5982863,45.2275466 77.3804236,45.3592522 76.2289095,45.378648 C75.1158567,45.3972308 73.9989694,45.3909591 72.8869623,45.4434555 C71.7727475,45.4960681 70.6589975,45.5589012 69.5450151,45.6165079 C69.0223602,45.6438014 68.505399,45.6671461 67.9868109,45.7378769 C67.6314799,45.7863083 67.1770328,45.782824 66.7974166,45.883868 C68.389899,44.3423081 69.9737828,42.7916891 71.5619659,41.2458319 C71.6094905,41.1993749 71.6438849,41.1503627 71.6679377,41.1004214 C72.7269588,40.4554819 73.7434518,39.7295911 74.6639659,38.8983589 C75.3940328,39.1796561 76.225075,39.2151958 76.9990644,39.2779127 C77.9996384,39.3590964 78.9878954,39.4412091 79.9921877,39.4412091 C80.0600468,39.4412091 80.1236067,39.434589 80.1834482,39.4228586 C80.1342968,40.4717419 80.0969975,41.5206252 80.0694588,42.5711344 M38.7210398,61.535585 C41.1522335,62.3116494 43.7863074,62.3029387 46.3155715,62.4583374 C49.0119271,62.6240728 51.7042159,62.7618179 54.4037088,62.8669269 C59.7951419,63.0762157 65.1830891,63.360765 70.5737088,63.5871268 C73.652818,63.7163934 76.7312299,63.8589003 79.8090609,64.0138345 C80.0273954,64.0247519 80.2356208,63.9687712 80.4193285,63.8663334 C80.5226278,65.8922077 80.6437053,67.917269 80.7846525,69.9410528 C80.8021982,70.1941274 80.8217194,70.4469697 80.8397299,70.7001604 C79.3910997,70.5185135 77.9535081,70.3446481 76.4940715,70.221537 C74.8552264,70.0830951 73.2171947,69.966488 71.5760257,69.8576624 C68.3779306,69.6458184 65.1747229,69.3619661 61.970818,69.2585992 C55.4396067,69.0475682 48.893987,69.1193443 42.3603356,69.1658013 C40.5116384,69.1789254 38.6630574,69.1968114 36.8144764,69.2191107 C35.890244,69.2303766 34.9660116,69.2426877 34.0417792,69.2560441 C33.112899,69.2697489 32.114649,69.1731183 31.2351525,69.497156 C31.2267863,69.5001757 31.2196982,69.5047053 31.2114482,69.5078411 C33.8648109,66.9949811 36.2418567,64.2178969 38.7210398,61.535585 M47.267575,53.5018894 C51.3306419,54.2412528 55.4573849,54.1906147 59.5758778,54.2637845 C63.7900011,54.3388126 68.009818,54.2891036 72.2246384,54.2978142 C74.6188813,54.3028084 77.0336912,54.4079174 79.4193356,54.1950281 C79.7012299,54.1698252 79.9196806,54.062974 80.0755011,53.911408 C80.1189588,56.4474965 80.1985539,58.9826558 80.3083602,61.5166537 C80.1535856,61.4509171 79.9846349,61.410964 79.8090609,61.4006273 C74.4233215,61.0839066 69.0372335,60.79657 63.6448708,60.6210786 C58.2568074,60.4455872 52.8621208,60.2374598 47.4711525,60.3026158 C44.840332,60.3344388 42.0583391,60.1662644 39.463656,60.7393117 C40.4497053,59.6920545 41.4569025,58.664193 42.5104623,57.6800011 C44.0464729,56.2452923 45.6855504,54.901407 47.267575,53.5018894 M50.3717828,50.5165616 C50.377244,50.5104061 50.3799166,50.5035537 50.3839835,50.4971658 C50.3986243,50.5079671 50.4165187,50.5154002 50.4399905,50.5149356 C54.2433567,50.4292224 58.5102335,51.6285103 62.067494,49.7878833 C63.6555609,48.966291 64.9706806,47.6677013 66.2473391,46.4195174 C66.2480363,46.4286927 66.2488497,46.4379841 66.2495468,46.4472755 C66.257913,46.5485518 66.3007898,46.6705015 66.4035081,46.7153325 C66.8230961,46.8993023 67.314494,46.9113811 67.7649905,46.9768855 C68.2831137,47.0523781 68.7919412,47.0965123 69.3145961,47.1278708 C70.4669236,47.1969756 71.6191349,47.2701454 72.7718109,47.3353013 C73.9219306,47.4003412 75.0772792,47.4056837 76.2289095,47.4343709 C77.3836771,47.4630581 78.593406,47.6027776 79.7364377,47.4380875 C79.8413637,47.422989 79.9346701,47.3900045 80.0175187,47.3443605 C80.0192616,48.8222743 80.0327405,50.3000719 80.046568,51.7770566 C80.0488919,52.0178201 80.0535398,52.2584674 80.0563285,52.4989986 C79.9020187,52.3577693 79.6899588,52.258932 79.4193356,52.2351228 C77.2997828,52.0485978 75.1638461,52.1315236 73.0368567,52.1387245 C70.9482123,52.1455769 68.8593356,52.1525454 66.770575,52.159514 C62.5529659,52.1735672 58.3387264,52.2146817 54.1218144,52.2949362 C52.0711666,52.3339601 50.0294659,52.5064317 48.0087968,52.8380187 C48.8269412,52.0930804 49.6223109,51.3261913 50.3717828,50.5165616 M17.3248391,77.3878801 C16.5462018,77.6258561 15.7732581,77.5226054 14.9931102,77.6856695 C14.9451208,77.6956578 14.9008497,77.7142406 14.8602968,77.7387467 C12.5240363,76.7410823 10.9667616,74.7390172 9.90100106,72.4956079 C8.7776067,70.1308297 8.00326867,67.6028712 7.48456444,65.0403022 C6.41508557,59.7573266 6.41322642,54.2795799 6.9667898,48.9349325 C7.51070881,43.6841284 8.5876243,38.4617791 10.1244482,33.4120177 C11.1796349,29.9446983 12.5243849,26.4417232 14.3915574,23.2802072 C16.5475961,24.7240912 18.2196736,26.8030427 19.7948426,28.8350725 C21.6771208,31.2634969 23.3733673,33.8332667 24.8917159,36.5033836 C24.7347335,36.9607529 24.710332,37.5344971 24.6350363,37.9433188 C24.489906,38.7316944 24.3588356,39.529942 24.2557687,40.3250539 C24.035575,42.0245676 23.8243285,43.7250105 23.5992546,45.4238274 C23.1541032,48.7831342 22.6226173,52.1332658 22.0354729,55.4705055 C21.9879482,55.7411176 22.0639412,55.9696861 22.2037264,56.1412286 C21.0391982,56.7546935 19.8898919,57.3954519 18.7700997,58.0899843 C16.3082299,59.6169102 14.0074095,61.3956332 12.2010081,63.676905 C12.1540644,63.7361376 12.2276173,63.8153469 12.2857159,63.761689 C16.1594975,60.1840342 20.9721525,57.9378375 25.6973109,55.7180052 C28.1120046,54.5835249 30.5148461,53.4308102 32.8315856,52.1044624 C35.2542968,50.7177205 37.5647616,49.1504931 39.7792475,47.4520246 C42.3079306,45.5126765 44.6882299,43.3923783 46.9195644,41.1176105 C47.1824025,40.8494374 47.1187264,40.5137855 46.9209588,40.3017092 C46.9877722,40.2810358 47.0416877,40.2229646 47.0451736,40.1261017 C47.0987405,38.6405225 47.5450539,37.3749172 48.4188567,36.1726097 C49.2294482,35.0570606 50.2625574,34.1377924 51.1944588,33.1285137 C51.6085856,32.6799713 52.0043532,32.2127298 52.3577088,31.7142461 C52.7215222,31.2012445 52.9431102,30.6349334 53.2597475,30.0989356 C53.6296032,29.4725789 53.9442651,29.7925516 54.115656,30.3595595 C54.3100539,31.0022923 54.2979694,31.7547798 54.2198849,32.4155147 C54.1372687,33.1146928 53.9242792,33.7963333 53.6175187,34.4282649 C53.3293497,35.0218694 52.9971419,35.6256945 53.191075,36.3060575 C53.5098039,37.4241617 54.8762828,38.0716563 55.9114835,38.3234534 C57.0641595,38.6038214 58.2699377,38.5493506 59.4371384,38.4039401 C60.898899,38.2217125 62.3536877,37.9550492 63.7985997,37.6714291 C65.4719553,37.3430942 67.1354342,36.9641211 68.785899,36.5359035 C69.5617475,36.3346285 70.3321349,36.0699397 71.1155363,35.9032751 C71.3948743,35.8439263 71.9118356,35.7547288 72.2400926,35.9002554 C68.0203919,38.4145091 63.4200292,40.0895168 58.7476243,41.5490801 C58.1671032,41.7302624 58.4051912,42.6065579 58.9993074,42.4613797 C64.0189095,41.2346822 68.7413954,38.95794 73.2357863,36.4643597 C73.304575,36.4260327 73.362906,36.3669161 73.4057828,36.2969983 C73.857906,36.1379992 74.317582,35.9999057 74.7863215,35.8859699 C74.995825,35.8350995 76.0734377,35.4797033 76.2081102,35.6162869 C76.3990222,35.8096642 75.7384412,36.437647 75.5734412,36.620223 C74.3989201,37.920671 73.0018813,38.9820977 71.4896912,39.8595546 C69.9557722,40.7494387 68.3236666,41.4589535 66.6838919,42.1285152 C64.8470468,42.8785637 62.9055081,43.4681032 61.1200222,44.3302293 C60.4107546,44.6727336 60.9084271,45.8361335 61.6556912,45.600248 C62.6187335,45.2960707 63.5544694,44.849038 64.4903215,44.4692519 C65.2853426,44.1468402 66.0804799,43.8245447 66.8709694,43.4910995 C67.4220926,43.2585821 67.9694975,43.0182832 68.5115574,42.767183 C67.6995715,43.5309364 66.8874694,44.2946897 66.0755997,45.0587914 C64.6696137,46.3818872 63.3336947,47.889069 61.614906,48.8170479 C59.9168004,49.7338771 57.9795609,49.8404959 56.0893813,49.8207517 C55.140399,49.8107634 54.1955997,49.7806825 53.2466173,49.8188934 C52.2479025,49.8590787 51.3609694,50.012503 50.4145433,50.3266686 C50.3971137,50.3324757 50.3844482,50.3429285 50.3737581,50.3547751 C50.3406419,50.3144736 50.2845187,50.2942648 50.2265363,50.3285269 C47.654744,51.8483681 45.3104659,53.8200038 43.0558919,55.7686434 C40.7321806,57.7770963 38.5456982,59.9128414 36.462399,62.1689102 C34.4683391,64.3281162 32.4901982,66.4956844 30.320332,68.4824186 C28.2017088,70.4222313 25.9376067,72.183649 23.5734588,73.8138257 C22.2852968,74.7020839 20.9652968,75.5574736 19.5995151,76.3221561 C18.8696806,76.7307456 18.1284588,77.1423547 17.3248391,77.3878801 M17.541082,18.9219584 C18.4620609,17.8879414 19.4533391,16.9295332 20.5022511,16.042901 C20.9650644,16.1798331 21.4508849,16.2181601 21.9404236,16.2231543 C22.6874553,16.2305874 23.4361137,16.2617136 24.1831454,16.2540482 C25.6215504,16.2392981 27.0593743,16.1938863 28.4981278,16.1861048 C31.4398919,16.1700771 34.3825856,16.1692641 37.3243497,16.1948155 C37.7097757,16.1981836 37.9878356,16.0334935 38.1594588,15.7942399 C38.7549694,16.469028 39.3687229,17.1282531 39.9875891,17.7770253 C40.9930433,18.831135 42.0649623,19.8368132 43.2060187,20.753294 C42.9838497,20.7548038 42.7617968,20.7567782 42.540906,20.7552684 C41.5233673,20.748416 40.5057123,20.7420281 39.4882898,20.7365694 C37.4463567,20.7253036 35.4044236,20.7169414 33.3624905,20.7114827 C29.3030257,20.7007975 25.2308954,20.734595 21.1766595,20.942374 C20.051406,20.9999807 18.9173215,21.0233254 17.7960187,21.1329639 C17.1878426,21.1924289 16.5803637,21.261766 15.9727687,21.3264574 C15.8484377,21.3396977 15.7292194,21.356306 15.6122088,21.375005 C16.2072546,20.5204282 16.8481982,19.699765 17.541082,18.9219584 M33.7997405,9.70523499 C33.772318,9.7238178 33.7426877,9.74042618 33.7164271,9.76028656 C33.6567018,9.80511758 33.6661137,9.88618507 33.7365292,9.91336242 C33.8301842,9.94994732 33.9286032,9.97758925 34.0299271,9.99942404 C34.3376173,10.4455275 34.5780292,10.9969723 34.7459342,11.2764113 C35.2282687,12.0794208 35.7828778,12.8443355 36.3471313,13.591132 C36.4605398,13.7410721 36.576156,13.8893861 36.692237,14.0373517 C33.9598602,14.0308477 31.2288778,14.0447848 28.4981278,14.1480355 C27.0604201,14.2025064 25.617832,14.2481504 24.1831454,14.3559307 C23.5932123,14.4002971 23.0036278,14.4747445 22.4155539,14.5483789 C25.4761877,12.3370249 28.9181806,10.6484285 32.4839236,9.39478599 C32.4790433,9.40024469 32.4740468,9.40430967 32.4691666,9.40976837 C32.3906173,9.49687528 32.5078602,9.60976583 32.5962863,9.53682831 C33.0601454,9.15344179 33.4627687,9.33334658 33.7997405,9.70523499 M47.605825,35.6975867 C47.5282053,35.8152391 47.4518637,35.936608 47.3773813,36.0611128 C47.1982053,35.8824856 46.9479166,35.7630911 46.6254694,35.7531028 C43.0460151,35.6414899 39.4683039,35.5439301 35.8868743,35.5414911 C34.1206771,35.5403297 32.3384447,35.4808647 30.5744553,35.5682039 C29.6886842,35.6121058 28.8032616,35.6643699 27.9179553,35.7145435 C27.2989729,35.7496186 26.641413,35.7932881 26.0369553,35.9723799 C24.6438673,33.5368709 23.097399,31.1953212 21.4085891,28.9564415 C25.2403074,29.426238 29.1376771,29.3761806 32.9911243,29.5066087 C37.3570011,29.6544581 41.725318,29.6862812 46.0927053,29.789648 C47.2906982,29.8179868 48.4886912,29.849113 49.6864518,29.8825621 C50.3046208,29.8998673 50.922906,29.9177533 51.5411912,29.9364522 C51.7344271,29.9422593 51.9344025,29.9476019 52.1346102,29.9423755 C52.1195046,29.9736178 52.1041666,30.0048602 52.0891771,30.0357541 C51.7520891,30.7316802 51.3282018,31.3722063 50.8342475,31.9666238 C49.7840574,33.2304869 48.5155328,34.319207 47.605825,35.6975867 M42.9099482,43.199814 C42.7773673,42.8314098 42.4543391,42.548022 41.9397018,42.5714828 C39.0068849,42.7045822 36.0686067,42.7969155 33.1391595,42.9898283 C31.7121419,43.0839037 30.2793144,43.1472014 28.8546208,43.2719385 C28.1197898,43.3363976 27.386237,43.4561406 26.6545433,43.5513774 C26.1529201,43.6167657 25.6277088,43.6926068 25.1465363,43.8707694 C25.2398426,42.8411658 25.3221102,41.8107492 25.3935715,40.7788228 C25.4508567,39.9497973 25.4682863,39.1132226 25.4638708,38.2821066 C25.461663,37.8614383 25.4473708,37.4383311 25.4270363,37.0177789 C25.4702616,37.0264896 25.5136032,37.0307869 25.5561313,37.0255605 C25.6311947,37.0162691 25.7012616,37.0074422 25.766332,36.9900209 C26.4406243,37.2537806 27.2038074,37.311968 27.9179553,37.3629546 C28.7650328,37.4232325 29.6118778,37.4874594 30.4589553,37.5478535 C32.2612898,37.6764233 34.0805891,37.668061 35.8868743,37.7269453 C39.4426243,37.8427394 42.9990715,37.9101021 46.5555187,38.0052228 C46.3905187,38.7128793 46.3847088,39.4395831 46.648825,40.124708 C46.4648849,40.0637331 46.2530574,40.0920719 46.0722546,40.270583 C45.0478602,41.2820684 43.992906,42.2576657 42.9099482,43.199814 M32.5644482,50.7241083 C32.4920574,50.5239947 32.3554095,50.3401411 32.193663,50.2155202 C31.5717757,49.7365483 30.4365292,50.0122707 29.6900785,50.0487395 C28.806399,50.0920606 27.9226032,50.1352657 27.0389236,50.1784707 C26.7707405,50.1914787 25.4019377,50.2612803 24.3965997,50.4754472 C24.6043602,48.9074067 24.792832,47.3368112 24.961318,45.7633121 C24.9966419,45.4330027 25.0294095,45.1025772 25.0618285,44.7721517 C25.5354482,44.9244145 26.0502018,44.9802791 26.5386947,45.0035076 C27.270737,45.0383504 28.006149,45.0973508 28.7388884,45.1088489 C30.2028567,45.1318451 31.6749588,45.0596044 33.1391595,45.0352145 C35.775906,44.9914288 38.4130011,44.8656464 41.0485856,44.7616988 C38.4024271,46.9085937 35.6063743,48.8674537 32.689825,50.6493125 C32.6482264,50.6747478 32.6060468,50.6989054 32.5644482,50.7241083 M24.2363637,51.6546424 C24.4591137,51.6842587 24.6800046,51.6938985 24.8489553,51.7110876 C25.6971947,51.7965685 26.5321877,51.8741518 27.3847264,51.886579 C28.2300609,51.8988901 29.0752792,51.9112012 29.9206137,51.9236285 C30.1003708,51.9260675 30.2801278,51.9288549 30.4598849,51.93141 C28.2340116,53.1467255 25.9398144,54.2352134 23.6780363,55.381308 C23.8773144,54.1409057 24.0633461,52.8986451 24.2363637,51.6546424 M48.4905504,23.9820565 C53.5632546,26.1366168 60.0697159,26.3320847 64.4290856,22.7530362 C64.8622687,22.8715016 65.3413497,22.9108739 65.7238708,22.949201 C66.5832651,23.0354949 67.4347581,23.1148202 68.2983356,23.1418814 C69.9814518,23.1943778 71.6660785,23.2730063 73.3498919,23.2937959 C76.7562123,23.3358395 80.1627651,23.3554676 83.5692018,23.3857808 C83.8591137,23.388452 84.0910433,23.3001837 84.2669659,23.1583737 C84.6119553,23.7429191 84.9328919,24.3422146 85.225825,24.9567247 C85.653082,25.8529967 86.0151525,26.7792334 86.3125011,27.7262597 C86.248825,27.7152262 86.1825926,27.7075608 86.1117123,27.7062832 C81.6349835,27.6289323 77.1548849,27.7576182 72.6773426,27.7763171 C68.1987546,27.7950161 63.7207475,27.7758526 59.2422757,27.8076756 C58.0029166,27.8166186 56.772737,27.8168509 55.5365151,27.9087196 C54.8931313,27.9565704 54.2420785,27.977476 53.6048532,28.0813074 C53.5336243,28.0928056 53.4611173,28.1030261 53.3880292,28.1132466 C52.5340961,27.6144144 51.4740292,27.7185943 50.4979729,27.7002438 C49.3772511,27.6791058 48.2566454,27.6602907 47.1360398,27.6436824 C44.933406,27.6110463 42.7305398,27.5872371 40.5276736,27.5721386 C36.1557546,27.5421738 31.7945257,27.6537868 27.4253954,27.8060496 C25.2515785,27.8816584 23.0860116,28.0102282 20.9401982,28.3446026 C20.7961137,28.1581938 20.6534236,27.9708559 20.5074799,27.785957 C18.9870398,25.8598491 17.1845891,23.3940269 14.6826313,22.7971704 C14.7786102,22.6408425 14.8759835,22.4854438 14.9748673,22.3310904 C16.7082968,22.7879951 18.6205539,22.7648827 20.3916313,22.8605842 C22.4330997,22.9708035 24.4702687,23.046993 26.5141771,23.0971665 C30.5770116,23.196933 34.6390328,23.2595338 38.7026806,23.3212055 C39.8304905,23.3383946 40.9583004,23.3563967 42.0861102,23.3752118 C42.6944025,23.3853162 43.3028109,23.3970466 43.9112194,23.406338 C44.2510961,23.4115644 44.5549518,23.4106353 44.8787933,23.2978609 C45.1786982,23.1934487 45.4710504,23.0367724 45.7610785,22.9070412 C45.8622863,22.8617456 45.9445539,22.7947314 46.0117159,22.7156383 C46.8081313,23.191242 47.6333637,23.6179497 48.4905504,23.9820565 M68.3125116,16.8174556 C68.9505504,16.9944569 69.6090398,17.0238409 70.2835644,17.0747113 C71.168987,17.1417256 72.052318,17.1529914 72.9400644,17.1586824 C74.3554623,17.1677415 75.7712088,17.1579855 77.1861419,17.1189617 C77.7939694,17.1022371 78.149068,16.6956221 78.2544588,16.2298905 C78.2690997,16.2417371 78.2842053,16.2533513 78.2988461,16.2654301 C80.0210046,17.6836467 81.5814166,19.3056934 82.9037405,21.1011409 C79.7192405,21.1111291 76.5343919,21.1132197 73.3498919,21.1345899 C71.6663109,21.1459719 69.9814518,21.2150767 68.2983356,21.2583979 C67.4726384,21.2795358 66.6590257,21.3479438 65.8368144,21.4259916 C65.8205468,21.4276176 65.8033497,21.4290113 65.7867335,21.4305211 C65.8738813,21.3300578 65.960332,21.2282008 66.0448074,21.1234402 C67.0276032,19.9061503 67.835987,18.4062856 68.3125116,16.8174556 M89.0173391,80.7180351 C89.2983039,79.9453388 89.1891947,79.1166617 89.1732757,78.3041285 C89.1570081,77.4704574 89.1480609,76.6372508 89.1452722,75.8034635 C89.1398109,74.1736353 89.1287722,72.5439232 89.1107616,70.914095 C89.0742757,67.6170406 89.036163,64.3174311 88.9063708,61.0224672 C88.6498074,54.5084968 88.1556208,48.0104379 87.3489799,41.5402532 C86.9569306,38.3946487 86.4702968,35.256245 85.8099482,32.1551231 C85.819244,32.1426959 85.8283074,32.1299202 85.8376032,32.1173768 C86.495163,31.2391069 87.2430081,30.4272706 87.8890644,29.5430774 C87.9463497,29.4645651 87.9702863,29.3639856 87.9697053,29.2623609 C87.9932933,29.2508628 88.0169975,29.238784 88.0410504,29.2250792 C88.5769518,28.9200889 88.0929905,28.0886244 87.5572053,28.3976797 C87.6190222,28.3621401 86.7291842,26.0794746 86.6349482,25.8496286 C86.2962335,25.0240874 85.9153391,24.2168968 85.4858743,23.4345606 C85.2267546,22.9626735 84.9493919,22.5006585 84.658899,22.0471219 C84.6081208,21.7084502 84.4251102,21.3945169 84.1106806,21.2265748 C83.5589764,20.4365733 82.9630011,19.6772334 82.3277511,18.9537815 C79.7271419,15.9921467 76.4788497,13.6013526 72.9300715,11.8983545 C72.4172933,11.6523647 71.8892933,11.4472569 71.3631525,11.2325094 C70.803082,11.0035924 70.2836806,10.7044093 69.731744,10.4641103 C68.833656,10.0732907 67.9469553,10.0957062 67.0647863,10.5095221 C66.9893743,10.5449455 67.043406,10.6608558 67.1200961,10.6408793 C67.688068,10.4929137 68.2698673,10.4680592 68.8392335,10.6288005 C69.3970961,10.7862897 69.8212159,11.1342528 70.3085468,11.4246091 C71.1765398,11.9420241 72.1469025,12.2793021 73.0366243,12.7622227 C74.2131208,13.401239 75.3628919,14.1028561 76.4626982,14.8731134 C75.3231525,14.9333914 74.1827933,14.9769448 73.0420856,15.0071419 C72.1948919,15.0296735 71.3480468,15.0335062 70.5020151,15.0827507 C69.8998813,15.1177096 69.2736947,15.1078375 68.6719095,15.2050488 C68.8170398,14.2079651 68.8172722,13.2019384 68.6358884,12.2306384 C68.6358884,12.2302899 68.6357722,12.2299415 68.6357722,12.2295931 C68.5919659,11.9955659 68.5388637,11.7632808 68.4735609,11.533667 C68.3344729,11.0450553 67.8888567,10.9717694 67.5653637,11.1566683 C67.5332933,11.1330914 67.5009905,11.1098629 67.4699659,11.0846599 C67.0824482,10.7701459 66.7336243,10.3938441 66.4302335,9.99837876 C65.8000961,9.1766703 65.2908039,8.22546291 64.9051454,7.26670625 C64.5144905,6.29575463 64.2377088,5.27985584 63.9666208,4.27046104 C63.8306701,3.764428 63.6835644,3.26106624 63.5450574,2.75538163 C63.4246771,2.31578212 63.3370644,1.83019016 63.1159412,1.42961455 C63.0744588,1.35458647 62.949663,1.36875586 62.9297933,1.45400448 C62.8126666,1.95574025 62.8745997,2.52797454 62.8960961,3.03958242 C62.9198004,3.60740329 62.9524518,4.16999775 63.0280961,4.73352134 C63.1848461,5.90284442 63.4376912,7.05230713 63.8428708,8.16262979 C64.231318,9.22742459 64.7439799,10.221024 65.4402335,11.118109 C65.9028144,11.7140363 66.5597933,12.5028765 67.3207687,12.8242429 C67.4202335,13.9429278 67.4088461,15.0627742 67.1444975,16.1703094 C66.7986947,17.6200006 66.136487,18.9980318 65.226663,20.1786207 C63.3189377,22.6540828 60.3675292,24.0527874 57.2884201,24.3410531 C54.1027581,24.639191 50.8427299,23.9271211 47.9802123,22.5266744 C44.7962933,20.9689707 42.1550151,18.5657493 39.7826173,15.9718218 C38.4149764,14.4766028 36.996906,13.0054252 35.7294271,11.4234477 C35.504818,11.1430796 35.1453039,10.573865 34.7188602,10.0610957 C35.1528567,10.0571469 35.5982405,9.9922232 35.9823884,9.94297877 C36.7771771,9.84100562 37.5539553,9.68316791 38.3306173,9.48572559 C39.7827335,9.11662461 41.3139799,8.6030423 42.5828532,7.79062524 C45.2678215,6.07136725 46.3159201,3.8905588 46.6739236,0.886067468 C46.7870997,-0.0637462121 45.1439553,-0.294405294 44.9909236,0.65831195 C44.7558567,2.12286936 44.4001771,2.83551998 43.9324835,4.24235455 C43.4826842,5.59460212 42.8311666,6.09831231 41.5858813,6.84371513 C40.4168215,7.54359006 39.0882229,7.95008895 37.8002933,8.37017651 C37.0866102,8.60292616 36.3644447,8.81523472 35.6447194,9.02916928 C35.1865539,9.16540447 34.6426349,9.28421829 34.1778461,9.49455243 C33.9353426,9.28189544 33.6823813,9.12150259 33.4276771,9.06076005 C33.4463849,9.02928542 33.4220997,8.98038941 33.375156,8.98968081 C33.300325,9.0046632 33.2257264,9.02115544 33.1508954,9.0366024 C33.0757159,9.04194495 33.0008849,9.0568112 32.9261701,9.08375627 C28.4402616,10.0547079 24.1323673,12.1223935 20.4793602,14.9390824 C20.2951877,15.0158526 20.1170574,15.1100442 19.9475257,15.2290903 C19.8602616,15.2902974 19.8023954,15.3875087 19.7857792,15.4882043 C19.2366313,15.9362822 18.7037511,16.4013169 18.1888813,16.8826116 C14.0422687,20.7591011 11.4149342,25.9158298 9.57564895,31.2198273 C7.76378627,36.4451962 6.53732501,41.924685 5.86291656,47.4109101 C5.17537782,53.0031734 5.09613134,58.7115791 6.09333557,64.2722516 C6.62877219,67.258044 7.49560318,70.1922691 8.77505036,72.946241 C9.92400811,75.4196125 11.7942018,78.2372304 14.7316666,78.538388 C14.7410785,78.5477956 14.7499095,78.5576677 14.7604835,78.5664945 C15.9130433,79.5151468 17.6290433,78.8599867 18.8340081,78.2932111 C19.0250363,78.2033168 19.2145539,78.1087768 19.4032581,78.0119139 C19.3035609,78.3955327 19.2585926,78.7971536 19.2377933,79.1735716 C19.1944518,79.955327 20.2972792,79.9996935 20.5060856,79.3509212 C22.2937792,79.6650868 24.1398039,79.6695002 25.9479482,79.659512 C27.9682687,79.6483623 29.9878919,79.5784445 32.0058884,79.4834399 C36.0098109,79.2947083 40.0089694,79.0062102 44.0155644,78.8750853 C52.1282194,78.6095834 60.263068,79.1769397 68.3692159,79.4626504 C70.6431947,79.5429049 72.9171736,79.6229271 75.1911525,79.7031816 C77.5145151,79.7850621 79.8355539,79.8007413 82.1402088,80.1147907 C82.9876349,80.2302364 83.3122898,79.4001657 83.0732722,78.882983 C83.1328813,78.5356006 83.0735046,78.1547692 83.0408532,77.7455991 C82.9799659,76.9810327 82.9224482,76.2162341 82.8685328,75.4510871 C82.7632581,73.9593523 82.6615856,72.4670368 82.5651419,70.9746052 C82.3696982,67.9503697 82.2015609,64.9239274 82.0379553,61.8978335 C81.7127194,55.8810693 81.4637088,49.8597756 81.280582,43.8370881 C81.2358461,42.3690464 81.1775151,40.9005401 81.1038461,39.4335437 C81.191575,39.2945211 81.2790715,39.1552662 81.363663,39.0143853 C81.645325,38.544821 81.9215257,38.072237 82.2067898,37.6047633 C82.7790609,36.6677253 83.354818,35.7368429 83.956487,34.8182715 C84.4761208,34.025018 85.0121384,33.2439594 85.5722088,32.4790447 C86.2675328,38.3480756 86.8855856,44.2230297 87.1693391,50.1296908 C87.4817933,56.635299 87.6476067,63.1508954 87.7377757,69.6631237 C87.7629905,71.4824965 87.7799553,73.3019855 87.7993602,75.1213584 C87.8094694,76.0688492 87.8195785,77.0156432 87.8117933,77.9631341 C87.8042405,78.869162 87.667244,79.8604386 87.9888778,80.7180351 C88.1764201,81.2181448 88.832237,81.2269717 89.0173391,80.7180351 Z" fill="#000000" transform="translate(-323.000000, -372.000000) translate(289.000000, 346.000000) translate(12.000000, 17.000000) translate(17.080986, 74.215082)"/><path d="M46.0911336,28.3105103 C45.8156315,24.7398241 46.2425669,20.9972469 44.8680714,17.6033297 C42.4715746,11.9721587 35.7514581,10.0945984 30.541617,7.95072331 C28.4544612,7.33300444 21.4314222,7.24666357 18.9876106,6.42909345 C13.4566587,4.57872946 12.1351799,2.3740476 7.74034374,5.89720708 C6.99848257,6.49905772 6.53432655,7.15317249 6.19574659,8.04688933 L6.20966084,8.05072203 C6.11295683,8.4233073 6.21661796,8.79507956 6.43449185,9.07904807 C4.528936,11.0300104 3.73153381,13.9549441 4.70924142,16.5520074 C7.89989374,23.3102256 7.7498518,26.9644183 6.721821,34.2298309 C5.37932827,41.0125552 8.44707143,43.490224 13.5276261,47.1807693 C13.3207676,47.5825063 13.2778654,48.1164136 13.5475698,48.4708806 C19.4225119,56.7401132 30.4997472,60.6883066 39.9907696,56.4911475 C43.8432762,54.7736316 45.5632039,50.6641163 46.5447379,46.9560335 C47.688141,42.8040538 48.0394757,38.4289644 47.1086127,34.1995177 C46.73316,32.2434451 46.2440743,30.3015419 46.0911336,28.3105103 Z" fill="#D08B5B" transform="translate(-323.000000, -372.000000) translate(289.000000, 346.000000) translate(12.000000, 17.000000) translate(43.225352, 20.905657)"/><path d="M4.01240444,18.1812758 L7.5056729,20.5122323 L20.0098383,7.30831628 L15.84873,4.0278524 C10.8158852,7.75357277 7.80468218,10.1080867 6.81512097,11.0913942 C5.82555976,12.0747018 4.89132091,14.4379956 4.01240444,18.1812758 Z" fill="#9FD8E5" transform="translate(-323.000000, -372.000000) translate(289.000000, 346.000000) translate(12.000000, 17.000000) translate(43.225352, 20.905657)"/><path d="M12.2032566,-11.2498915 C12.916382,-11.3571501 13.4549134,-10.9139825 13.7110942,-10.2893455 L13.7245474,-10.2557114 C13.8068734,-10.0431705 13.8984755,-9.83643679 13.9970347,-9.63318735 C15.7815366,-10.5100635 18.3278435,-10.284747 19.4572163,-8.50892757 C20.263083,-7.24065105 19.7714464,-5.73544375 19.467652,-4.39051316 L19.2682145,-3.50434559 C19.6537261,-3.25861701 19.9444425,-2.81857035 19.9307948,-2.36290097 L19.9291412,-2.32782167 L19.8479747,-1.09206506 C20.1053883,-1.35338577 20.3407709,-1.63793499 20.5506441,-1.94106702 C20.6955842,-2.20703343 20.8521194,-2.46835414 21.0202499,-2.72154488 C22.0093208,-4.21165365 24.2298024,-2.91666434 23.4135,-1.32086586 C23.2569647,-1.01308814 23.0807176,-0.721570364 22.8917158,-0.44050542 C22.6783641,-0.0258765576 22.5032765,0.400366559 22.3687721,0.838223929 C22.7548924,1.00663061 23.0517296,1.38060958 23.0830367,1.94506232 C23.1560865,3.26328013 22.4650123,4.36314997 21.3657869,5.05419808 C21.0422808,5.25744752 20.7083389,5.29693599 20.405704,5.22144334 C20.3523661,5.29345171 20.2990282,5.36546008 20.2480093,5.43862988 C20.686308,5.79518748 21.0817044,6.20168636 21.4214439,6.65231941 C22.4441409,6.49901126 23.4726355,6.42700289 24.5011301,6.42468003 C25.7580503,5.80796315 27.2631078,5.82073883 28.6139491,6.05186249 C29.4835894,6.20052494 30.3184441,6.48971986 31.1741701,6.697615 C32.076277,6.91596297 32.9922981,6.92409295 33.9048407,7.0727554 C35.055085,7.25974489 36.0638677,7.79167771 36.6981254,8.64067967 C37.3949971,8.66158533 38.127814,8.94729597 38.7354027,9.33521205 C40.1500177,10.238801 41.5565159,11.1551656 42.9676523,12.0645617 C43.5092208,12.413691 43.7117176,12.9710517 43.6121535,13.5927191 L43.6053885,13.632486 L43.5578481,13.8903224 L43.6694906,14.0490194 C44.1013367,14.6598643 44.5712226,15.2996889 44.8507134,15.9739196 C45.3678595,16.7207161 45.8351462,17.5035168 46.249095,18.3107074 C46.8068243,19.3954787 47.2671539,20.5452899 47.5790649,21.7252981 C47.6567528,22.0237844 47.7344407,22.3245936 47.7854596,22.628887 C47.8585094,23.0586144 47.7460359,23.3919435 47.6845813,23.8042495 C47.608053,24.3268909 47.5802245,24.8565009 47.499058,25.3803038 C47.4445606,25.7275699 47.1500424,25.8982995 46.84161,25.9075909 C46.957562,26.7914356 47.0410475,27.6810874 47.1210544,28.5637707 C47.2335279,29.8250787 47.3100562,31.089871 47.3761489,32.3546632 C47.7170479,32.8505918 48.4139196,33.2431536 48.9171515,33.3790404 C49.6140233,33.5660299 50.3445211,33.3627804 51.0031287,33.1246882 C51.4170775,32.9748644 51.756817,33.4963443 51.5550604,33.844772 C50.9208028,34.9388347 49.5641639,34.934189 48.5368288,34.4498746 C48.1020086,34.2454637 47.7205264,33.9493003 47.4376034,33.563707 C47.4549963,33.9307174 47.4735486,34.2977279 47.4921009,34.6658997 L47.50938,34.9993776 C47.7182736,38.8938636 48.1692608,42.9223115 47.438763,46.7784051 C46.1737262,53.4577625 40.6552828,58.5435845 33.9141169,58.9385288 C30.3766484,59.1457783 27.4308399,58.0992166 25.965985,57.5154012 C24.5011301,56.9315858 25.0704693,55.7412215 26.0873772,56.0814957 C27.8391714,56.6676751 31.0573217,57.5409791 33.9373073,57.1638709 C40.7251398,56.2750651 46.4809991,52.8768445 45.8896437,38.2407671 C45.8057838,36.16523 45.5475852,34.0886713 45.4919282,32.0132041 C45.4385903,29.984194 45.4583021,27.9540224 45.369019,25.9261737 L45.3392469,25.2342892 C45.3043865,24.4258415 45.2671101,23.6136467 45.2066862,22.8042622 C45.1336364,22.4906774 45.0733413,22.1724468 44.9840583,21.8646691 C44.7417185,21.0272814 44.4251694,20.2131222 44.032092,19.4361286 C43.945128,19.5023299 43.8477282,19.5499483 43.7422119,19.5685311 C42.9409833,19.7125479 42.1896141,19.671898 41.4394044,19.3374075 C41.0892292,19.1829379 40.7807968,18.9773656 40.4932357,18.7230134 C40.3564123,18.6033866 40.2648102,18.4872441 40.1929199,18.3664559 C39.82999,18.372263 39.4670601,18.263089 39.2397941,18.0017683 C38.9805852,17.7039189 38.9374742,17.3962801 39.0390007,17.1114831 L39.0496328,17.0830808 L39.0241233,17.0737894 C38.7180099,17.8670429 38.1081022,18.5650596 37.4390589,19.0365983 C36.3815763,19.7845562 35.0585635,20.0005814 33.7900482,20.0203256 C32.3893475,20.0412313 30.9121185,19.8252061 29.5299702,19.6045353 C29.1647213,19.546464 28.8017914,19.4802628 28.4458186,19.390833 C28.4319044,19.4047701 28.4179901,19.4210301 28.4029163,19.4349672 C27.216727,20.5720027 25.5481771,20.8646819 24.0431196,20.2154451 C23.1734793,19.8403047 22.4441409,19.2363635 21.7994476,18.5441539 C21.7901714,18.9065187 21.7716191,19.2688834 21.740312,19.6277638 L21.7273474,19.770274 C21.663155,20.4386762 21.5396377,21.1476825 21.0353236,21.6300612 C20.2201808,22.4117005 19.03747,22.0981156 18.0970989,21.5894113 C18.0982584,21.6138012 18.0982584,21.6393526 18.0982584,21.6649039 C18.3521934,22.5290044 18.6072879,23.3942663 18.8623824,24.2595283 L18.9173276,24.4438476 C19.1028247,25.0582338 19.3062679,25.6734053 19.3621357,26.3164126 C19.4688116,27.5452007 18.6525092,28.7588902 17.2889132,28.3465842 C16.5736547,28.13109 16.0006434,27.5287056 15.4508293,27.0462243 L15.1043767,26.74614 C16.000686,29.681062 16.6221889,32.7205122 16.680165,35.7831909 C16.6836435,35.9492748 16.5410225,36.0747087 16.3833277,36.0805158 C16.0146002,36.0956144 15.6180443,36.0224446 15.2469977,35.8749435 C15.2261264,35.8737821 15.205255,35.8726207 15.1832241,35.8691364 C14.550126,35.7773838 13.9622491,35.548583 13.4439435,35.2106082 C13.5633741,35.5903943 13.616712,35.9980546 13.585405,36.4242977 C13.5772883,36.5276646 13.416115,36.5636688 13.3929246,36.4498491 C13.0937683,34.9760003 11.3718805,33.8621933 9.88769438,34.1444197 C8.29451333,34.4475517 7.12107867,35.8203565 6.83351761,37.3824737 C6.52508518,39.0607334 7.11528107,41.0014752 8.20870882,42.2964645 C8.71194068,42.8934371 9.37402683,43.3916886 10.1601817,43.5171226 C10.519633,43.5740324 10.8929986,43.5542882 11.2420142,43.4520828 C11.3904328,43.4079486 11.5295753,43.346393 11.6710368,43.2883218 C11.8774314,43.2046991 12.1186117,43.1919235 12.3134111,43.1036551 C12.7551884,42.9050514 13.1992847,43.3127117 12.9754972,43.766829 C12.7806978,44.1628751 12.6056102,44.4300029 12.282104,44.6344138 C12.5441556,44.9549672 12.7818573,45.4009546 12.8699809,45.5205814 C13.3198748,46.1291683 13.7767258,46.7040738 14.2892339,47.2603966 C14.8110181,47.8248493 15.3803426,48.3405222 15.9821337,48.817868 L16.2350835,49.0180687 C16.8147418,49.4785558 17.3194955,49.9052526 17.7283714,50.5658132 C18.0507181,51.0872932 17.6332907,51.7946013 17.0291806,51.7864713 C15.1391623,51.7597585 13.7651306,50.0965974 12.7864954,48.6436542 C12.647353,48.4357591 12.5163272,48.2162497 12.3945775,47.9909332 C12.3505157,48.0617801 12.3018159,48.1279814 12.2473184,48.1883755 L12.3551538,48.4787318 C12.6751814,49.3335409 11.2965117,49.8921865 10.8964771,49.0942873 C10.6054375,48.5158974 10.2680171,47.9653818 9.89233246,47.4450632 C9.67086406,47.4137047 9.45403374,47.2789794 9.33344362,47.1047656 C9.02848975,46.6622625 8.68643123,46.2151137 8.39771064,45.743575 C8.23769683,45.5914283 8.07304493,45.4450887 7.90491447,45.3022334 C7.85621461,45.3452061 7.80635523,45.3881789 7.7588149,45.4334745 C7.54778218,45.915466 7.28689009,46.3556462 6.96338389,46.7702751 L6.89402403,46.8587316 C6.27427152,47.6410888 5.46701226,48.4418196 4.46809596,48.6332014 C4.16314209,48.6912727 3.86978343,48.3114866 4.13995168,48.0687487 C4.83914249,47.4392561 5.66588055,47.0106901 6.3105739,46.3080278 C6.62819967,45.9618401 6.91983089,45.5806022 7.17061352,45.1810524 L7.22775455,45.0885311 C7.26949728,45.020007 7.31239954,44.9514829 7.35646131,44.8817974 C7.06542169,44.6831937 6.77438206,44.4834285 6.48334244,44.2836633 C5.68215124,44.969279 4.63880005,45.2829001 3.75262691,45.8508332 L3.66454832,45.9084974 C2.86331971,46.445076 2.01918885,45.2580992 2.66156316,44.6065396 C3.36968227,43.8909854 3.96080578,43.0376862 4.58810632,42.2423421 C4.29312433,41.6980981 4.15351807,41.0545523 4.1012237,40.4041541 C4.08058424,40.2200682 4.06446691,40.0358661 4.04834957,39.8516641 C3.59845565,39.8586326 3.14624269,39.704163 2.76360095,39.4381966 L2.6186609,39.3348298 C2.15369322,39.4834922 1.66553512,39.5555006 1.1982484,39.5427249 C0.0990230433,39.510205 -0.350870877,38.2523813 0.336724728,37.4568049 C1.03823458,36.6438071 2.2661667,36.4661091 3.23900432,36.8609937 C3.27031137,36.8447337 3.30277795,36.8273124 3.334085,36.809891 C3.28770418,36.5961887 3.29802391,36.4023468 3.35078209,36.2320818 L3.33547642,36.1282504 C3.12154491,35.7994509 2.98089508,35.4240782 2.92755714,35.0274514 C2.8853506,34.7132859 2.89393105,34.4019077 2.96651703,34.091691 C2.99063505,33.9884403 3.04084228,33.881473 3.07922241,33.7738089 C3.00014312,33.5738114 2.95364635,33.3670777 2.9392683,33.1591826 C2.91712146,33.1328182 2.89509057,33.105757 2.8742192,33.0764891 C2.39151085,32.3976359 2.48902652,31.579644 2.94842851,31.0302898 C2.95051564,30.9953309 2.9537623,30.960372 2.95851634,30.9256454 C2.93161546,30.865019 2.90691768,30.8038119 2.88442298,30.7419079 C2.43557263,30.2883713 2.10603693,29.7426175 2.16749151,29.0663195 C2.20355259,28.6684152 2.36681307,28.3102316 2.61390687,28.042523 C2.570077,27.9126757 2.56590272,27.7622711 2.61900876,27.636721 C2.22465587,26.5860956 2.27451524,25.3207226 2.55836584,24.1457086 C2.49575174,23.9668491 2.46328517,23.772891 2.47024229,23.5673187 C2.50270886,22.6950883 3.25639713,21.8937047 4.14922785,21.9041576 C4.25671539,21.9050867 4.35736176,21.91914 4.45406576,21.9396972 L4.45534124,21.9189077 C4.48954709,21.6571224 4.56143736,21.4151975 4.66637395,21.1981271 C4.61477529,21.1794281 4.56700305,21.1525992 4.52514437,21.1169434 C3.95303699,21.4226306 3.34765139,21.6563094 2.71292991,21.8155408 C2.24622295,21.9326125 1.76815268,21.4012604 2.05826469,20.9624739 C2.19288501,20.758876 2.34141957,20.5760676 2.50143339,20.4090547 C2.27393548,20.4103322 2.04295902,20.4257792 1.80931565,20.4558601 C1.38956926,20.5104471 0.921123017,20.223575 0.648635719,19.835659 C0.310055759,20.1655038 -0.0296837226,20.4941872 -0.369423204,20.8228705 C-1.22978735,21.6579354 -2.52960973,21.0435414 -2.66527362,19.9425101 C-2.92152763,19.873986 -3.16038884,19.7578435 -3.37026203,19.5917596 C-4.72690092,20.1817637 -6.18673712,20.5058014 -7.67903989,20.567357 C-8.75043675,20.6114911 -9.37657778,19.3617974 -8.87566496,18.4791141 C-8.53940404,17.8867872 -8.12197669,17.3548543 -7.64077572,16.892607 C-8.38750686,17.1214078 -9.15858794,17.2863302 -9.9459023,17.39202 C-10.3714463,17.4489298 -10.9732374,17.0958565 -11.1436869,16.7044561 C-11.7953374,15.1992488 -11.7396804,13.6301631 -10.9894707,12.1656057 C-10.9604827,12.1075344 -10.9280161,12.051786 -10.896709,11.9960376 C-10.8190212,11.8020796 -10.7343762,11.6104444 -10.6427741,11.4222935 C-11.5657523,10.4583104 -11.6457592,9.02511147 -11.148325,7.82535905 C-11.3477625,7.50132137 -11.4242908,7.11108244 -11.2886269,6.75800912 C-10.9025066,5.74176191 -10.3459368,4.8033302 -9.64326747,3.99730098 C-9.71051966,3.86722134 -9.7696552,3.72901171 -9.81951457,3.58034927 C-10.214911,2.37827399 -9.75690047,0.927653684 -8.8327627,0.090265981 C-8.25184298,-0.437021144 -7.58395922,-0.752928849 -6.87085416,-0.955016866 C-6.57053838,-1.48694969 -6.18441808,-1.96661838 -5.73452416,-2.37079441 C-5.71713135,-2.40912145 -5.69973855,-2.44744849 -5.6800267,-2.48577552 C-4.97967637,-3.80747761 -3.70420391,-4.5159471 -2.33712935,-4.67970808 C-2.28379141,-5.19654237 -1.93593528,-5.69014816 -1.43038438,-5.85042487 C-1.29124193,-6.29757364 -1.08368778,-6.72497818 -0.798445757,-7.11289426 C-0.349711357,-7.72380401 0.395860269,-8.01183751 1.09852964,-7.61114575 C1.48349042,-7.39163635 1.85221791,-7.13960705 2.19775499,-6.86086495 C2.35295234,-6.93376673 2.52889756,-6.98093847 2.72741463,-6.99598572 L2.7775152,-6.99907457 L3.92080233,-7.05714584 C4.39968426,-7.26968669 4.87740667,-7.49268036 5.3562886,-7.70986691 C5.64384966,-7.94795911 5.96503682,-8.14656285 6.31521198,-8.29406388 C6.71176796,-8.46014771 7.11760011,-8.55422316 7.52459177,-8.58558165 C7.85505509,-8.69359421 8.18783745,-8.78883109 8.52641741,-8.86316232 C9.32184841,-9.03737613 10.1543841,-9.13493586 10.9799626,-9.12680588 C10.9968585,-9.34083999 11.0052354,-9.55743397 11.003633,-9.77658783 L11.0019935,-9.88637808 C10.9834412,-10.5890404 11.5434895,-11.1500089 12.2032566,-11.2498915 Z M11.402028,44.9689043 C11.288395,44.9932942 11.1736025,45.0130385 11.05881,45.0269756 C11.0935956,45.1129211 11.1283812,45.1988665 11.1620073,45.284812 C11.2547689,45.3370762 11.3486901,45.3870174 11.4426112,45.4334745 C11.4147828,45.2755206 11.3985495,45.1164053 11.402028,44.9689043 Z M5.44476001,43.1957562 L5.36767337,43.3379318 C5.35518061,43.3611948 5.34287681,43.3841781 5.33077915,43.4067872 C5.49427153,43.3940115 5.65892343,43.3974958 5.82125628,43.4160786 L5.82079248,43.3987733 C5.79992111,43.3916886 5.77904974,43.3851847 5.75910599,43.3754287 C5.64709632,43.3215385 5.54297139,43.2611444 5.44476001,43.1957562 Z M8.66440034,36.7088586 C9.69025382,36.7687043 10.5593797,36.9262539 11.4923474,37.3757569 L11.5724775,37.4150052 C12.3968966,37.8249884 13.7604926,38.5822377 13.6457,39.6681705 C13.6132335,39.9771096 13.389446,40.3023087 13.0369518,40.2779188 C12.0710713,40.2117175 11.5191396,39.2361202 10.8651701,38.6275333 C10.205403,38.0143007 9.3948982,37.3836467 8.59598863,36.9620493 C8.48305963,36.9026922 8.52754439,36.7148213 8.65042799,36.7087673 L8.66440034,36.7088586 Z M4.01240444,22.4012476 C3.76658611,22.4093776 3.84891206,22.6486312 3.97529979,22.4488661 C3.98573547,22.4326061 3.99849019,22.4163462 4.01240444,22.4012476 Z M17.2814922,6.42909345 C14.9534072,6.49041671 12.6103643,7.86728651 10.8663296,9.25902255 C9.34909714,10.4698085 8.03895503,11.909976 6.87885485,13.462221 C6.5803943,14.2352658 6.32414029,15.0244543 6.10765783,15.81945 C5.96503682,16.3444143 5.87575374,16.8751857 5.75632314,17.4047956 L5.71921849,17.5671629 C5.62541329,17.7427704 5.55572611,17.9317343 5.50493912,18.1269699 C5.71631969,18.3392785 5.99054626,18.4913091 6.29248538,18.5634336 C6.38976914,18.5866621 6.47058772,18.6369518 6.53447729,18.7036176 C6.77751277,18.297351 6.98993691,17.8685528 7.11354179,17.4139709 L7.11806392,17.3929491 C7.58523469,16.6265245 8.09264082,15.8839091 8.63657185,15.1667289 C10.1369913,13.1864986 11.7893079,11.3816436 13.7755663,9.87992056 C15.2817833,8.74172368 16.965407,7.84974898 18.7557065,7.27019772 C18.3175237,6.91607912 17.8198576,6.63594331 17.2814922,6.42909345 Z" fill="#000000" transform="translate(-323.000000, -372.000000) translate(289.000000, 346.000000) translate(12.000000, 17.000000) translate(43.225352, 20.905657)"/><g fill="#000000"><path d="M20.6288926,23.8483721 C21.0275651,23.1452451 22.2171919,23.2595294 22.3990405,24.0796119 C22.7679665,25.7420761 20.7845968,27.2772482 19.2782165,27.3155753 C17.7812482,27.3535539 16.101618,26.0800509 16.3183257,24.4714768 C16.3718926,24.0735724 16.9036109,24.1218877 17.0848785,24.3713619 L17.1552538,24.4670673 C17.6475891,25.1281702 18.2972209,25.8124407 19.2109384,25.6512527 C19.589625,25.5845869 19.9335687,25.3481207 20.1624771,25.0437111 C20.4385616,24.6763522 20.4082342,24.2376818 20.6288926,23.8483721 Z M11.1101704,11.6858557 C11.3130507,11.6299912 11.5177901,11.6515937 11.6975472,11.7280155 C12.0988923,11.8015337 12.4341211,12.1360242 12.5519451,12.5179009 C12.5612408,12.5509628 12.5716211,12.5836117 12.5830515,12.6159166 L12.6009803,12.6641243 L12.5528746,12.5417101 C12.5750683,12.6622661 12.6732549,12.7889776 12.7085789,12.9099981 C12.7520366,13.0587767 12.7626106,13.2277641 12.7479697,13.3915251 C12.8755542,13.3928026 13.0031387,13.3970999 13.1304908,13.4081334 L13.2535558,13.4191567 C13.9417889,13.4830889 14.6973726,13.6003581 15.1053782,14.1947669 C15.334519,14.5287928 15.119438,15.1301789 14.6984556,15.1945218 C14.0504239,15.2935914 13.4922127,14.9351755 12.8463887,14.8633994 C12.2358887,14.7954561 11.5970366,14.8343638 10.994438,14.9445831 C9.75032873,15.1719251 8.6070957,15.6759577 7.39470138,15.9922261 L7.2296493,16.0341162 L7.2296493,16.0341162 L7.22988169,16.0333032 C7.02212113,16.0834768 6.78624085,15.7947465 6.99179366,15.6258752 C7.96308592,14.8283244 9.20662817,14.1819912 10.4316951,13.7883841 C10.2532162,13.5046479 10.1980225,13.1309012 10.3200296,12.8262593 C10.3389232,12.7631242 10.3623765,12.7017452 10.3871014,12.6405418 L10.4386669,12.5146489 L10.4386669,12.5146489 C10.4436634,12.4553001 10.4550507,12.3966481 10.4715507,12.3391575 L10.4742232,12.32162 L10.4742232,12.32162 L10.4757338,12.3226653 L10.4757338,12.3226653 C10.5669486,12.0263857 10.8051528,11.7699429 11.1101704,11.6858557 Z M23.502019,11.7317088 C23.7676702,11.4660694 24.1409497,11.5053252 24.4181651,11.7143883 L24.4549521,11.7432069 L24.4549521,11.7432069 C24.7162796,11.8592333 24.9325225,12.1127725 25.0745155,12.3477288 C25.2219697,12.5917443 25.3199239,12.8402893 25.3237585,13.108927 C25.9667937,13.1110176 26.5827549,13.3038142 27.0548641,13.8227391 C27.2073148,13.9902166 27.3114275,14.2485176 27.2275331,14.4755763 L27.1775683,14.6106501 L27.1775683,14.6106501 C27.0190354,15.0394937 26.3063129,15.2863578 26.0640714,14.7820394 L26.0528958,14.7574542 C25.795519,14.1586233 24.8074944,14.2214564 24.2823993,14.2826635 C23.9163782,14.3255201 23.5548887,14.4164597 23.2014169,14.5183167 C23.0768826,14.5542048 22.9534594,14.5931633 22.8301669,14.6329385 L22.7068817,14.6729025 C22.6411141,14.6941565 22.2985648,14.8801007 22.5116704,14.8360827 C22.5689556,14.8242362 22.6120648,14.9076265 22.5536176,14.9356169 C22.2996106,15.0569858 22.0286387,14.8152932 22.0456035,14.5425905 C22.0749828,14.0692144 22.8270563,13.8096669 23.1889375,13.6464369 L23.2105965,13.6365626 C23.3493359,13.5724519 23.4946986,13.5110125 23.6447092,13.4539865 C23.56035,13.3285526 23.4906317,13.1891815 23.4326493,13.0395899 C23.3778042,12.8983606 23.3412021,12.7610801 23.3211,12.6109078 C23.3013465,12.5375057 23.3013465,12.4641037 23.3211,12.3905854 L23.3241211,12.3695636 L23.3241211,12.3695636 C23.3138958,12.321016 23.3090155,12.2708425 23.3097127,12.2203205 L23.3076211,12.2006924 L23.3097127,12.2006924 C23.3168007,12.0238073 23.3871,11.8465738 23.502019,11.7317088 Z M19.2575451,16.7728525 C20.2781049,17.0880633 21.9618021,17.9467051 21.4299676,19.2720076 C20.6873514,20.4891814 18.7179254,19.5946516 17.7635979,19.2013929 C16.9061789,18.9175406 16.4597493,20.1185706 17.2888162,20.4805869 C24.1396859,23.1896116 24.1144711,16.039993 19.5059746,16.1449859 C18.9985415,16.156484 18.9826225,16.6680919 19.2575451,16.7728525 Z M10.1935955,7.45041501 L10.367682,7.39963857 C11.2722771,7.13773715 12.1956961,6.6854781 12.9988511,7.39116017 C13.3142102,7.66827627 13.3791644,8.24411097 13.1535095,8.58975117 C12.6394532,9.37731372 11.8770835,9.25699005 11.0468546,9.32412044 C10.4147419,9.37522316 9.7920412,9.56081893 9.2019919,9.79275558 C8.71977359,9.98241635 8.27253063,10.249428 7.85027007,10.5472175 C7.43544613,10.8400129 7.1520412,11.2977306 6.72652711,11.561258 C6.57059049,11.6578886 6.39048486,11.5584706 6.33447782,11.4017943 C6.13601303,10.8460523 6.4713581,10.1537266 6.75511162,9.68021346 C7.10149542,9.10252048 7.62763627,8.63005263 8.19340035,8.27256589 C8.81292798,7.88104046 9.49799907,7.65497898 10.1935955,7.45041501 L10.1935955,7.45041501 Z M23.3747366,6.85243262 C24.9037754,6.85196843 26.3750641,7.70201567 27.2302754,8.94810897 C27.5208845,9.37144852 27.3078951,9.99861823 26.8907472,10.2424014 C26.4227687,10.5160196 25.9224016,10.3189948 25.6140014,9.92690625 L25.5957296,9.90314906 C25.1052613,9.25031186 24.4730324,8.73614884 23.7235606,8.40142604 C23.357888,8.23801349 22.9535218,8.10549485 22.5579866,8.03824832 L22.4301576,8.01635406 C22.2509983,7.98634655 22.0431634,7.95769186 21.881138,7.9857519 C21.7943387,7.99713386 21.7146275,8.02582107 21.6411908,8.06949067 C21.6765148,8.14660931 21.5853,8.23952334 21.501057,8.19329861 C21.1210923,7.98470661 21.1676873,7.61258592 21.4815359,7.323391 C21.9255254,6.91422083 22.8013035,6.85254915 23.3747366,6.85243262 Z" transform="translate(-323.000000, -372.000000) translate(289.000000, 346.000000) translate(12.000000, 17.000000) translate(61.700704, 42.508169)"/></g><g fill="#000000"><path d="M43.2615011,11.0866996 C41.8507511,12.5437078 39.4956665,12.9618209 37.6187335,12.1804139 C32.7993391,10.1677798 35.1582581,3.89027563 38.8750574,2.20446668 C39.3393813,2.08878871 39.9595257,1.81434389 40.5250574,1.75209149 C40.5761842,1.72700471 40.6875011,1.79959379 40.822406,1.73095355 C44.9207968,2.18832287 45.8540926,8.54735914 43.2615011,11.0866996 M27.7168743,11.4596333 C26.1346173,13.5572837 23.1929694,14.2044299 20.7895468,13.2292972 C16.0414975,11.3603314 17.7255433,5.79373569 20.974068,3.61141739 C27.836325,1.03409832 30.6700257,7.59197062 27.7168743,11.4596333 M17.4241278,6.81184119 C17.4197123,6.80975062 17.4152968,6.80870534 17.4107651,6.80661477 C17.4358637,6.79558123 17.4609623,6.78454769 17.4859447,6.77328186 C17.4778109,6.79453595 17.4689799,6.81555775 17.4610785,6.83681183 C17.4487616,6.82833343 17.4379553,6.81846131 17.4241278,6.81184119 M46.5280363,4.54439041 C46.1406349,4.5452034 45.5810292,4.60884952 45.260325,4.87748721 C44.469487,2.21166752 41.5503813,-0.255548428 39.0117053,1.54349949 C37.0125327,2.18611616 35.5290433,3.61130125 34.6859165,5.50605063 C33.1657088,4.60222939 30.7753004,4.98817105 29.4570433,6.18339391 C28.5936982,3.33197845 26.4689165,2.33350104 23.9398849,2.18611616 C21.1795046,1.73420554 18.4281877,4.41373005 17.5697229,6.56329615 C16.8559236,6.48211252 15.7893496,6.25505386 15.1178461,6.69535022 C10.7596384,5.55297221 3.1400081,4.92313122 2.25400458,5.5578502 C1.62258908,5.80000739 1.27608908,7.28965159 2.1580257,7.37002223 C2.92655387,7.26096438 2.06832148,6.27851465 2.8430081,6.17131509 C6.97068063,5.91556922 10.9777405,6.74645294 15.0617229,7.09511284 C15.4263496,7.58535049 16.6044729,7.74934376 17.2329835,7.55236601 C16.2430996,11.1987772 18.3799658,13.6795818 21.5817792,14.4226617 C26.5395644,15.5609748 30.8529201,11.1280463 29.5565081,6.51718757 C31.0583567,5.77039104 32.7858602,5.80244638 34.4219165,6.19582116 C31.6880292,16.2526036 47.8925398,15.8013898 45.3616489,5.22208212 C47.0459271,6.05946982 47.4117158,4.7133778 46.5280363,4.54439041" transform="translate(-323.000000, -372.000000) translate(289.000000, 346.000000) translate(12.000000, 17.000000) translate(48.686620, 48.896009)"/></g></g></svg>