<svg viewBox="0 0 108 176" xmlns="http://www.w3.org/2000/svg"><g fill="none" fill-rule="evenodd"><path d="M106.058436,41.9401698 C105.610369,40.713511 106.264644,39.4899806 106.627575,38.3032813 C107.916873,34.1877314 104.390378,23.8072057 101.924014,23.6554731 C101.022033,21.3284333 98.6147072,20.363147 96.7200487,19.0230087 C94.5699836,17.6848612 92.4785294,16.1479115 90.242473,14.9747216 C90.1181209,13.866235 88.7702125,13.5914953 87.9459519,14.3844294 C85.6820875,12.9801567 82.967304,13.2409604 80.5405839,12.3208952 C78.6966089,9.34874035 78.5582576,6.22348828 78.0700397,3.35615613 C77.8572269,2.1062938 78.0833257,0.900338912 77.2268568,-0.214033733 C74.3497882,-4.2490957 62.9818375,-5.99864169 58.7905153,-3.60746752 C56.5343515,-5.01060255 56.4800188,-2.46940229 56.1216508,-0.901025252 C55.7233533,-0.116339016 55.5078762,0.772298948 55.574473,1.70857553 C54.5063448,3.9332815 53.6007226,6.7158666 51.3560054,8.37740284 C48.5077595,10.4856701 44.1256763,11.2871078 41.3487783,12.3208952 C40.9335107,11.9224372 40.6623931,11.4351487 40.5354255,10.8590295 C36.2315875,11.7920354 32.0545258,13.4320837 28.4485998,15.9929082 C24.3518251,17.1877132 21.4666279,20.510329 19.3803075,24.0729865 C19.1504272,24.4485494 19.0962371,24.831507 19.1634044,25.1831796 C12.7477195,34.5611613 9.68569133,45.7880902 9.25559274,57.1272187 C5.12986915,59.5963211 11.2165628,81.7771457 12.6334924,86.3820224 C12.6349184,86.3814535 12.6363445,86.3808847 12.6377706,86.3801737 C13.5570065,88.0030152 14.6007371,92.6337732 16.9012512,92.2755592 C18.4793251,94.054826 20.9941755,93.7050021 23.1356843,93.841661 C22.7868709,95.1758267 22.9582829,96.7023955 23.3734079,98.0207764 C23.8643991,99.5901489 26.2738639,99.6433335 26.615547,97.932325 C47.9413639,102.063944 69.8226297,98.7673518 91.3881667,99.387507 C97.6234554,99.4315905 103.858174,99.6239937 110.078489,100.066962 C110.954373,100.129247 111.842378,99.2367699 111.782769,98.3671874 C110.445413,84.1791274 109.189485,65.5146016 107.69398,51.4654757 C107.33932,48.2614588 107.058815,45.0223172 106.058436,41.9401698 Z" fill="#D08B5B" transform="translate(-341.000000, -3807.000000) translate(289.000000, 3772.000000) translate(25.000000, 19.000000) translate(20.963028, 90.868885)"/><path d="M40.5354497,10.8590425 C40.5424342,10.8907351 40.549855,10.9221589 40.557712,10.9533138 L40.4761918,11.1377446 C39.9595555,12.3260622 39.7011901,13.3099829 39.7011901,14.0895142 C39.7011901,15.8667499 47.6334034,33.4535138 65.2310422,31.8373074 C76.9628014,30.7598365 84.1137037,25.4451117 86.6837492,15.8931332 L86.8342554,13.8291997 C87.2142576,13.9797785 87.585823,14.1610398 87.9459761,14.3844424 C88.7702366,13.5915083 90.1181451,13.866248 90.2424972,14.9747346 C92.4785535,16.1479244 94.5700078,17.6848742 96.7200729,19.0230216 L96.8515273,19.1148718 C98.7246175,20.4082606 101.042792,21.3819415 101.924038,23.6554861 L102.276852,23.6779123 C104.632019,23.8318891 107.916897,34.1877444 106.627599,38.3032943 C106.264668,39.4899936 105.610393,40.7135239 106.05846,41.9401828 C107.058839,45.0223302 107.339344,48.2614717 107.694004,51.4654887 C109.18951,65.5146146 110.445437,84.1791404 111.782793,98.3672004 C111.842402,99.2367829 110.952439,99.9870569 110.078513,100.066975 C91.9816797,101.721874 23.8644232,100.443391 23.373432,98.8740184 C22.958307,97.5556374 22.7868951,95.1758396 23.1357085,93.841674 C20.9941997,93.7050151 18.4793493,94.054839 16.9012754,92.2755722 C14.6007613,92.6337862 13.5570306,88.0030282 12.6377947,86.3801867 L12.6335166,86.3820353 C11.216587,81.7771586 5.12989332,59.5963341 9.25561691,57.1272317 C9.6857155,45.7881032 12.7477437,34.5611743 19.1634285,25.1831925 C19.0990599,24.846173 19.1461463,24.4804212 19.3525078,24.1199805 L19.3803317,24.0729995 C21.4666521,20.5103419 24.3518493,17.1877261 28.448624,15.9929212 C32.05455,13.4320967 36.2316116,11.7920484 40.5354497,10.8590425 Z M92.6525363,40.5479352 C91.7315602,39.8357159 84.4953845,41.2601545 79.2368523,42.540348 C75.7311642,43.3938103 73.2890956,44.5477506 71.9106464,46.0021689 L71.9106464,46.0021689 L65.7396987,52.7561125 L64.1781757,53.7627884 C64.1781757,55.8652914 64.2986126,58.0764038 64.5394865,60.3961256 C64.7803604,62.7158475 65.8418999,65.170568 67.7241051,67.7602871 C73.2702084,66.2407702 76.5865056,65.3784701 77.6729969,65.173387 C79.3027337,64.8657622 80.593696,62.1977336 81.3596629,61.2806197 C82.1256299,60.3635058 85.0633622,60.2613507 87.3017167,59.5548562 C88.793953,59.0838598 89.8318053,57.88064 90.4152734,55.9451968 C93.676868,55.2432216 95.8329831,54.7750891 96.8836187,54.540799 C97.9342543,54.306509 97.9342543,53.7116135 96.8836187,52.7561125 L96.8836187,52.7561125 L84.6688017,52.3299217 C89.5440537,51.2909752 92.5038151,50.6999627 93.5480859,50.5568842 C95.1144921,50.3422664 99.3221936,49.0395922 99.3221936,48.0302568 C99.3221936,47.0621188 93.1858867,47.058732 89.7238073,47.0600684 L89.0521645,47.0609923 C86.8013993,47.075421 83.2861677,47.2846377 78.5064697,47.6886424 L78.5064697,47.6886424 L81.3596629,46.3261056 C87.7967469,45.0831514 91.4444457,44.4616743 92.3027594,44.4616743 C93.1610732,44.4616743 93.7691352,43.8212322 94.1269454,42.540348 C93.7579901,41.6868857 93.2665204,41.0227481 92.6525363,40.5479352 Z" fill="#FFCF77" transform="translate(-341.000000, -3807.000000) translate(289.000000, 3772.000000) translate(25.000000, 19.000000) translate(20.963028, 90.868885)"/><path d="M84.7500939,40.7842075 L91.0181412,26.6262055 C91.6495651,25.0225159 92.5013555,24.2206711 93.5735125,24.2206711 C94.6456694,24.2206711 100.042769,24.3724737 109.76481,24.6760788 C111.754453,24.9291422 112.428053,25.5791845 111.785612,26.6262055 C111.14317,27.6732265 106.045498,37.9384296 96.492595,57.4218146 L90.4152734,57.4218146 L90.4152734,55.9451968 L97.1811656,54.0589401 C98.0021381,53.1903884 97.7726146,52.7561125 96.492595,52.7561125 C95.2125755,52.7561125 90.8490591,52.6140489 83.4020459,52.3299217 L94.0534018,50.7715019 L99.3221936,48.7509405 L98.5471935,47.6886424 L94.0534018,47.0486192 L79.4189489,47.6886424 L83.4020459,46.3455055 L92.3027594,44.4616743 C93.4698544,43.642143 94.0534018,42.8305216 94.0534018,42.0268101 C94.0534018,41.2230986 92.4901938,40.6666929 89.3637777,40.357593 L84.7500939,40.7842075 Z" fill="#FFFFFF" transform="translate(-341.000000, -3807.000000) translate(289.000000, 3772.000000) translate(25.000000, 19.000000) translate(20.963028, 90.868885)"/><path d="M56.4733734,-2.73178442 C56.5345512,-2.89816407 56.7838258,-2.87612232 56.7885318,-2.68926517 C56.8867871,1.30000684 55.8908294,6.17493052 52.6896181,8.86956979 C51.04635,10.2527884 48.8737877,10.885827 46.8786215,11.6132362 L46.6535494,11.6960329 L43.1286234,13.005455 C42.1937008,13.3527192 41.1851938,13.8869827 40.3593646,13.3963761 C41.0276146,15.0487961 41.5886251,16.7467218 42.4024755,18.3392736 C43.4155459,20.3217511 44.6403857,22.1355737 46.1394561,23.7852919 C52.0784103,30.3208836 61.4775477,32.314453 69.9122431,30.3995228 C74.2555829,29.4133323 78.481986,27.5444765 81.4451885,24.1358268 C83.6972167,21.5448549 84.9910776,18.067378 85.2959684,14.6372554 C85.2068399,14.6514759 85.1134332,14.650907 85.0174596,14.6298607 C83.950257,14.3977336 82.8728831,13.8272957 81.9337871,13.2678763 L81.8433434,13.2137851 C80.9397941,12.6714158 79.9980265,12.0498385 79.3495987,11.2071327 C78.9202704,10.6492255 78.4803251,9.46029232 78.0297628,7.64033314 C77.8456417,6.61437036 77.6729404,4.57043346 77.7025037,3.53333365 C77.7052132,3.43549673 78.1405882,3.37776157 78.1870776,3.47943802 C78.5893592,4.35986366 78.7194367,6.29434091 79.0299638,7.21068403 L79.0926234,7.39362589 C79.4241815,8.35052217 79.7085371,9.51560632 80.3960389,10.2892006 C81.6867625,11.7418229 83.634185,12.3567166 85.3724051,13.0852319 C85.497185,11.4434772 88.1268329,11.4817303 88.0934632,13.1940186 C88.0916093,13.2868783 88.0874737,13.3793115 88.0841938,13.4718868 C88.291578,13.5855796 88.4910209,13.7155903 88.6774689,13.8410417 L88.859398,13.9641999 C89.547898,14.4312006 90.2416744,14.8750218 90.97481,15.2712045 C92.3941639,16.0383995 93.8967994,16.6466096 95.3510917,17.3429866 C96.822354,18.0476115 98.1983558,18.8870466 99.4830899,19.8917237 C100.086502,20.3634764 100.665109,20.8659384 101.21386,21.3998765 L101.362775,21.5462769 C101.885139,22.0650401 102.564798,22.6450936 102.862416,23.3268235 C102.928014,23.477134 103.256642,23.8267477 103.434966,23.8384058 C106.198096,24.019048 108.95533,24.2741307 111.701113,24.6565809 C112.412002,24.7555554 112.692994,25.1209032 112.430231,25.7117407 C111.527252,27.7421412 107.992225,35.8508027 107.052169,38.0269631 C107.161975,39.6256298 107.013666,41.5077107 107.112634,43.106804 C107.257379,45.4403852 107.446902,47.7731132 107.674072,50.100153 C108.486924,58.4243969 109.71918,66.7081125 110.832644,74.995952 C111.389947,79.1437824 111.898051,83.2977277 112.399595,87.4525261 C112.652863,89.5521804 112.867769,91.6539677 113.033192,93.7625809 C113.102099,94.6411792 113.164617,95.5204146 113.219725,96.3999958 L113.267218,97.1801846 C113.332601,98.1620226 113.483485,99.0996535 112.874187,99.9423761 C112.59796,100.324623 111.967072,100.539921 111.603856,100.105627 C111.147233,99.5597029 110.977532,99.1518594 110.933894,98.4347205 C110.900525,97.8858098 110.892539,97.3343395 110.86744,96.7848601 C110.81325,95.5937524 110.745085,94.4032136 110.665225,93.2133858 C110.505935,90.8348679 110.324113,88.4567766 110.113484,86.0822404 C109.375215,77.7557211 107.972118,69.4919142 107.038479,61.1858725 C106.56788,56.9985091 106.233613,52.8033245 106.056639,48.5927818 C105.968081,46.4901412 105.935995,44.3876428 105.956815,42.2831536 C105.964659,41.4970453 106.002021,40.7146344 106.056069,39.9339299 C104.657393,43.1023956 103.186986,46.2402873 101.649697,49.336513 L101.285312,50.0697889 C100.311093,52.0267704 99.3106742,53.9911064 98.1398295,55.8360811 L97.9386027,56.1505465 C97.4641809,56.8999588 96.8161797,58.0815358 95.9511762,58.3180277 C95.3486674,58.4828431 94.6123945,58.366804 93.9946269,58.355001 C93.3815653,58.3433402 92.7677906,58.3407805 92.1551568,58.3160368 C91.4679403,58.2884491 90.8122396,58.1984335 90.1481251,58.0198242 C90.0377484,57.9902456 89.933361,57.9581073 89.8382431,57.9171523 C89.1691375,59.009001 88.0322853,59.8406148 86.8699068,60.3251066 C85.9388496,60.7131761 84.9630404,60.9792063 83.9855848,61.2254638 L83.6406022,61.3117237 C82.592736,61.5721008 81.3939931,61.695819 80.8030353,62.7049044 L80.6657516,62.9387907 C80.2263914,63.6831531 79.8048628,64.3368781 79.0776498,64.8705417 C78.2948875,65.4451914 77.367523,65.8065339 76.4437237,66.0878151 C75.4978206,66.3756376 74.529869,66.596067 73.5694166,66.8321298 L73.3076832,66.8969605 C72.6736586,67.0552345 72.0339297,67.2004256 71.4036128,67.3726357 C71.1348012,67.4460134 70.861141,67.5216663 70.5973206,67.6121086 C70.2884368,67.717909 70.0639755,67.883151 69.8202625,68.0628979 C69.6012202,68.825969 68.6650142,69.2403539 67.895229,69.1871693 C67.490942,69.1592971 67.1282959,69.0224961 66.7983065,68.8219873 C66.2223223,69.3108875 65.5881551,69.7488783 65.0010477,70.2018007 C64.1789262,70.8360342 63.3535248,71.4658594 62.52356,72.0898542 C60.8122924,73.3760969 59.0880477,74.6452749 57.3458346,75.889425 C54.2534315,78.0978659 51.0941463,80.2051993 47.8808135,82.2344622 C46.5410336,83.0805809 45.1922695,83.9252776 43.8302431,84.7497811 L43.9756005,84.8035135 L44.2639068,84.9121791 C44.9454191,85.1658725 45.7047941,85.575849 45.836847,86.3686409 C45.9415195,86.9974706 45.5892836,87.430911 44.9666674,87.5077016 C44.2266868,87.5988549 43.6508452,87.077532 43.1900864,86.5798151 C42.9867308,86.360393 42.7591322,86.1564713 42.5643329,85.9305078 C42.4849015,85.8382169 42.4238663,85.7318477 42.370104,85.6203591 C41.0259691,86.4101866 39.667496,87.1734781 38.2875063,87.8871931 L37.9420565,88.0645757 C34.5199491,89.8095711 31.1891093,91.7213728 27.7379103,93.4167387 C26.837641,93.8589958 25.7400054,94.3373728 24.5958804,94.6638751 C24.8994878,95.8373493 24.8947818,97.125725 24.9024825,98.3166905 C24.9097554,99.4773663 23.0600177,99.4718203 23.0990917,98.3166905 L23.1179136,97.7588953 C23.1515943,96.8208142 23.2066163,95.8470666 23.4297941,94.9343487 C20.0587967,95.4918485 16.6912196,94.2802369 16.0642132,93.9164465 C15.372148,93.5151445 14.7439702,92.8729475 14.2211779,92.2772515 C13.1024368,91.0021008 12.3260917,89.4736833 11.6373065,87.9360225 C10.1619086,84.6431275 9.11660929,81.1232736 8.35238569,77.6031353 C5.53492619,64.6246696 6.74678886,50.7338177 11.3222906,38.2928862 C12.4654174,35.1844308 13.8150371,32.1445183 15.3615952,29.2146722 L15.5536315,28.8524747 C17.096918,25.955118 18.8121667,23.0688014 20.9909526,20.6031745 C23.2603787,18.0350975 26.0598698,16.0378307 29.1079227,14.4875137 C30.595442,13.730984 32.1260283,13.0752776 33.6904121,12.4942286 C33.9416832,12.4008001 34.1946656,12.3170414 34.4482184,12.2372645 C36.078486,11.2008757 38.0569966,10.2094237 40.0362202,10.2483878 C40.1706973,10.2508053 40.279648,10.3017146 40.3609332,10.378363 C40.4563364,10.395001 40.5517396,10.4151941 40.6472853,10.442924 C40.8581991,10.5039299 41.0809491,10.7344439 41.0507167,10.9712149 L41.0404514,11.0499919 C41.034876,11.0884657 41.0278427,11.1256494 41.0157783,11.1619116 C41.0865107,11.1724348 41.1559596,11.1892149 41.2239825,11.2123943 C43.1176427,10.6791262 44.9807853,9.86358153 46.8286691,9.205742 L47.2494994,9.05755651 C48.7971815,8.51670332 50.385016,7.98658447 51.6545864,6.91624428 C52.9176445,5.85141454 53.867398,4.47216992 54.5540441,2.98115231 C55.3999808,1.14415035 55.7787413,-0.845864 56.4733734,-2.73178442 Z M94.3863931,94.1552795 C94.7613033,93.8771269 95.2046642,94.1999318 95.3449882,94.5442097 C95.8056044,95.6740271 95.5780058,97.4296879 94.9287223,98.4286768 C94.2559089,99.4636435 92.6454635,99.055089 92.6065322,97.8014113 C92.5658896,96.4941223 93.3279741,94.9409612 94.3863931,94.1552795 Z M98.2593054,62.9573749 C98.2929603,62.8104773 98.5216998,62.8118993 98.5559251,62.9573749 C98.8680787,64.2831099 98.8607954,65.7107932 98.9524518,67.0700765 L98.9630642,67.2208178 C99.0730132,68.7197989 99.1654216,70.2229039 99.2313054,71.7244447 C99.3606487,74.67875 99.5152332,77.6331974 99.6884991,80.5852275 C99.7744903,82.0490839 99.8666135,83.5127982 99.9648688,84.9760859 C100.272612,84.8050135 100.589624,84.6548452 100.918187,84.5223103 C101.410462,84.3239346 101.88976,84.3011818 102.418684,84.3065856 C103.062834,84.313127 103.547835,84.8781068 103.462557,85.5073631 C103.369578,86.1926482 102.764503,86.4863012 102.136182,86.3884642 C101.440267,86.2798198 100.741356,86.1115914 100.038739,86.0419111 C100.117029,87.1732927 100.197886,88.3043899 100.283592,89.4347761 C100.397249,90.9314819 100.545416,92.4263384 100.649518,93.9236136 C100.659501,94.0663873 100.670196,94.2094453 100.681177,94.35293 C101.100152,94.135641 101.545082,94.0244368 102.049335,93.8874936 L102.180528,93.850806 C102.912634,93.64114 103.695876,93.3512553 104.373522,93.8421303 C104.829004,94.1721877 104.919987,94.7154101 104.542652,95.1506991 C103.97054,95.8111949 103.124015,95.6830718 102.333728,95.6493946 L101.908589,95.6339298 C101.507891,95.6182036 101.13822,95.592655 100.767881,95.4918485 C100.835904,96.4672314 100.871698,97.4463116 100.751767,98.407474 C100.686881,98.9269483 100.001091,99.0633227 99.8195537,98.5331831 C99.3453899,97.1482503 99.2474198,95.654673 99.0738688,94.2040415 C98.9118169,92.8492174 98.8132894,91.4845211 98.7071441,90.1236284 L98.6750008,89.7154884 C98.436279,86.721508 98.2453301,83.7259633 98.1058618,80.725868 C97.9662508,77.7261994 97.8823987,74.7270996 97.849029,71.7244447 C97.833861,70.3610882 97.8565246,68.9927957 97.9100559,67.6296102 L97.9270343,67.2208178 C97.9886399,65.8188204 97.945573,64.3310735 98.2593054,62.9573749 Z M35.5950244,94.3763085 C35.6132779,94.1847586 35.7671494,93.9467077 35.9960315,93.9764285 C36.2069452,94.0037318 36.4242762,93.990649 36.6329082,94.025347 C36.9082797,94.0708525 37.1298889,94.2331082 37.3860086,94.3352113 C37.8022744,94.5011643 38.2560456,94.5869138 38.6831494,94.7227194 C39.4844505,94.9776927 39.9211089,95.8188342 39.5892656,96.6043737 C39.2403096,97.4301571 38.3634276,97.6175831 37.6057639,97.2710299 C37.008542,96.9979756 36.5633938,96.5614072 36.1618252,96.0561804 L36.0480523,95.9121077 C35.8750042,95.6950388 35.6786081,95.4528576 35.6060051,95.1898623 C35.5354153,94.9336092 35.570211,94.6369699 35.5950244,94.3763085 Z M74.5259774,90.4941594 C75.5240517,90.3540352 76.3765169,90.6942706 77.300054,91.0149856 L77.3750954,91.0409369 C78.3150091,91.3644529 79.6864475,91.5884255 80.1681693,92.5477393 C80.4587996,93.1262285 80.2330549,93.894419 79.5491183,94.0656336 C78.4659228,94.3364749 77.4947022,93.5470246 76.5990459,93.0155882 L76.5519757,92.9878632 C75.6875003,92.4828939 74.7952169,92.0584125 74.2431904,91.1874079 C74.0958788,90.9550452 74.2236535,90.5366786 74.5259774,90.4941594 Z M39.6846973,11.3439338 C39.2848311,11.4332384 38.8849649,11.5121621 38.4855265,11.5880995 C36.9660635,12.4002312 35.491236,13.242937 33.9224315,13.9664752 C32.2579385,14.7342391 30.5995776,15.5271732 29.0185089,16.4559129 C25.8242853,18.3323056 23.1910723,20.7719716 21.0151956,23.7623969 C17.2566815,28.9279873 14.460898,34.8850897 12.4599984,40.9295059 C11.9459051,42.4823826 11.4858593,44.0527505 11.0788628,45.6363434 C11.7984508,44.9726735 12.6503769,44.5646879 13.605692,44.2152906 C14.0105494,44.0672554 14.5145177,44.3178203 14.7197272,44.6673597 C14.8119931,44.8243539 14.8640441,44.9796415 14.8544896,45.1637968 C14.8332413,45.5702182 14.5679948,46.0319573 14.1301956,46.1124452 C13.109567,46.3000134 12.1171744,46.6651954 11.1330529,46.9865783 C10.9838875,47.0353545 10.855685,47.0168679 10.7532941,46.9594171 C9.77630295,51.086059 9.1650952,55.2975972 8.94861985,59.53459 C8.76551422,63.1215646 8.87845788,66.7366957 9.27689802,70.3186931 C9.58307231,70.1814654 9.88254415,70.0527701 10.2182378,69.9748418 C10.6536128,69.8738764 11.0818575,69.7510114 11.5065371,69.6122195 C12.7320899,69.2113441 13.291104,71.2289462 12.0384561,71.536393 C11.5722783,71.6508679 11.1032484,71.7458607 10.628229,71.8153989 C10.2142448,71.8759781 9.84803358,71.8492436 9.45772196,71.7858203 C9.75591034,74.0205691 10.163192,76.2391066 10.6819913,78.4260747 L10.7964702,78.9046298 C11.4703764,81.6979132 12.2558064,84.517234 13.391641,87.1568822 C13.9488012,88.4517994 14.6865001,89.6815868 15.5973223,90.7612058 C16.0448188,91.2920564 16.5415142,91.7471119 17.0831304,92.1782769 C17.5340494,92.5373441 19.0668172,93.3159097 20.8821302,93.3159097 C22.6974433,93.3159097 23.1888822,93.1446459 24.1047466,92.830286 C25.9159855,92.2086708 27.6356768,91.2161805 29.3342825,90.3322021 L29.5099279,90.2411627 C30.2610318,89.8536546 31.0092836,89.4606004 31.7555389,89.063849 C31.6612765,88.3051862 31.8262713,87.6679664 32.2227149,86.967181 C32.6512395,86.2091546 33.713056,86.5867126 33.7919924,87.3620303 L33.7945142,87.3916624 C33.8064931,87.5664322 33.8358698,87.7446148 33.8723769,87.9222286 C38.8622906,85.1965887 43.7465336,82.2799677 48.5530565,79.2407661 C51.6491674,77.2828901 54.7123364,75.26671 57.7307272,73.191515 C59.2396375,72.1541308 60.7354279,71.0981177 62.2163875,70.0213428 C62.9921621,69.4572162 63.7643716,68.8886813 64.533016,68.3151693 C64.8531656,68.0762652 65.1671832,67.8254158 65.4880459,67.5852319 C65.4100406,67.4879638 65.3340318,67.3908379 65.2604473,67.2947074 C64.0622748,65.7304543 63.2849315,63.8658646 62.8976146,61.9422599 C62.6637413,60.7815841 62.5507977,59.5766826 62.5164297,58.3932541 L62.5013162,57.8787412 C62.477641,57.0117263 62.4714614,56.10442 62.6316551,55.2644635 C62.413611,55.3839155 62.190861,55.5010923 61.9688241,55.626517 C61.1720864,56.0765952 60.3746357,56.5256781 59.5759015,56.9726278 C57.9764368,57.8672384 56.372266,58.7516102 54.7477026,59.6002886 C51.8459632,61.1163343 48.9157026,62.5582913 45.9062959,63.8506487 L44.4419806,64.4800351 C41.9005756,65.570141 39.3384186,66.6405148 36.696111,67.4507061 C35.2057396,67.9076102 32.9710534,68.473301 31.4592911,68.8219873 C32.6739111,69.9632284 32.8417103,70.730139 31.962689,71.1227192 C30.6441569,71.7115894 29.5517981,69.4528079 29.5083034,69.2481751 C29.0440555,69.3450261 28.1490198,69.5105172 26.8231961,69.7446483 C24.9333556,70.1083831 23.1010353,70.8285727 21.4118042,71.7502874 C20.8245674,72.0707082 20.6609541,71.4482007 21.2831513,71.0144605 C23.1024422,69.7462137 25.2245734,69.0285417 27.4141635,68.4262739 L27.5217202,68.3967948 C28.3250177,68.1773728 29.1268892,67.9487074 29.9270494,67.7117942 C29.8390618,67.394393 29.7882941,67.0650466 29.7984191,66.7018555 C29.8209508,65.8928522 29.8926815,65.0810049 29.9357484,64.2725704 C30.0261603,62.5757824 30.1415283,60.8843982 30.2767184,59.1907387 C30.3286269,58.538303 30.38681,57.8840186 30.4534068,57.230303 C30.024329,57.0008742 29.6542543,56.6963991 29.1758534,56.5466113 L29.0950882,56.5231184 C28.5834191,56.3856063 28.7561146,55.7281934 29.2105987,55.6718803 C29.6223012,55.6211132 30.0320072,55.6444348 30.4378628,55.7313219 C30.5007519,55.7449736 30.5602184,55.7601895 30.6169755,55.7773963 C30.6915582,55.1718881 30.7742695,54.5679442 30.8682466,53.9674132 C31.1168082,52.3806918 31.292641,50.7089318 31.8100142,49.1843539 C31.8483751,49.0714432 32.0165072,49.0310571 32.0788258,49.1493715 C32.8314819,50.5771626 32.8576614,52.3286486 32.9424875,53.918631 L32.9529984,54.1086226 C33.0529649,55.8432371 33.0586691,57.594774 33.0264403,59.3318059 C32.9933558,61.1218803 32.9318927,62.9074041 32.8513206,64.6959142 C32.8189491,65.4160395 32.8202325,66.1631836 32.6971639,66.8518816 C37.1761216,65.3999703 41.5759332,63.6620851 45.7932096,61.6042391 C48.7681058,60.1527544 51.7173329,58.643108 54.6329051,57.0767218 C56.0937572,56.2920355 57.5614544,55.5200055 59.0207378,54.732333 C59.5320265,54.456266 60.042935,54.1793142 60.5536322,53.9018989 L61.3195406,53.4854811 C62.0362765,53.0954132 62.6345072,52.7073363 63.4693206,52.6800329 C63.7181674,52.6717851 63.9413452,52.7881086 64.0997801,52.964016 C64.5484174,52.646757 65.0669315,52.4519364 65.6111146,52.4564869 C66.4302413,51.3282338 67.2619174,50.2092241 68.1266779,49.1145313 L68.7655424,48.3040406 C69.8713027,46.9057602 71.0426149,45.4862677 72.4526198,44.4219142 C73.0819385,43.9470923 73.7741463,43.5908692 74.496016,43.2965052 C74.3261727,43.2551236 74.1598945,43.1719338 74.0117272,43.0348483 C73.322229,42.3973441 73.2272537,41.2132045 73.0872149,40.3235711 C72.9418998,39.4010884 72.9980864,38.5754472 73.1415477,37.6559507 C73.1973065,37.29859 73.7908311,37.2242169 73.9357184,37.5524256 C74.2410241,38.244446 74.5643618,38.9076729 74.8421963,39.6074927 L74.9241181,39.8186018 C75.2223065,40.6064165 75.857472,41.4351862 75.8155459,42.2898372 C75.8041375,42.5240486 75.7254191,42.7281125 75.6039191,42.8922169 C76.2098505,42.6915659 76.8244808,42.5126722 77.4296991,42.3260995 C79.3344825,41.7392201 81.2465389,41.1688366 83.187972,40.7134967 C83.7047748,40.5923382 84.2241445,40.4798542 84.7456533,40.3766135 C85.0188857,39.0831184 85.4170406,37.8135137 85.8864984,36.566804 C85.4419966,36.3397029 85.1542184,35.9590205 84.7714649,35.6204308 C84.4132396,35.3033141 84.1671022,34.917228 83.8614984,34.5531836 C83.5832748,34.2219886 83.7395706,33.6235907 84.2395459,33.6429305 L84.3812009,33.648862 C84.8991653,33.6728508 85.400843,33.7262744 85.8705265,33.9672997 L86.0378395,34.05332 C86.2673638,34.1721714 86.5185551,34.3082785 86.7422748,34.4691406 C87.0347352,33.7980523 87.3388813,33.133383 87.6462955,32.4754618 L88.0451735,31.624677 C89.0793885,29.4102746 90.1107533,27.111605 91.4091868,25.049635 C91.9864544,24.1329827 92.7546709,23.5606083 93.8572977,23.4720147 C94.9927237,23.3808614 96.1732132,23.498607 97.3102079,23.5391353 C98.6283118,23.5862051 99.9459878,23.6419494 101.262808,23.7109188 C100.925261,23.358393 100.617233,22.9659077 100.278259,22.6276024 C99.7155371,22.0666044 99.1210142,21.5347583 98.4961163,21.0431562 C97.2592977,20.070333 95.8994103,19.2687244 94.4869015,18.5784622 C93.0741075,17.8880577 91.6198153,17.2861047 90.2935829,16.4331601 C89.4543487,15.8934928 88.7042431,15.2143226 88.0198787,14.479408 C87.589067,19.1138633 85.3448822,23.4195411 81.9733998,26.6544165 C78.4715758,30.0140055 73.6323963,31.8598242 68.8984596,32.644937 C64.0698329,33.4458346 59.0302924,33.1518973 54.4111533,31.4782886 C52.0294966,30.6152475 49.7452396,29.3823317 47.7081181,27.8358542 C47.685729,27.97038 47.6587765,28.1033415 47.6058698,28.2283395 C47.5348701,28.396319 47.4480388,28.5393659 47.3484333,28.6869176 L47.1708711,28.9458296 C47.0588405,29.1085526 46.9446686,29.2699696 46.8175459,29.4210114 C46.5096603,29.78662 46.0734297,29.9467427 45.6035441,29.9450362 C44.7038452,29.9420499 44.0224755,29.0623708 44.2646198,28.1923617 C44.4167801,27.6455841 44.7423487,27.3165222 45.2505952,27.1025039 C45.4112262,27.0348144 45.5749603,26.9781373 45.739607,26.922352 L45.863229,26.8805222 C46.0296498,26.8237824 46.1947871,26.7696024 46.3660565,26.7381751 C45.401472,25.8892123 44.506479,24.9660186 43.7050353,23.9697316 C41.1913258,20.8453493 38.7119843,16.4695646 39.5523593,12.3201699 C39.5669051,12.2489253 39.6312202,12.2041308 39.7005265,12.1927544 C39.7492977,11.9015189 39.9047378,11.6198111 40.117648,11.4303943 C39.9743294,11.3928522 39.8298698,11.3638425 39.6846973,11.3439338 Z M65.7870614,83.0855296 C66.2848977,82.80951 66.7991336,83.4655009 66.3945614,83.8706425 L65.7905239,84.4732552 C65.2299395,85.0350246 64.6843145,85.6028245 64.2044241,86.2430456 L64.0882273,86.3995295 C63.4405022,87.2782472 62.7497686,88.2964216 61.6884329,88.6248342 C60.404697,89.0220123 59.1710156,87.4627364 59.9144188,86.3236757 C60.5638448,85.3282419 61.8143537,84.952679 62.8924522,84.5411382 C63.9123677,84.1517814 64.8336001,83.6141049 65.7870614,83.0855296 Z M24.374257,78.4919155 C24.6667412,78.1100956 25.4293961,78.3111732 25.2296056,78.8515515 C24.5806073,80.6060747 24.3160739,82.9985287 22.6769647,84.1641817 C22.1481831,84.540029 21.3175052,84.3672502 20.8821302,83.933241 C20.3874313,83.4399325 20.3676091,82.7452619 20.6505387,82.1434511 C20.9955982,81.4093103 21.8442999,80.8770515 22.4392129,80.3178347 L22.4925757,80.2669162 C23.1325897,79.6470453 23.8247975,79.2091967 24.374257,78.4919155 Z M92.8801796,80.5112258 C93.4022312,80.2868296 94.7629005,79.8505167 95.1661179,80.3669715 C95.1849419,80.3858847 95.2010563,80.4065044 95.2140334,80.4292572 C95.3128591,80.6007562 95.3275475,80.8423622 95.2140334,81.0124392 C94.7441529,81.7165816 94.2547801,82.2422153 93.586722,82.7433678 L93.51175,82.7989584 C92.7844612,83.3320843 92.1012376,83.9583544 91.2150862,84.1988228 C89.9868239,84.5321509 89.1289084,82.998614 89.9915299,82.1031502 C90.6864947,81.3818004 91.7474159,81.0072399 92.6682891,80.6049854 L92.8801796,80.5112258 Z M43.5551711,70.4859117 C43.3496764,70.1157526 43.7695073,69.6614081 44.149694,69.8930598 C45.2342098,70.5540278 46.4975531,71.0498961 47.7156904,71.4061192 C48.2086781,71.5503149 48.6534651,72.0486006 48.6168154,72.586277 L48.611072,72.6676882 C48.5965565,72.8576527 48.5702904,73.0462563 48.4492538,73.204157 C48.0250021,73.757476 47.4180725,73.970641 46.7699299,73.6431433 C45.3254774,72.9133481 44.3367926,71.8944505 43.5551711,70.4859117 Z M75.2531806,69.3645413 C75.2267985,69.2088271 75.3410257,69.088664 75.4997457,69.1186692 C76.4162721,69.2918747 77.2627792,69.7332785 78.0498197,70.2406653 C78.4719323,70.5128453 78.8790714,70.8117599 79.3001859,71.0866418 C79.8204112,71.4259425 80.0152105,71.7062282 80.092075,72.3290854 C80.1428426,72.7400573 79.75795,73.1154781 79.405001,73.2289575 C78.4430132,73.5382594 77.3408459,72.523256 76.6891527,71.8637952 L76.6598426,71.8340704 C75.9776172,71.1406796 75.4148954,70.3207266 75.2531806,69.3645413 Z M102.780503,68.2872971 C102.571586,67.7247348 103.291602,67.258303 103.762485,67.534607 C104.205846,67.7946996 104.686855,68.0104243 105.105117,68.3084856 C105.489455,68.5825301 105.839878,68.9071364 106.208466,69.2042021 L106.390614,69.3479941 C107.066554,69.8898289 108.182298,71.2300209 107.215823,72.0073754 C106.295957,72.7472837 105.076373,71.8023365 104.458968,71.1114568 L104.415904,71.0625665 C104.060674,70.6534432 103.622732,70.208911 103.365043,69.7309605 C103.122471,69.2811667 102.957904,68.7648209 102.780503,68.2872971 Z M93.709273,24.7374954 C92.5571621,24.9604726 92.0875618,26.3785391 91.6024174,27.3028705 C90.4574368,29.4842926 89.4044368,31.7056742 88.3468734,33.9298999 C88.0213047,34.6140473 87.7042924,35.3034563 87.3844279,35.9915854 C87.364891,36.0454811 87.3397924,36.0985235 87.310273,36.1509971 C86.6550001,37.5578294 85.9801903,38.9554185 85.1914385,40.290864 C85.9133082,40.1560538 86.6388857,40.0411523 87.3671727,39.95071 C87.3304319,39.2669023 87.7999742,38.3517676 88.0322281,37.7761186 L88.0515371,37.727622 C88.3411691,36.9898633 88.6447765,35.8277655 89.3903188,35.4449501 C89.6387378,35.3175346 89.9044121,35.4772306 89.9235213,35.7499794 C89.9799931,36.561969 89.1835406,37.4912776 88.7942272,38.1804021 C88.5587853,38.5973467 88.3293329,39.0161399 88.1057272,39.4394837 C88.0218751,39.5978999 87.9518558,39.7536141 87.8658646,39.8932593 C88.2414878,39.8527309 88.6175389,39.8166109 88.9945882,39.790303 L89.2403022,39.7735375 C90.6381432,39.6816471 92.1227774,39.655398 93.3857008,40.3427687 C94.5574913,40.980273 95.156435,42.3413154 94.5127132,43.5806305 C93.7106991,45.1245483 91.9446709,45.329181 90.3916956,45.4543213 C88.4519737,45.61032 86.5078311,45.8920277 84.5817994,46.1667674 C82.5895987,46.4508927 80.7136216,47.1832475 78.7510829,47.5596637 C78.5685477,47.5946461 78.454891,47.3565952 78.62231,47.2549188 C80.1703805,46.3153116 82.052392,45.7982267 83.7831161,45.27152 L83.923104,45.2287844 C84.8618769,44.9412462 85.7794015,44.6127531 86.7505459,44.4496442 C87.6933118,44.2913702 88.6419244,44.1631014 89.5928188,44.0655489 L89.6851683,44.05704 C90.732122,43.969504 93.4030303,43.9993981 93.2901551,42.4536572 C93.2154297,41.4306357 91.5477994,41.2540173 90.7865706,41.2417877 C87.2964403,41.1860434 83.7812114,42.1098059 80.464347,43.0995515 L79.7238788,43.3209447 C78.3656831,43.7284536 77.005579,44.1477105 75.6729403,44.6254093 C74.1627466,45.1666409 72.9729878,46.0106265 71.8730706,47.1657564 C70.6535072,48.4465952 69.4723047,49.7563017 68.2071075,50.9939103 C67.4095142,51.7741882 66.6016533,52.54053 65.7872325,53.3006148 C65.6032713,53.5380969 65.4561022,53.796483 65.3541392,54.1316598 C65.1818716,54.6979194 65.221516,55.2242195 65.2865441,55.8058372 C65.4505406,57.2746709 65.4867625,58.7587205 65.6922572,60.2230036 C65.8827783,61.5794954 66.1491656,62.985759 66.7140265,64.2441295 C66.9376946,64.7424685 67.2287939,65.2319336 67.5602987,65.6696395 L67.8278704,66.0165094 C67.9445123,66.1671872 68.074967,66.3320573 68.2119561,66.4871262 C68.4130301,66.2425339 68.7039456,66.0834067 69.0420635,66.1232241 C69.7606533,66.2075515 70.3255142,66.1873584 71.0304139,66.0226852 C71.576023,65.8954119 72.117354,65.7462391 72.6605389,65.6081582 C73.7270864,65.3368314 74.8036163,65.0899638 75.8593258,64.778393 L76.0408149,64.7238752 C76.827549,64.4832418 77.6145465,64.1818438 78.269361,63.6753102 C79.0301621,63.0867244 79.2641779,62.2376194 79.8277554,61.5034158 C81.0310618,59.9356076 83.6313329,59.9684569 85.391942,59.5389984 C86.8881987,59.1741445 88.3280771,58.5983636 89.3635336,57.5158384 L89.4239559,57.4513604 C89.3780547,57.2581751 89.4524948,57.0401751 89.6324632,56.9400629 L89.6716797,56.9183056 C89.7418417,56.8791993 89.8174227,56.8629879 89.8915776,56.8645522 C89.9876938,56.7237694 90.0803875,56.5784361 90.1646674,56.4237172 C90.2339737,56.2961595 90.4072396,56.3900147 90.3845653,56.5160081 C90.3710177,56.5912345 90.3521938,56.6646122 90.3343681,56.7381321 C91.3373848,56.4808836 92.4389244,56.530009 93.4572897,56.5306584 L94.7788529,56.5260495 C95.0075642,56.5232483 95.3484535,56.5118029 95.3787572,56.4980903 L95.4098314,56.4843219 C95.4922277,56.4486489 95.3752439,56.5075405 95.4328047,56.4313963 C95.4962642,56.3473532 95.5584403,56.2623147 95.6197607,56.1765652 C95.8388029,55.8709671 96.0460089,55.5561256 96.2490794,55.23844 C94.0359825,55.8005757 91.7434544,56.1503995 89.4837255,56.4420616 C87.0594297,56.7553389 84.6031903,56.9726278 82.1572184,56.9749031 C81.482979,56.9756141 81.489111,55.9605561 82.1572184,55.9351014 C84.747222,55.8365535 87.3236779,55.6997524 89.8962836,55.3688418 C91.2266515,55.197485 92.5514579,54.9826135 93.8688487,54.7311954 C94.3774375,54.6343823 94.8848397,54.5314715 95.3909825,54.4227542 L95.7703522,54.3401321 C96.008361,54.2876585 96.6808892,54.2121477 97.0088822,53.9927257 C97.0733399,53.8822325 97.1377977,53.7720238 97.201685,53.6616729 C97.1703118,53.2741647 96.1823399,53.3260695 95.9507484,53.3255006 C95.2940494,53.3242208 94.6372079,53.3294824 93.9803663,53.3311888 C92.6668258,53.3350284 91.3534279,53.323652 90.0397448,53.3131288 C87.4152308,53.2917981 84.7807343,53.2005026 82.1583593,53.3122756 C81.5217677,53.3392945 81.1873575,52.3212502 81.8165336,52.0534785 C84.5942061,50.8709031 87.6776251,50.613939 90.6435371,50.2503213 C92.2032149,50.0593402 93.7637484,49.8386383 95.2884878,49.4518412 L95.665464,49.3562158 C96.6232997,49.1113575 97.6809993,48.8127643 98.48756,48.2293063 C97.2752659,47.7402887 95.7683903,47.796331 94.5117598,47.7270784 L94.4155987,47.7214928 C92.6559878,47.6137016 90.8932396,47.5585261 89.1303487,47.5559664 C85.5232818,47.5509892 81.9150741,47.6784048 78.3120001,47.8489083 C78.2215882,47.8531745 78.2029068,47.7108275 78.2907519,47.691772 C81.9940776,46.8860395 85.7578681,46.4978203 89.5477554,46.4380943 C91.3127752,46.4102323 93.0786556,46.4350949 94.8421998,46.5129098 L95.4892726,46.5427409 C96.9928829,46.6073524 98.6613358,46.6248212 99.9193206,47.5302273 C100.111125,47.668166 100.212233,47.8443578 100.228062,48.0307883 C101.915229,44.6771719 103.473481,41.2534485 105.038007,37.8524778 C106.254291,35.2080368 107.425225,32.5414119 108.685859,29.9175907 L109.093966,29.0687621 C109.640444,27.9360972 110.200303,26.8033049 110.821949,25.7117407 C108.497335,25.4018764 106.159743,25.1867205 103.820725,25.0220473 C101.689418,24.8718031 94.7353206,24.5391197 93.709273,24.7374954 Z M92.6799028,61.084324 C92.9450066,60.9374264 93.3511475,61.0571629 93.4164609,61.3830963 C93.4650894,61.62584 93.5480859,61.8953181 93.5480859,62.1436078 C93.5480859,62.4411003 93.4414169,62.7643318 93.3845172,63.0552829 C93.2537478,63.7244988 93.0927461,64.2682901 92.7514908,64.8644127 C92.5380102,65.237416 92.1069133,65.4906828 91.6736774,65.4807284 C91.3305683,65.4729072 91.0265331,65.3810428 90.7910912,65.1162575 C90.5090172,64.7989985 90.3153588,64.3324245 90.4700859,63.9052412 C90.8753711,62.7860892 91.6203429,61.6710611 92.6799028,61.084324 Z M36.4509292,59.967817 C37.0712637,58.8843584 38.5416704,57.9160858 39.8248359,58.0119318 C41.7515806,58.1558431 42.1447443,60.7428333 40.27932,61.3601445 C39.1642866,61.7290238 37.6302778,61.3501901 36.6548552,60.7429755 C36.3918904,60.57944 36.295489,60.239286 36.4509292,59.967817 Z M16.6488392,56.2663249 C16.5079448,56.0621188 16.7408198,55.8287607 16.9507353,55.8746928 C17.4163427,55.9766537 17.9183146,56.0211638 18.3743674,56.1596713 C18.8414008,56.3013073 19.2934607,56.5362297 19.7560734,56.6979166 C20.7252213,57.036364 21.7603956,57.2062988 22.6983128,57.6149955 C23.073223,57.7783888 23.3681315,58.3197626 23.3334783,58.7189316 L23.3246392,58.8122831 C23.3038835,59.0103902 23.2694674,59.1832114 23.1583586,59.3642571 C22.859885,59.8503132 22.2684994,60.1014469 21.710341,59.9518474 C20.6748815,59.674548 19.6630945,58.9619596 18.780223,58.3699609 L18.6170777,58.2618825 C18.2313518,58.0084007 17.8165833,57.7434598 17.5057565,57.4173308 C17.1813287,57.0767502 16.9146561,56.6519844 16.6488392,56.2663249 Z M52.2428489,52.3259145 C52.1236306,51.8978779 52.6576887,51.6150325 52.9689968,51.9042772 C53.5910426,52.4821976 54.2414669,53.0180254 54.8506781,53.6105929 L54.8915824,53.6509792 C55.3278471,54.0881309 55.9625304,54.9305775 55.3951464,55.4962289 C54.6681429,56.2211891 53.6557855,55.1455518 53.2657591,54.5849804 C52.7710602,53.8739562 52.4742978,53.1573861 52.2428489,52.3259145 Z M99.8453082,48.7868914 C98.9225072,49.7615633 97.500729,50.2096507 96.2489368,50.5809475 C94.7646973,51.020787 93.2353945,51.2835815 91.704523,51.4997329 C90.2252748,51.7084896 88.757435,51.8952045 87.3017167,52.1348196 C88.4029174,52.1484713 89.5039755,52.156577 90.6026093,52.1762012 C91.8696603,52.1990962 93.1359984,52.2263995 94.4026216,52.2630884 C95.3251375,52.2898229 96.4075142,52.1636872 97.284111,52.5055476 C97.4421181,52.5669801 97.5897149,52.652303 97.7186304,52.7561125 C98.4556163,51.4493924 99.161942,50.1246122 99.8453082,48.7868914 Z M42.9255815,39.6724294 C43.8887399,39.3674001 44.7944283,38.9625429 45.8154846,39.0676323 C46.0868632,39.0953622 46.2812346,39.3588678 46.1330674,39.6191026 C45.6491779,40.4682604 44.8623643,40.9475771 44.0878123,41.5155314 L44.0195093,41.5658867 C43.1717188,42.1947164 42.261467,42.7676597 41.3395216,43.283721 C39.7521783,44.1719323 38.3296871,41.6297367 39.932717,40.8837301 C40.8973015,40.4347895 41.9105146,39.9940967 42.9255815,39.6724294 Z M60.2663838,37.4653252 C61.7399278,37.5620245 63.2126162,37.6277231 64.688014,37.6871647 C66.397,37.756134 65.8224419,40.3785333 64.3948169,39.8478248 C62.9844471,39.3233734 61.5739348,38.8056057 60.1508732,38.3164211 C59.7176736,38.1675869 59.7525495,37.4580925 60.2388999,37.4642393 L60.2663838,37.4653252 Z M22.4721118,32.7999545 C22.8540096,32.77322 23.2391875,32.8564098 23.6216558,32.8933831 L24.028629,32.9327449 C24.8675573,33.01599 25.6541647,33.1186404 26.4542315,33.4590739 C27.930485,34.0873348 27.1375977,36.4537654 25.6556399,36.3994431 C24.560286,36.3593413 23.6236522,35.8902076 22.6987121,35.3441411 C21.8901382,34.8667595 21.394441,34.2694992 20.848404,33.5199376 C20.6675801,33.2716479 20.9195642,32.9933531 21.1658441,32.968325 C21.5996505,32.9242415 22.0381628,32.8302442 22.4721118,32.7999545 Z M96.4726707,27.9673083 C96.2283873,29.4873357 95.6220281,30.9119437 94.7083538,32.1522542 C94.2491637,32.775538 93.443014,32.799144 92.9879595,32.1522542 C92.3442105,31.2371368 92.7411535,30.1887004 93.2261104,29.3097416 L93.369596,29.0523756 C93.5867597,28.6664774 93.9202758,28.1036141 94.3013573,27.7148948 L94.3077746,27.6750774 C94.5119859,26.0836632 96.7243697,26.4013488 96.4726707,27.9673083 Z M36.8728565,18.2123416 C37.2402086,17.8824264 37.9167297,17.9815432 38.035948,18.5185086 C38.2027966,19.2704877 38.3043318,20.1177441 38.1950959,20.8810996 C38.1359146,21.2947734 38.1136681,21.7593566 37.9505272,22.1448739 C37.7751223,22.559401 37.4377174,22.8782242 37.1198494,23.1899372 C36.4852544,23.8122255 35.1474709,23.6064551 34.977485,22.6259528 L34.9558954,22.5056881 C34.8704041,22.041729 34.7610382,21.5458787 34.8876434,21.0860168 C34.9832082,20.7390749 35.1967871,20.385196 35.3734793,20.0633432 L35.4107209,19.9948791 C35.7646681,19.3376084 36.3164093,18.711765 36.8728565,18.2123416 Z M88.5091158,19.8122013 L88.6419771,19.8136106 C89.6673584,19.8338076 91.5419306,20.0827207 91.5519314,21.3461663 C91.5543165,21.6439432 91.3331352,21.9525277 91.0366581,22.0210704 C90.423739,22.1627064 90.0275806,21.8016483 89.5907795,21.4367507 C89.2335524,21.138405 88.817144,20.9002119 88.3846211,20.7287129 C87.917445,20.54342 87.9479626,19.8113496 88.5091158,19.8122013 Z" fill="#000000" transform="translate(-341.000000, -3807.000000) translate(289.000000, 3772.000000) translate(25.000000, 19.000000) translate(20.963028, 90.868885)"/><path d="M17.1380348,3.77126051 C26.1052884,3.28207918 34.0500526,0.764312551 40.3621603,6.3991863 C47.1697486,1.31894406 51.1414749,-0.253736215 52.2773394,1.68114547 C53.4190007,3.62590174 51.8357342,6.23659341 52.2602628,8.63637169 C55.0283811,13.3519704 54.871877,21.3336468 55.0283811,23.2041316 C55.422852,27.9187164 57.9075463,45.6597167 57.9075463,49.8725889 C57.9075463,52.0229981 56.1333275,57.6549788 55.0283811,60.7891945 C52.5690187,67.7652546 47.8744958,71.3205428 40.1756665,71.3205428 C32.4768372,71.3205428 19.9108252,64.8903467 15.8806958,59.1812833 C15.5274983,58.6809453 13.2434937,60.1406433 10.8545199,57.6085867 C8.26643788,54.8654967 6.83071468,49.6334997 6.83071468,46.5146921 C6.83071468,42.5570417 4.27115945,39.812451 4.568876,34.746535 C5.23376164,23.4329054 7.54265478,4.29470739 17.1380348,3.77126051 Z" fill="#D08B5B" transform="translate(-341.000000, -3807.000000) translate(289.000000, 3772.000000) translate(25.000000, 19.000000) translate(53.049296, 25.596869)"/><path d="M52.286311,1.65373523 C53.4279723,3.59849151 51.8447058,6.20918317 52.2692345,8.60896146 C53.3374315,10.4286773 53.9701134,12.7347556 54.3533292,14.9883354 L52.2602628,16.0984528 L51.4857181,16.2119619 C38.9275371,18.0621669 30.9124411,19.7272842 27.4404299,21.2073137 C23.9329901,22.7024455 19.6763702,27.9536642 14.6705704,36.9609696 L14.5186501,37.2350679 L13.5267355,43.9573607 L8.97934904,45.351095 L6.8388716,46.3649224 C6.78706947,42.4726353 4.28320892,39.7326685 4.57784762,34.7191248 C5.24273325,23.4054951 7.5516264,4.26729715 17.1470064,3.74385028 C26.11426,3.25466894 34.0590242,0.736902318 40.371132,6.37177607 C47.1787202,1.29153383 51.1504466,-0.281146448 52.286311,1.65373523 Z" fill="#9FD8E5" transform="translate(-341.000000, -3807.000000) translate(289.000000, 3772.000000) translate(25.000000, 19.000000) translate(53.049296, 25.596869)"/><path d="M16.1361949,-9.38239008 C16.2528848,-9.38950033 16.3709978,-9.38381213 16.4891108,-9.37229354 C16.6186081,-9.36660535 16.7481055,-9.35394912 16.8776028,-9.32821005 C17.5364739,-9.20178995 18.1241927,-8.85338813 18.579568,-8.36278147 C18.5923754,-8.34998304 18.6023367,-8.33562035 18.6137211,-8.32296412 C18.8271783,-8.16227267 19.0249819,-7.98010828 19.2028629,-7.78685192 C19.2341699,-7.81671494 19.264054,-7.84643575 19.2967841,-7.87629876 C19.3907052,-7.95891977 19.4888955,-8.03713242 19.5913549,-8.11093673 C20.0201254,-8.47833217 20.5231096,-8.74541434 21.0641913,-8.89737355 L21.1382079,-8.9173803 C21.1524384,-8.92164644 21.1666688,-8.92449054 21.1808993,-8.92733464 C21.5651222,-9.05517678 21.9692678,-9.120591 22.3762594,-9.11931115 C22.8629418,-9.13495369 23.3510472,-9.05517678 23.8064225,-8.86760861 C24.3457576,-8.64420483 24.8153633,-8.29167906 25.2095476,-7.86776647 C25.4685423,-7.65730333 25.6948069,-7.42565166 25.9338789,-7.17096282 C26.4276765,-6.64352511 26.8175916,-6.02635616 27.0637788,-5.34647489 C27.097932,-5.25119765 27.127816,-5.15321853 27.1548539,-5.0550972 C27.7568031,-5.12463536 28.3615984,-5.17440705 28.9663937,-5.19872407 C29.6451875,-5.23982127 30.3239813,-5.25418395 31.0041981,-5.23128898 C32.8783521,-5.17028311 34.7112376,-4.8402257 36.4857782,-4.23585519 C36.8415401,-4.13076582 37.1873407,-3.99709328 37.5203339,-3.83213568 C38.0425925,-3.62451663 38.53639,-3.36001566 39.0017267,-3.04005479 L39.3981309,-2.80513242 C39.5972437,-2.68687489 39.7963565,-2.56708154 39.9893218,-2.44421657 C40.4489663,-2.14971037 40.8844189,-1.81993738 41.2971027,-1.46442531 C41.7325554,-1.11303718 42.1438162,-0.730506197 42.5351543,-0.329630789 C42.641456,-0.221128506 42.7440577,-0.111204175 42.8452364,-0.000568819308 C43.7473064,0.485913894 44.5486246,1.10877104 45.2960093,1.85164905 C45.8887087,1.51092629 46.5024692,1.2020574 47.1358678,0.927459883 C47.7890467,0.644472277 48.6186836,0.352952381 49.3031695,0.161118069 C49.9179262,-0.0109497717 50.5255676,-0.128979778 51.1417473,-0.215866928 C51.4220877,-0.264216569 51.7038512,-0.302611872 51.9870377,-0.335318982 L51.9756533,-0.330910633 L51.9756533,-0.330910633 C52.17488,-0.352383562 52.3726836,-0.370870189 52.5733333,-0.387934768 L52.5676412,-0.389356817 L52.5676412,-0.389356817 C52.653024,-0.396324853 52.7398299,-0.403577299 52.8252128,-0.409265492 L53.0329778,-0.426187867 L53.0329778,-0.426187867 C53.0955919,-0.43187606 53.1866669,-0.285547293 53.1923591,-0.234353555 L53.1994744,-0.181737769 L53.1994744,-0.181737769 C53.2464349,-0.128979778 53.2891264,-0.0706757991 53.3190104,-0.0351245923 C53.3560096,-0.0381108937 53.3930089,-0.0408127854 53.4300081,-0.0423770385 C53.5410058,-0.0521891716 53.6690801,0.145333333 53.7345403,0.220701892 L53.7937215,0.290193255 C53.8611495,0.371211817 53.9285127,0.464528476 53.9394592,0.566259622 C54.0120347,1.15655186 54.0803409,1.74798174 54.142955,2.33955382 C54.1671469,2.78749902 54.142955,3.23117808 54.0689566,3.670591 C54.0134577,4.09720548 53.9565358,4.52381996 53.8996139,4.94901239 C53.8085388,5.24778474 53.7188868,5.54641487 53.6292348,5.8449028 C53.5936586,5.95880887 53.5538133,6.07100848 53.515391,6.18335029 C53.2878456,6.93362296 53.0210242,7.66398695 52.7032576,8.37174038 C52.9350721,8.62799348 53.151233,8.89363209 53.3523097,9.16794521 C53.4004087,9.21729028 53.4487923,9.26635095 53.4940453,9.31754468 C53.5068527,9.29777821 53.5253523,9.27929159 53.545275,9.26919504 C53.6135813,9.23933203 53.6633879,9.27488324 53.7060794,9.33332942 C54.1543394,9.76122374 54.4802174,10.2605049 54.6822902,10.830604 L54.8081508,11.127928 C54.8290222,11.177647 54.8497354,11.2274029 54.8701325,11.2771272 C55.0309369,11.7095721 55.154742,12.1532511 55.2572015,12.6024762 C55.3488457,12.9559974 55.4145905,13.3143536 55.4569974,13.6765492 C55.7643757,14.7079609 56.0074322,15.7631207 56.2366852,16.80406 C56.2728307,16.96788 56.2557541,17.1140665 56.2032436,17.238638 L56.3372947,17.369182 L56.3372947,17.369182 L56.5663198,17.597108 C56.9511027,17.9804652 57.3436267,18.3834579 57.6294221,18.8395799 C57.925416,19.313122 58.1431424,19.8193712 58.3850605,20.3214964 L58.4371796,20.42815 L58.4371796,20.42815 L58.5437081,20.6420355 C58.658886,20.875562 58.7141403,21.0045951 58.816244,21.286925 C58.9855866,21.7577652 59.0766617,22.231165 59.1193531,22.7304462 C59.1819672,23.4569706 59.173429,24.2490515 58.8546662,24.9245245 C58.8532432,24.9302127 58.8503971,24.934621 58.847551,24.9387449 C58.7024001,25.5916073 58.3437921,26.1972577 57.7987648,26.5840548 C57.6820749,26.6936947 57.5568467,26.791816 57.4230802,26.8698865 C57.1020406,27.0582795 56.8072306,27.0751201 56.4568139,26.9879705 L56.4127163,26.9765401 C56.3686018,26.9651637 56.3287564,26.9552094 56.2903341,26.9466771 C56.3472561,26.9936047 56.375717,27.0492068 56.2903341,27.0888819 C56.2077974,27.1286993 56.1337989,27.1514521 56.0640696,27.1599843 C56.0939536,27.1983796 56.0967997,27.239619 56.0341855,27.2737482 C55.897573,27.3462727 55.7865752,27.3691676 55.6727314,27.3491168 L55.6966712,27.5468109 C55.8833626,29.0428286 56.0503618,29.3386842 56.196413,30.945619 C56.2931802,32.5907867 56.4468694,34.2318304 56.6589035,35.8659061 L56.7319856,36.4596567 C56.9660689,38.3415338 57.2292746,40.237208 57.6322682,42.0886471 C57.835764,42.8977926 58.0107989,43.7126262 58.1587959,44.5331481 C58.3679839,45.1574273 58.5145578,45.7959269 58.5956716,46.447225 C58.7137845,47.1098995 58.7948982,47.7782622 58.8418588,48.4523131 C59.0055093,48.8833359 59.0852,49.3211846 59.0809308,49.7677078 C59.1022766,50.3678121 59.0823539,50.9666367 59.0183167,51.5624749 C58.9827405,52.1823457 58.8973577,52.7966706 58.7621681,53.4053072 C58.6412091,54.2401918 58.4206367,55.0464932 58.1047201,55.8286197 C57.8514176,56.7016151 57.5411931,57.5578304 57.1882773,58.3952746 C56.6404039,59.6921826 55.9786867,60.8966575 55.2258944,62.0840678 C54.5200627,63.1975316 53.7630013,64.269756 52.8977882,65.2667541 C51.7792727,66.5549876 50.5042219,67.7352877 49.106789,68.7307215 C48.3098822,69.3195917 47.468861,69.8484514 46.5894174,70.300805 C45.5135933,70.8552616 44.4206926,71.3544005 43.2552165,71.691426 C42.5280391,71.9018891 41.7880542,72.046938 41.0395311,72.158 C39.5695227,72.3754312 38.0468616,72.3427241 36.568315,72.0881774 C35.6148729,71.9601931 34.6770845,71.7383536 33.7905257,71.4212368 C33.0619252,71.1597221 32.3674779,70.8595277 31.6730306,70.5210802 C31.3158456,70.3490124 30.971468,70.1499256 30.641321,69.9266641 C30.0863323,69.5668858 29.5669199,69.1603222 29.0830836,68.7108128 C28.9251253,68.5757182 28.7714362,68.4377795 28.6205931,68.2927306 C28.5480177,68.2287384 28.587863,68.1334612 28.6718228,68.1108506 L28.6974377,68.1078643 L28.6974377,68.1078643 C28.6647076,68.0780013 28.6305544,68.0481383 28.5978243,68.0168532 C28.5907091,68.011165 28.5850169,68.004197 28.5793247,67.9969446 C28.5636712,67.9827241 28.5465946,67.9686458 28.5323641,67.9544253 C28.4768653,67.9059335 28.5323641,67.7978578 28.5807478,67.7722609 C28.5992474,67.7623066 28.6234392,67.7610267 28.6504771,67.7637286 C28.6447849,67.7580404 28.6405158,67.7537743 28.6348236,67.7496504 C28.6291314,67.745242 28.6277083,67.7338656 28.6291314,67.7224892 L28.6077857,67.7055669 L28.6077857,67.7055669 C28.5352102,67.6414325 28.5722095,67.5477195 28.6575923,67.5234025 C28.6993351,67.510762 28.768063,67.5172227 28.8397893,67.532797 L28.8667804,67.539045 L28.8183967,67.4935395 C28.7330139,67.419593 28.7600518,67.3371142 28.8653573,67.3116595 C28.9439096,67.31621 29.021551,67.3270404 29.0982818,67.3457522 L29.1556591,67.361289 C29.18412,67.3683992 29.2111579,67.3769315 29.2396189,67.385606 C29.1912353,67.3413803 29.1428516,67.2988611 29.0958911,67.2546354 C29.0489305,67.2135382 29.0987372,67.0953659 29.1414286,67.0713333 C29.1997736,67.0386262 29.3136174,67.0839896 29.3662701,67.1223849 C29.4957675,67.1367476 29.6665332,67.1934873 29.7291473,67.2475251 C29.9013361,67.4124827 30.0792171,67.5703301 30.2599442,67.7239113 C30.3695188,67.7580404 30.4734013,67.803546 30.553092,67.8718043 C30.7580109,68.068047 30.971468,68.2530554 31.1891944,68.4320913 L31.3546895,68.5460659 C31.3824126,68.5648158 31.4102411,68.5833025 31.4382277,68.6013151 C31.7512982,68.7847593 32.0643687,68.9667815 32.3760162,69.1502257 C33.5187236,69.5370228 34.6614309,69.9239622 35.8027153,70.3093372 L35.9535583,70.3547006 L35.9535583,70.3547006 L37.0621125,70.4912172 L37.0621125,70.4912172 C37.790713,70.5680078 38.5207365,70.5638839 39.249337,70.4798408 C39.7957873,70.4870933 40.3379685,70.4329132 40.8716114,70.3219935 C41.7780929,70.1684123 42.6674977,69.9424488 43.5327108,69.6266119 C44.5288442,69.2639896 45.4780171,68.7863235 46.4044212,68.2715421 C46.7374144,68.0851115 47.0647154,67.8874468 47.3863242,67.6785479 C47.4902067,67.6046014 47.5940892,67.5290907 47.6979717,67.4523001 C48.3824576,66.9389406 49.0370596,66.3914521 49.6674698,65.8126784 C49.9634637,65.5410672 50.2480733,65.2582218 50.5227215,64.9652798 C50.5625668,64.9224762 50.6009891,64.881379 50.6394114,64.8385753 C50.9026753,64.5513216 51.1574008,64.2542557 51.400742,63.9469511 L51.6326988,63.6854364 L51.6326988,63.6854364 C52.5690642,62.5207789 53.4015472,61.2679543 54.1500703,59.9780144 C54.8929012,58.699593 55.5048118,57.3543353 55.9914941,55.96215 C56.1480294,55.4658552 56.284642,54.9625923 56.3984858,54.453499 C56.6090969,53.8418761 56.7471325,53.214895 56.8111696,52.5749733 C56.8325154,52.4496908 56.8495919,52.3245506 56.8666685,52.1994103 L56.8764717,52.0021459 C56.8778948,51.9692123 56.8790016,51.9363314 56.8794759,51.9036243 C56.9079369,51.7046797 56.9321287,51.5054508 56.9506283,51.306364 C56.9620127,51.1059974 56.9691279,50.9053464 56.970551,50.7048376 L56.9548975,49.4747658 L56.9548975,49.4747658 C56.9506283,49.4363705 56.9463592,49.3966954 56.9435131,49.3567358 L56.912206,49.0852668 C56.8438997,48.5248376 56.791247,47.9631285 56.7229407,47.4029837 C56.7229407,47.3999974 56.7229407,47.3957312 56.7215176,47.3914651 C56.6959028,47.182424 56.6688649,46.9719609 56.6375578,46.7614977 C56.6219043,46.6363575 56.6019816,46.5112172 56.583482,46.386077 L56.5479058,46.1672237 L56.5479058,46.1672237 C56.481912,45.7864703 56.4017543,45.4088743 56.304573,45.0346262 L56.2618732,44.8744397 L56.0142629,43.6301474 L55.7353455,42.4057639 C55.5546184,41.585242 55.4037754,40.759032 55.2842394,39.9257117 C55.0679361,38.5976608 54.8829399,37.2679035 54.7221355,35.9326001 C54.7135972,35.868608 54.7050589,35.8031937 54.6979437,35.7392016 C54.5342932,34.5007397 54.4161802,33.2577273 54.3393356,32.010591 C54.2354532,30.7820835 54.1756851,29.5504475 54.1600316,28.3176738 C54.1586086,28.2620718 54.1956078,28.2167084 54.2397223,28.1909693 L54.2357741,27.9539413 C54.2305207,27.7442467 54.2267495,27.9958004 54.2249359,27.7567405 L54.2222282,27.0992137 C54.2223906,27.0444144 54.2229212,27.006273 54.2240688,27.003559 C53.4637119,27.0561 52.952408,27.0130462 52.2182673,26.9743923 L52.0937662,26.9680078 C51.4206646,26.936865 50.7518322,26.8629185 50.0872689,26.7518565 C50.0844228,26.7861279 50.061654,26.8101605 50.0232317,26.8172707 C49.9549254,26.8201148 49.8908883,26.8201148 49.8254281,26.8216791 L49.8496199,26.91397 L49.8496199,26.91397 C49.8510429,26.9610398 49.8296972,26.9907606 49.7841597,27.003559 L49.5943251,27.0120799 C49.3409088,27.0227282 49.0865817,27.0277339 48.8349868,26.9936047 C48.6087222,26.9638839 48.3881498,26.9111259 48.1690005,26.8485558 C48.0338109,26.825803 47.8957753,26.7946601 47.7548936,26.7547006 C47.3934394,26.6508911 47.0348314,26.5115303 46.6719542,26.4007528 C46.3019618,26.3223979 45.9262772,26.2969432 45.533516,26.3906562 C45.117986,26.4887776 44.7664932,26.6665336 44.3310406,26.5584579 C44.2442347,26.5372694 44.1602749,26.5045623 44.076315,26.4702909 L43.9986272,26.4648766 C43.9853981,26.4637179 43.9719582,26.4622801 43.9582021,26.4603366 C43.5042498,26.3950646 43.1001043,26.1078108 42.6674977,25.9540874 C42.5164358,25.9173329 42.3665863,25.9266225 42.2201879,25.9876604 L42.1836615,26.0040013 L42.0399337,26.1106549 C41.9820631,26.1788184 41.9248249,26.2476772 41.8682192,26.3167677 L41.7837851,26.4205192 C41.6286729,26.6124958 41.4635993,26.7845636 41.2629496,26.9097038 C41.0210315,27.1329654 40.7335758,27.2637939 40.3906213,27.2723262 C40.1956638,27.2780144 40.0021293,27.236775 39.8142869,27.1771911 C39.1056092,27.3961866 38.3471247,27.4402701 37.6398699,27.2269628 C37.3595295,27.1841592 37.0848813,27.1089328 36.8216175,26.9907606 C36.6978123,26.9353007 36.5740072,26.8698865 36.4544711,26.797362 C35.9549814,27.0079674 35.4825295,27.2879687 35.0001163,27.5298591 L34.8914598,27.5843778 C34.398541,27.8297508 33.8530907,28.0690115 33.2953051,28.0332642 C32.5923195,27.9876164 31.9021413,27.8939035 31.2133862,27.7757312 C31.207694,27.7757312 31.2005787,27.7743092 31.1948865,27.7728871 L31.100076,27.7571202 L31.100076,27.7571202 L30.7555337,27.6967075 L30.7555337,27.6967075 L30.4776705,27.645045 L30.4776705,27.645045 L30.3356771,27.6994069 C29.1950581,28.1306645 27.9452716,28.4670742 26.7990919,28.1653725 C26.2996022,28.1043666 25.8314195,27.9364227 25.4087743,27.650591 C25.3945438,27.6406367 25.3803133,27.6306823 25.3660828,27.6193059 C25.2991996,27.5851768 25.2365855,27.5469237 25.1810866,27.5056843 L25.1691686,27.4963699 L25.1691686,27.4963699 L25.1583179,27.4870554 L25.1526257,27.4842114 C24.5279077,27.1970998 24.1692997,26.5854768 24.2319138,25.9001918 C24.1934915,25.6824762 24.1949145,25.4691689 24.2376059,25.2417834 C24.0341101,25.4819674 23.8263451,25.7195917 23.6157341,25.9555095 C22.845357,26.8824818 22.0909311,27.827969 21.3923344,28.8122378 L21.232129,29.0400744 C20.8479061,29.5817326 20.4907211,30.1421618 20.1605741,30.7193712 C19.8261578,31.2896125 19.4832033,31.8543079 19.1288644,32.4117508 C18.6681527,32.9205419 18.2226943,33.4415271 17.7934425,33.9752779 L17.6104724,34.2048115 L16.9928697,35.016801 C16.555994,35.5345688 16.1931168,36.100544 15.9070842,36.7147267 C15.6722814,37.1514377 15.4559781,37.5965388 15.2610205,38.0530163 C15.1984064,38.1908128 15.1386384,38.3301735 15.0802935,38.4695342 C14.8796437,39.0141787 14.7103011,39.5689198 14.5779576,40.141863 C14.4716559,40.5565323 14.3953237,40.9769609 14.3499982,41.4032524 L14.3360395,41.5455669 C14.3189629,41.7132264 14.3061555,41.881028 14.2990402,42.0488297 C14.3403086,42.0731468 14.3744618,42.0971794 14.4000766,42.1213542 L14.5039591,42.1584697 L14.5039591,42.1584697 L14.5879547,42.183338 C14.7188952,42.2239649 14.9450058,42.3078877 14.8910281,42.4114521 L14.6163799,42.934908 L14.6163799,42.934908 C14.6448409,42.964771 14.6576483,42.9959139 14.6391487,43.0301853 C14.4555755,43.381289 14.2705793,43.7325349 14.0855831,44.083923 C14.0798909,44.0967215 14.0699296,44.1065336 14.0599682,44.113786 C14.2179265,44.1861683 14.3716157,44.265803 14.5181896,44.3525479 C14.8042222,44.5233359 15.0148333,44.7208584 15.2097908,44.9512303 C15.4147097,45.0736686 15.6082442,45.2073412 15.7903943,45.3607802 C16.0152359,45.5968402 16.2116165,45.8557952 16.3781131,46.1357965 C16.5318022,46.4002975 16.6570304,46.6761748 16.7537977,46.9648506 C16.7964891,47.1170098 16.8164118,47.2748571 16.8149887,47.4355486 C16.6427999,48.65012 15.2524823,47.8180796 15.2254444,47.711426 C15.0347559,46.9776491 14.8156066,46.5142035 14.3232321,45.968137 L14.3104246,45.9594625 L14.3104246,45.9594625 C14.0258151,45.8343222 13.7440516,45.710604 13.4494807,45.6139048 C13.4053662,45.6224371 13.3598287,45.6282674 13.3142912,45.6352355 C13.3655209,45.7079022 13.339906,45.7790046 13.2360236,45.7916608 C12.7877635,45.87997 12.3352343,45.9040026 11.879859,45.8656073 L11.1882578,45.7676282 L11.1882578,45.7676282 C10.9013714,45.8775667 10.6271643,46.0187207 10.3687488,46.1868396 L10.2831994,46.2438721 L10.2675459,46.2552485 C9.60013647,46.7913607 9.08499318,47.5038069 8.73207733,48.2802453 C8.70077028,48.3494516 8.67072816,48.41929 8.64195097,48.4897604 L8.59973389,48.59594 L8.59688779,48.6016282 C8.13582031,50.4120378 8.54708112,52.3999191 9.3895254,54.0423849 C9.84916984,54.7775838 10.3287369,55.4985623 10.8296498,56.2053203 L11.3163321,56.8411181 L11.3163321,56.8411181 C11.6037877,57.1113072 11.8855512,57.3884644 12.1601994,57.6728741 C12.2028909,57.7156778 12.2484284,57.758197 12.2939659,57.7994364 C12.4391168,57.8947136 12.5871138,57.9787567 12.7379568,58.0498591 C12.7963018,58.0696256 12.8560698,58.0881122 12.9158378,58.1038969 C13.2061396,58.2431155 13.5106718,58.3172042 13.8308575,58.3257365 C14.2537695,58.353733 14.6641743,58.3041141 15.0608992,58.1782858 L15.1400615,58.1521044 L15.1984064,58.1307736 C15.4147097,57.992835 15.6153594,57.8207671 15.8060478,57.6188363 C15.8487393,57.5747528 15.92843,57.5747528 16.019505,57.5989276 C16.0693117,57.5477339 16.1191184,57.493696 16.1660789,57.435392 C16.198809,57.3998408 16.2500388,57.398561 16.2898841,57.4254377 C16.4250736,57.4099374 16.7907969,57.6175564 16.6954527,57.7269119 C16.6797992,57.7525088 16.6598765,57.7752616 16.6427999,57.7994364 C16.7068371,57.8321435 16.7708742,57.8691168 16.8277962,57.9076543 C17.1266362,57.9904688 17.5680555,58.2884807 17.5321929,58.3781541 L17.5279357,58.3853203 C17.4587755,58.5159923 17.3688674,58.6257005 17.2582112,58.7126825 L17.2205573,58.7408324 L17.1365975,58.7991363 C17.2547105,58.873225 17.3543238,58.9584057 17.3045172,59.0181318 C17.2817484,59.0622153 17.2575566,59.1050189 17.2290956,59.1434142 C17.4710137,59.4420444 17.7115088,59.7433764 17.9505808,60.0448506 C18.1896529,60.5626184 18.4856468,61.0459726 18.8385627,61.4939178 C19.1331336,61.9802583 19.4874725,62.4169693 19.9015794,62.8064684 C19.9357325,62.8407397 19.9713087,62.8734468 20.0054618,62.9061539 C20.3105277,63.1313708 20.6297574,63.342325 20.9621974,63.5450183 L21.1054778,63.6313986 C21.1808993,63.6767619 21.3075506,63.7336438 21.2477826,63.8431416 C21.2406673,63.857362 21.232129,63.8688806 21.2221677,63.8772707 C21.4313557,64.0139295 21.647659,64.1431937 21.8710775,64.262788 L21.8922559,64.2758093 C21.9767132,64.3296934 22.0911376,64.4274327 21.9706908,64.5072381 C21.8682314,64.5754964 21.5964293,64.3906301 21.468355,64.3053072 C21.4441632,64.3053072 21.4157022,64.2983392 21.3872412,64.2898069 C21.4299327,64.3124649 21.4719916,64.3370821 21.5146831,64.3611305 L21.5793527,64.3964605 C21.6291594,64.4261813 21.8739236,64.5882948 21.7031578,64.6566954 C21.619198,64.6636634 21.5423534,64.6423327 21.4712011,64.593983 C21.3872412,64.5527436 21.3047045,64.5088023 21.2235907,64.4631546 C21.2520517,64.5072381 21.2520517,64.5513216 21.1808993,64.5799048 C21.1567075,64.5811846 21.1325157,64.5799048 21.1083239,64.5770607 C21.2762435,64.6837143 21.4484323,64.7831155 21.6263133,64.8769706 L21.6550633,64.8949762 C21.7302402,64.9436514 21.8500875,65.0362578 21.7629259,65.116017 C21.6647356,65.2040417 21.3943565,65.0163314 21.3246271,64.9738121 L21.1168622,64.8499517 L21.1168622,64.8499517 C21.1012086,64.857062 21.0841321,64.8599061 21.0656324,64.8614703 C21.1282465,64.8998656 21.1865915,64.941105 21.2506287,64.9779361 L21.3377482,65.025351 C21.4468941,65.0856431 21.6010673,65.1846598 21.5451995,65.2836765 C21.4893317,65.3816398 21.3233681,65.3009985 21.2161974,65.2375146 L21.1008924,65.166131 C21.0958327,65.1630236 21.090773,65.1600057 21.0855551,65.1571142 L21.0811279,65.1742103 C21.0801792,65.1770386 21.0789142,65.1798669 21.0770168,65.182711 C21.0236525,65.2754997 20.8894413,65.2147071 20.7968543,65.1611737 L20.7226779,65.116017 C20.596501,65.0400796 20.4715891,64.9648374 20.3475204,64.8890265 L20.1619971,64.7747254 L20.159151,64.7747254 C19.5173565,64.3892081 18.9239455,64.0053973 18.3646878,63.5105245 C18.0302715,63.2145962 17.7186241,62.9017456 17.4226301,62.5675643 C16.8277962,61.8977795 16.3852283,61.1314377 15.958314,60.3493112 C15.9511987,60.3363705 15.9611601,60.3036634 15.9782366,60.2681122 C15.931276,60.1715551 15.8857385,60.0732916 15.840201,59.9723262 C15.4019023,60.0947645 14.9123738,60.1303157 14.4612677,60.1004527 C14.2193496,60.084668 13.9802775,60.0420065 13.7426286,59.9780144 C12.9841441,59.8727828 12.2526975,59.527225 11.6208643,59.113409 C11.581019,59.0878121 11.5454428,59.0593712 11.5084435,59.0339165 C11.2480258,58.8873033 11.0004155,58.7167997 10.7656126,58.5218369 C10.3073912,58.1435721 9.87051555,57.7226458 9.47348522,57.2832329 C9.18602957,56.9420835 8.91422744,56.5878513 8.65950189,56.2209628 C8.4005072,55.8583405 8.1386664,55.4958604 7.87682561,55.1330959 C7.1496482,53.9954573 6.68431157,52.6857508 6.5035845,51.3476034 C6.41535554,50.8542948 6.36981801,50.3550137 6.37977935,49.8572968 C6.38689459,49.4975186 6.42673992,49.1334742 6.49646927,48.7709941 C6.45520088,48.7310346 6.41393249,48.6913594 6.37266411,48.65012 C6.34989534,48.6897952 6.32712658,48.7183783 6.3128961,48.7040157 L5.98674019,48.3776825 C5.75538083,48.1445993 5.60015246,47.9730828 5.33383923,47.5962401 C4.90977099,46.9947136 4.59385438,46.3334612 4.3590515,45.6367997 C4.18970881,45.1390828 4.07728804,44.5729654 4.03317356,44.025619 C4.01894308,43.9344658 4.0047126,43.8420326 3.99332822,43.7481774 C3.90225316,43.0072903 3.98621298,42.2976882 4.09863376,41.5667554 C4.10574899,41.5185479 4.12994081,41.4886849 4.16267091,41.4729002 C4.17092458,41.4150228 4.18074361,41.3555812 4.19042034,41.2962818 C3.24779349,40.2991416 2.56942661,39.0973686 2.62478317,37.6460261 C2.64214435,37.1886954 2.73606551,36.7379061 2.91536953,36.3169798 L2.93714216,36.2694834 L2.93714216,36.2694834 C2.15033904,36.1486093 1.52619028,35.5962857 1.05729604,34.9117117 C1.01574304,34.8788624 0.975470792,34.8457286 0.936763893,34.8127371 C0.0983041407,34.0971624 -0.483010878,33.083953 -0.881037342,32.0137195 C-1.16607381,31.3922844 -1.35491225,30.7281879 -1.43502984,30.0393477 C-1.44072203,29.9901448 -1.44413735,29.9413686 -1.4485488,29.8924501 C-1.64322173,28.8033033 -1.6927438,27.7032068 -1.60280718,26.6194638 C-1.79819164,25.9486836 -1.95714607,25.2661005 -2.06600923,24.5675903 C-2.11723895,24.2349733 -2.15281514,23.9020718 -2.17985305,23.5693125 L-2.18269915,23.550968 L-2.18696829,23.4910998 L-2.19898514,23.3418374 C-2.20088253,23.3171359 -2.20262182,23.2924871 -2.20404486,23.2678382 C-2.44453994,20.2218108 -1.76290005,17.2241331 -0.635846209,14.4027893 C-0.537655912,14.1490603 -0.436263758,13.8959713 -0.331669746,13.644902 L-0.220743172,13.3826119 L-0.220743172,13.3826119 C0.910579814,11.559546 2.60941425,10.0850241 4.04825786,8.52773907 C4.54475924,7.99048924 3.74173337,7.18390346 3.24338204,7.72328637 C2.28737854,8.75796869 1.26178801,9.74899413 0.335810815,10.812544 C0.172302625,10.8244892 0.00850982573,10.8288976 -0.154856059,10.8207919 C-0.439465616,10.8064292 -0.715536885,10.7610659 -0.983069868,10.6883992 C-1.65047928,10.5902779 -2.25812068,10.3215108 -2.81026322,9.92618134 C-3.54882502,9.58218787 -4.17923518,8.93359165 -4.24184928,8.08747293 C-4.24896452,8.00215003 -4.24754148,7.91824918 -4.24184928,7.83449054 C-4.31015558,7.42053229 -4.24896452,6.98694977 -4.07535269,6.587212 C-4.04546869,6.47771429 -4.0070464,6.36963862 -3.95866278,6.262985 C-3.81778105,5.94586823 -3.58582426,5.64169211 -3.30263775,5.4353529 C-3.29552251,5.43108676 -3.28983032,5.42838487 -3.28413813,5.42397652 C-3.25425413,5.39283366 -3.22579317,5.36140639 -3.19306307,5.33310763 C-3.14467945,5.28888193 -3.09344973,5.24778474 -3.03937391,5.20938943 C-3.23148536,4.89355251 -3.40509719,4.56946771 -3.55309416,4.22376778 C-3.71389856,3.84834703 -3.79643533,3.4673803 -3.84197286,3.06479843 C-3.86047248,2.90552903 -3.86758772,2.74768167 -3.87043381,2.58997652 C-3.8789721,2.51730985 -3.88466429,2.44336334 -3.89035648,2.36941683 C-3.92593268,1.80628571 -3.86047248,1.22196608 -3.64986141,0.695666014 C-3.63420788,0.655990868 -3.61428521,0.616031311 -3.59578559,0.574791911 C-3.55594025,0.455339856 -3.51182577,0.336030007 -3.45774996,0.219279843 C-3.24713889,-0.228665362 -2.94829885,-0.60835225 -2.57972948,-0.919780822 C-2.38050279,-1.12028963 -2.15708429,-1.29804566 -1.91374312,-1.44878278 C-1.77001529,-1.53837182 -1.6063648,-1.61800652 -1.43417601,-1.68342074 C-1.12679769,-1.84553425 -0.732613458,-1.99342727 -0.412427708,-2.00466145 C-0.374005418,-2.0062257 -0.339852271,-2.00181735 -0.302853029,-2.00181735 C-0.272969025,-2.81821526 -0.167663489,-3.70699543 0.155368357,-4.44646053 C0.343210664,-4.98243053 0.624974124,-5.4588167 1.04904236,-5.80167254 C1.29499245,-6.05819425 1.5980621,-6.26651554 1.97623339,-6.40267715 L2.04375276,-6.42595173 L2.06936762,-6.43306197 C2.40947604,-6.59801957 2.77662237,-6.66343379 3.15373003,-6.66186954 C3.59345179,-6.68476451 4.04171184,-6.60214351 4.4245117,-6.40035486 C4.50420237,-6.35769341 4.58958524,-6.30507763 4.67069896,-6.24819569 C4.73189002,-6.37049185 4.80019631,-6.49421005 4.87846394,-6.61778604 C5.15311216,-7.05734116 5.48468229,-7.43987215 5.86890519,-7.78827397 C5.91444272,-7.82951337 5.9642494,-7.86648663 6.01263302,-7.90616177 C6.19905228,-8.07538552 6.39685592,-8.23181083 6.6017748,-8.37401566 C7.04434266,-8.68132029 7.52960195,-8.91012785 8.03905306,-9.05816308 C8.62722458,-9.27534863 9.2478116,-9.37618269 9.86863437,-9.35496676 L9.99716681,-9.34954077 L9.99716681,-9.34954077 C10.0256278,-9.34683888 10.0540887,-9.34541683 10.0811266,-9.34399478 C10.6973063,-9.30403523 11.3049477,-9.15329811 11.8855512,-8.92591259 C12.4875004,-8.68828832 12.9969515,-8.32865232 13.4708264,-7.91625832 C13.5818242,-8.06969733 13.7084754,-8.21488845 13.8635876,-8.35140509 C13.9077021,-8.38965819 13.9546627,-8.42392955 13.9987772,-8.45948076 C14.0329303,-8.49360992 14.0685065,-8.52631703 14.1055057,-8.55902414 C14.2748484,-8.7083392 14.4541525,-8.8377456 14.650533,-8.95293151 C14.8711055,-9.08219569 15.1087544,-9.17178474 15.3549417,-9.22724462 C15.6053981,-9.31270972 15.8686619,-9.36532551 16.1361949,-9.38239008 Z M13.211846,49.2415724 C13.2370409,49.2401796 14.5550256,49.734071 15.2116854,50.0533929 L15.2439582,50.0692104 C16.0010196,50.4446312 16.3653199,50.7148204 17.0455367,51.1968947 C17.0910742,51.2296018 17.1380348,51.2793735 17.1380348,51.3277232 C17.1380348,52.0298482 16.9673051,52.8883653 16.3767042,52.5080232 C16.2913214,52.4530374 16.205306,52.3993155 16.1186582,52.3464364 L15.9882122,52.2676971 L15.983943,52.2691191 C15.9853661,52.2691191 15.9867891,52.2676971 15.9882122,52.266275 C14.701777,51.4827264 13.3427664,50.8684016 11.9083342,50.4289886 C11.8101439,50.3934374 12.5373071,49.2955877 12.7379568,49.3567358 C12.62269,49.3112303 13.1926756,49.2426426 13.211846,49.2415724 Z M26.7283665,18.2288102 C25.8729725,18.3202479 25.0175784,18.4102635 24.1621844,18.4982883 C23.6171571,18.5608584 23.0707068,18.6163183 22.5242564,18.6632459 C21.7031578,18.7245362 20.8820593,18.7343483 20.0638068,18.6220065 C19.7735051,18.5823314 19.4888955,18.5253072 19.207132,18.4556269 C19.0150206,18.5964097 18.8157939,18.7286601 18.6122981,18.8553646 L16.3524982,20.5830111 L16.3524982,20.5830111 C14.8369523,21.7734077 13.3541365,23.0346223 12.0193177,24.4268076 C9.68808083,26.8590789 7.78930817,29.7045975 6.59551339,32.8565675 C6.48721946,32.9204175 6.40354425,33.0317639 6.37565251,33.2025519 C6.16475683,34.4944827 5.54800792,35.6727919 5.32515864,36.9594612 C5.10572467,38.2267906 5.39759177,39.3041344 6.19421392,40.3086693 C6.36426813,40.5232564 6.71263022,40.51188 6.926372,40.3669733 C6.97603637,40.4645258 7.19120119,40.4604018 7.26676503,40.0295212 C7.62096162,39.6462792 7.92392849,39.2445506 8.12913198,38.7471181 C8.28025966,38.3807984 8.02624563,38.1268206 7.71801348,38.0769067 C7.84608778,37.6161631 7.99052713,37.1595434 8.15289688,36.7077586 C8.63388703,35.3652029 9.24579758,34.0826575 10.0156664,32.8796047 C10.6930372,31.8214586 11.4771365,30.8999713 12.3195808,29.9756399 C12.3295421,29.9628415 12.3466187,29.9587175 12.3651183,29.9558735 L12.5401532,29.7623327 L12.5401532,29.7623327 C12.564345,29.7353138 12.6141517,29.7381579 12.6696505,29.7523783 C12.7223033,29.6969185 12.773533,29.6400365 12.8276088,29.5845766 C12.8802616,29.5276947 12.9386066,29.5447593 12.9713367,29.5902648 C13.0609887,29.5703562 13.2246392,29.6670554 13.2744458,29.6984827 C13.3598287,29.7552224 13.3868666,29.8192146 13.3142912,29.9002714 C13.3014838,29.9146341 13.2886763,29.9288545 13.2758689,29.9415108 C13.3740592,29.9828924 13.4708264,30.03821 13.546248,30.0923901 C13.8095118,30.1505519 14.1795042,30.3951442 14.1154671,30.4678108 C13.9802775,30.6084514 13.8493571,30.7522205 13.7198598,30.8985492 C13.8337036,30.9783262 13.9077021,31.0563966 13.8778181,31.090668 C13.3228295,31.6749876 12.8105323,32.2937208 12.3409265,32.9491429 C11.9837415,33.4383275 11.6607097,33.9474207 11.371831,34.4778447 C10.9420705,35.2286862 10.5777703,36.0008584 10.2547385,36.7943614 C10.2092009,36.9153777 10.1650864,37.0361096 10.122395,37.1569837 C9.64994315,38.4780665 9.2970273,39.8489211 9.14760728,41.2453725 L9.14136274,41.3395702 C9.11353003,41.8426138 9.10263897,43.1895021 9.05084003,43.5106954 C9.36533359,43.6656986 9.69263458,43.7979491 10.032743,43.906167 C10.0967802,43.9246536 10.1622403,43.9417182 10.2277005,43.9573607 C10.2646998,43.9417182 10.3031221,43.9287776 10.3415444,43.9174012 C10.6546149,43.7908389 10.9819159,43.6998278 11.3163321,43.6557443 C11.5417073,43.6260057 11.765993,43.615647 11.9901424,43.6220959 L12.0862009,43.6258813 C12.1858143,43.6287254 12.2840046,43.6358356 12.3836179,43.6459322 C12.3779257,43.588908 12.3750796,43.5335903 12.3708105,43.4765662 C12.3423495,43.4580796 12.3210038,43.4326249 12.3195808,43.3983536 C12.2526975,42.7584318 12.2512745,42.1185101 12.3153116,41.4785884 C12.3580031,41.144407 12.4078097,40.8116477 12.4618856,40.4790307 C12.5173844,40.2058552 12.5814216,39.9372303 12.6511509,39.6683209 C12.8361471,38.9147776 13.0823344,38.1794364 13.3811744,37.4600222 C14.232157,35.4078643 15.4517089,33.5577795 16.6783761,31.7176491 C17.5734732,30.3739556 18.4201866,29.0001148 19.3465907,27.679032 C20.1349592,26.5541918 20.963173,25.4464162 21.8468857,24.3941005 C22.7291753,23.343349 23.6612716,22.3321305 24.6673664,21.3965649 C24.8295938,21.2471076 24.9932443,21.1020587 25.1597409,20.958574 C26.1131829,20.1053451 27.1491617,19.4041331 28.2278319,18.7160039 C28.2691003,18.688985 28.3430988,18.718848 28.4042898,18.7698995 L28.5783233,18.6629826 C28.6074694,18.6452333 28.636721,18.6276947 28.6661306,18.6106301 C28.6931685,18.5937078 28.7230525,18.6220065 28.7387061,18.6461813 C28.8127046,18.607786 28.886703,18.570955 28.9607015,18.5338395 C29.014635,18.4903249 29.0702762,18.4490855 29.1246366,18.4061396 C28.3247415,18.3658956 27.5259848,18.3061696 26.7283665,18.2288102 Z M36.7604264,8.74872538 C36.1143627,8.61946119 35.4654529,8.60083235 34.813697,8.69753164 C34.5406142,8.73749119 34.2688121,8.78555643 33.9992868,8.8437182 C34.6113397,9.3769863 35.1035719,10.0594273 35.4230461,10.8448245 C35.7682775,11.6937873 34.3911942,12.0596804 34.0508011,11.2229472 C33.722504,10.4157926 33.101059,9.79663275 32.3504013,9.42547815 C32.1881739,9.51606262 32.0309271,9.61418395 31.8807956,9.72282844 C31.684415,9.88209785 31.4994188,10.0541657 31.3258069,10.2432981 C30.9472762,10.6544123 30.6000526,11.2031807 30.3723649,11.7464031 C30.284136,12.0421892 30.2186758,12.3465075 30.1774074,12.6593581 C30.1688691,12.7304605 30.1603308,12.802985 30.1532156,12.8755095 C30.0129031,14.3471872 30.4339829,15.7790476 31.1584565,17.0460926 L31.1869175,17.0465192 L31.1869175,17.0465192 C31.8335504,16.6961265 32.5104942,16.4009093 33.2070761,16.160441 C33.7649108,15.7851624 34.3440913,15.4380404 34.9403483,15.1237678 C36.2079149,14.4555104 37.5467394,13.9403497 38.9263244,13.5880633 L39.0856865,13.5481383 C39.4106157,13.4651855 39.7385097,13.392108 40.0677212,13.3281652 L40.2653931,13.2908898 L40.2682392,13.2908898 L40.2468935,13.0788624 L40.2468935,13.0788624 C40.1358957,12.2469641 39.8100178,11.4747919 39.3887957,10.7610659 C39.0728791,10.2221096 38.596158,9.67035486 38.0667843,9.2295199 L38.0639382,9.22795564 C37.8236012,9.09143901 37.570896,8.97851784 37.3108199,8.88519714 L37.2129556,8.85111285 L36.7604264,8.74872538 Z M19.413474,7.48466667 C18.0701169,7.35796217 16.7267598,7.3707606 15.3834027,7.48025832 C14.5053822,7.56714547 13.6330539,7.68787736 12.7649947,7.84145858 C12.177276,7.94242401 11.6009417,8.08462883 11.0345686,8.26110502 L11.3585228,8.91576667 C11.8999398,10.0060531 12.4545331,11.0891798 13.1079493,12.1189798 C13.4452116,12.6494038 13.8109349,13.1543731 14.2093882,13.6391494 C14.4783443,13.9861292 14.7743382,14.3076543 15.0987931,14.6032981 C15.184176,14.7072498 15.275251,14.8053712 15.3677491,14.9005062 C15.6637431,15.1536308 15.9825058,15.3754703 16.3311525,15.5589145 C16.6107023,15.7624255 16.9026204,15.9402061 17.2069066,16.0960516 L17.3215937,16.1534729 L18.3888796,16.5628806 C18.4458015,16.5789972 18.5033559,16.5951137 18.5611211,16.6104297 L18.6478743,16.6327032 L18.8101017,16.6666902 L18.9318514,16.6006439 C18.9522484,16.5897415 18.9728035,16.5789972 18.9936749,16.5685688 C19.027828,16.5502244 19.0520198,16.5857756 19.0591351,16.6112303 C19.0619812,16.6213268 19.057712,16.6354051 19.0505968,16.6496256 L19.2061359,16.5655825 L19.2061359,16.5655825 C19.4735266,16.6740848 19.7572823,16.7608297 20.0616722,16.8179961 C20.1994233,16.8437352 20.3374589,16.8635016 20.4756368,16.880424 L20.494147,16.89278 C20.4972355,16.8949447 20.5003504,16.897299 20.5035286,16.9000483 L20.6546562,16.9000483 L20.6546562,16.9000483 C21.7185268,17.002578 22.7974816,16.8670568 23.8596445,16.6763601 C25.3626675,16.5253386 26.865406,16.3588167 28.3672906,16.2031024 C28.3957516,16.2004005 28.4071359,16.2130568 28.4071359,16.2331076 L28.499634,16.2245753 L28.499634,16.2245753 C28.6334005,16.2102127 28.7899358,16.4334742 28.6888994,16.5146732 C28.7700131,16.5628806 28.8482808,16.6327032 28.9066257,16.686741 L28.9407789,16.6837547 C28.7344369,16.279893 28.5750556,15.8575447 28.4612118,15.418274 L28.3160609,14.6815108 L28.3160609,14.6815108 C28.2762155,14.4070554 28.2534468,14.1142557 28.2491776,13.8254377 C28.2392163,13.6931872 28.2321011,13.5696112 28.2321011,13.4613933 C28.2321011,13.3590059 28.2335241,13.2566184 28.2377933,13.1543731 C27.9546067,13.037623 27.6671511,12.9353777 27.3740033,12.8484905 C26.5415203,12.7462453 25.7104604,12.6437156 24.8779774,12.5427502 C24.3784877,12.5612368 23.8789979,12.596788 23.3809312,12.6522479 C22.8159812,12.7020196 22.2524543,12.7660117 21.6903504,12.8428023 C21.6376976,12.8484905 21.5437765,12.7773881 21.4868546,12.6949093 L21.2463595,12.7277586 L21.2463595,12.7277586 C21.1211313,12.7434012 20.9902109,12.4929785 21.1552845,12.4417847 C21.2150525,12.4180839 21.2748205,12.3956472 21.3345885,12.3740531 L21.4242405,12.3422414 L21.3730108,12.3479295 C21.3559342,12.3494938 21.3345885,12.3450855 21.3103967,12.3366954 C21.1780532,12.3536177 21.0457098,12.3706823 20.9147894,12.3863249 C20.7487502,12.4070309 20.7864864,12.1882707 20.9029539,12.1367893 L20.9589039,12.1161357 C20.8605428,12.0548397 20.7739851,11.8871263 20.895638,11.8322888 L20.9119433,11.8260378 C20.9688652,11.8034273 21.0243641,11.7847984 21.081286,11.7634677 C21.0770168,11.7451233 21.0770168,11.7279165 21.082709,11.7124162 L20.8479061,11.742137 L20.8479061,11.742137 C20.8264767,11.7449476 20.9285816,11.5952123 20.9774466,11.5656124 L20.9859418,11.5615369 L21.0983625,11.5274077 C21.1154391,11.4790581 21.2065142,11.3724044 21.2378212,11.3625923 C21.6505051,11.2330437 22.034728,11.116578 22.4360275,11.0268467 C22.4559501,11.0026719 22.4787189,10.9841853 22.5043337,10.9784971 C22.7547902,10.918771 23.0080927,10.8718434 23.2613952,10.8321683 C23.2784717,10.8064292 23.2955483,10.7880848 23.315471,10.7865205 C23.9430351,10.7068858 24.5720222,10.6883992 25.2038554,10.7312029 C25.3248144,10.7424371 25.4457735,10.7553777 25.5667326,10.770878 C25.7986894,10.7966171 26.0306461,10.8293242 26.2611799,10.8734077 C26.8386323,10.9724432 27.4025876,11.1229772 27.9519064,11.3260343 L28.0784119,11.3738265 C28.2164475,11.4251624 28.3530601,11.4790581 28.4882497,11.5375042 C28.556556,11.294334 28.6419388,11.0552877 28.7429752,10.8207919 C28.7586287,10.7751442 28.7757053,10.7312029 28.7942049,10.6871194 L28.6561693,10.6044984 L28.6561693,10.6044984 C28.6262853,10.6613803 28.5650942,10.7054638 28.5252489,10.6814312 C27.5362307,10.0144905 26.4902906,9.45832746 25.3874286,9.0146484 C24.7698258,8.74161513 24.1379926,8.50996347 23.4905059,8.3164227 C23.167474,8.21275538 22.8415961,8.1189002 22.5142951,8.02931115 C22.3506446,7.99503979 22.1869941,7.96091063 22.0204975,7.93246967 C21.1652458,7.70209785 20.2957636,7.55292498 19.413474,7.48466667 Z M52.0031181,9.74188389 C51.8830129,9.94921853 51.7580693,10.1545623 51.6255835,10.357062 C50.9822236,11.3409772 50.2109317,12.2643131 49.3363266,13.0693346 C49.5644411,13.0687658 49.7919865,13.0774403 50.0166857,13.0984866 C50.4041816,13.1350333 50.7837085,13.1993098 51.1537009,13.2893255 C51.1837272,13.2652929 51.2173111,13.2532055 51.2442067,13.2722609 L51.3406894,13.338955 L51.3406894,13.338955 C52.1343231,13.5529733 52.8794309,13.8894299 53.5543825,14.3402192 L53.5422813,14.251199 C53.5402153,14.2363623 53.53797,14.2215255 53.5353136,14.2066888 C53.546698,14.0317769 53.5495441,13.8567228 53.5438519,13.6832329 C53.4043932,12.6579361 53.0557465,11.713696 52.6572932,10.7582218 C52.649751,10.7397352 52.6551586,10.7157025 52.6666853,10.6912433 C52.4656086,10.3630346 52.2454631,10.0456334 52.0031181,9.74188389 Z M52.1862643,1.68114547 C51.8888474,1.7351833 51.5942765,1.80486367 51.3011286,1.89160861 C50.7504091,1.97422962 50.2167662,2.11927854 49.7016229,2.32533333 C48.9915221,2.57703588 48.302767,2.86997782 47.6168579,3.18012655 C46.2848852,3.78293281 45.0354493,4.54529289 43.8984341,5.46393607 C43.8258586,5.51925375 43.7561293,5.57627789 43.6864,5.63315982 C43.4316744,5.85343509 43.1840641,6.08380691 42.9492612,6.32697717 C42.7030739,6.59432224 42.4554636,6.86180952 42.2092764,7.13043444 C41.9075902,7.44627136 41.5603666,7.73196086 41.2871414,8.07325245 C41.2316425,8.14293281 41.1832589,8.21972342 41.1391444,8.29665623 L41.2999488,8.35197391 L41.2999488,8.35197391 C41.4351384,8.39747945 41.4123696,8.65060404 41.2786031,8.61363079 C41.2330656,8.60083235 41.1903742,8.58518982 41.1476827,8.56826745 C41.1661823,8.59244227 41.1789898,8.61661709 41.1818359,8.63780561 C41.1903742,8.70606393 41.1377214,8.80006132 41.0537616,8.7758865 C41.0153393,8.76578995 40.976917,8.75156947 40.9384947,8.73592694 C40.9271103,8.78001044 40.918572,8.82409393 40.918572,8.86675538 C40.9256873,8.86959948 40.9328025,8.87244357 40.9413408,8.87400783 C41.0352619,8.90671494 41.2117199,9.05304371 41.2373347,9.15272929 C41.2572574,9.2295199 41.1917972,9.31185649 41.1078374,9.28910372 C41.0452233,9.27203914 40.9840322,9.24644227 40.9242642,9.2180013 C40.9641096,9.25653881 40.9954166,9.29777821 40.9982627,9.33332942 C41.0039549,9.39874364 40.947033,9.49103457 40.8687654,9.46984605 C40.7236145,9.4298865 40.6069246,9.36888063 40.5101573,9.29209002 C40.4845425,9.32607697 40.4475432,9.35309589 40.4176592,9.34470581 L40.3621603,9.32764123 L40.3621603,9.32764123 C40.3773395,9.34176691 40.3912538,9.35665101 40.4047464,9.37128231 L40.4247744,9.39291324 C40.8175356,9.81668363 41.1604901,10.2859596 41.4351384,10.7909289 C41.4479458,10.7765662 41.4635993,10.7637678 41.483522,10.7481252 C41.6115963,10.6400496 41.7439397,10.534818 41.8762832,10.4325727 L41.9163064,10.3976081 L41.9163064,10.3976081 L41.9573969,10.3627502 L41.6599799,10.4608715 L41.66656,10.4531717 C41.6875758,10.4262898 41.7530194,10.3366257 41.7835107,10.3067527 L41.7909003,10.30018 C42.199315,9.93485584 42.644729,9.62470711 43.1257191,9.37172472 C43.4373666,9.16965166 43.7646676,8.99900587 44.1076221,8.85822309 C44.9258746,8.4785362 45.7597806,8.19000261 46.6164553,7.92265753 C46.7445296,7.88141813 46.8726039,7.83733464 47.0006782,7.79737508 C47.0376775,7.78457665 47.0447927,7.80021918 47.0391005,7.82581605 L47.1059838,7.80590737 L47.1059838,7.80590737 C47.2255198,7.76751207 47.4290156,7.97797521 47.3479019,8.07609654 C47.3968547,8.11591389 47.4448968,8.1602818 47.486928,8.20191937 L47.5172446,8.23252185 L47.5513977,8.22256751 C47.6530603,8.19122557 47.8245887,8.34962127 47.9335502,8.46178998 L48.0138883,8.54679452 C48.0750793,8.61220874 48.1946153,8.74730333 48.0480414,8.80006132 L47.8644682,8.86248924 L47.8644682,8.86248924 C47.8701604,8.89946249 47.8545069,8.93074755 47.797585,8.95207828 C47.7335478,8.973409 47.6709337,8.99616177 47.6083196,9.01905675 C47.6462676,9.05214307 47.6835831,9.08655664 47.7202661,9.12141263 L47.7748162,9.17391781 C47.8392223,9.23964804 47.9920409,9.38449799 47.8571402,9.44847001 L47.8402764,9.45548337 L47.6652416,9.51805349 C47.6880103,9.56924723 47.6823181,9.61773907 47.6054735,9.64603783 C46.5837252,9.99301761 45.5861687,10.3998656 44.611381,10.8620313 C43.8813575,11.2657508 43.1100656,11.5673673 42.2975053,11.7648898 C42.2306221,11.7863627 42.0854712,11.6853973 42.0257032,11.5844318 L41.9043752,11.6201094 C41.884189,11.626003 41.8639501,11.6316912 41.8435531,11.6369054 L41.8236304,11.6413138 L41.8236304,11.6413138 C41.9758965,12.0465975 42.0883173,12.4858682 42.1509314,12.9110607 C42.1580466,12.949456 42.1637388,12.9894155 42.168008,13.0278108 C42.3273893,13.0148702 42.4853476,13.0034938 42.644729,12.9951037 C43.747591,12.9366575 44.8632605,12.9722087 45.9689686,13.1030372 C46.4158056,12.8371142 46.845566,12.5455943 47.2568268,12.2300417 C47.382055,12.1332003 47.5058602,12.0336569 47.6282423,11.9326915 C48.362535,11.2956138 49.0270983,10.5804658 49.6162401,9.80815134 C50.1612674,9.09286106 50.6351423,8.32495499 51.0335956,7.52021787 C51.3865115,6.76496804 51.6782363,5.97999739 51.8988087,5.16942988 C52.1008815,4.42854273 52.1706108,3.70756425 52.2218405,2.94108023 C52.2389171,2.81593999 52.2503015,2.69094194 52.2602628,2.56565949 L52.2591033,2.512043 L52.2591033,2.512043 L52.2574167,2.48602479 C52.2431863,2.21739987 52.2161484,1.94849054 52.1862643,1.68114547 Z M41.7595933,11.2046027 C41.7268632,11.2159791 41.69271,11.2273555 41.6585569,11.2373098 C41.6784795,11.2813933 41.6969792,11.324197 41.7154788,11.3681383 L41.7176134,11.3672673 L41.7176134,11.3672673 L41.8520914,11.2614847 L41.8520914,11.2614847 C41.8236304,11.2486862 41.7909003,11.2289198 41.7595933,11.2046027 Z M51.9870377,-0.335276321 C52.2431863,-0.430553555 52.4367208,-0.449040183 52.5676412,-0.389314155 C52.3741067,-0.375093673 52.1805722,-0.356607045 51.9870377,-0.335276321 Z" fill="#000000" transform="translate(-341.000000, -3807.000000) translate(289.000000, 3772.000000) translate(25.000000, 19.000000) translate(53.049296, 25.596869)"/><g fill="#000000"><path d="M25.3172773,29.1999268 C25.8065572,28.3390188 27.2665537,28.4789483 27.4897315,29.4830566 C27.9425044,31.5185765 25.5083688,33.3982399 23.6596294,33.4451675 C21.822441,33.4916685 19.7610766,31.9323926 20.0270361,29.9628557 C20.0927773,29.475662 20.7453407,29.5348192 20.9678055,29.8402751 L21.0541751,29.9574568 C21.6584048,30.7669106 22.4556802,31.6047308 23.5770607,31.4073723 C24.0418125,31.3257468 24.4639252,31.0362177 24.7448583,30.6634989 C25.0836893,30.213705 25.0464692,29.6765974 25.3172773,29.1999268 Z M13.6352092,14.308152 C13.8841986,14.2397515 14.1354697,14.2662016 14.3560806,14.3597723 C14.8486405,14.449788 15.2600577,14.8593379 15.4046599,15.3269074 C15.4160683,15.3673883 15.4288077,15.4073637 15.4428359,15.4469177 L15.4648394,15.5059432 L15.4058007,15.3560594 C15.4330384,15.503668 15.5535401,15.6588134 15.5968923,15.8069909 C15.6502268,15.9891553 15.6632039,16.1960633 15.6452356,16.3965721 C15.8018165,16.3981363 15.9583975,16.4033979 16.1146933,16.4169074 L16.2657276,16.4304043 C17.1103773,16.5086827 18.0376845,16.6522671 18.5384187,17.3800607 C18.819637,17.7890417 18.5556739,18.5253783 18.0390137,18.6041598 C17.2437021,18.7254605 16.5586246,18.2866164 15.7660225,18.1987339 C15.0167725,18.115544 14.2327268,18.1631826 13.4931739,18.298135 C11.9663125,18.5764924 10.5632538,19.1936295 9.07531533,19.5808683 L8.87275141,19.6321585 L8.87275141,19.6321585 L8.87303662,19.6311631 C8.61805775,19.6925956 8.32856831,19.3390744 8.58083768,19.1323085 C9.77287817,18.155788 11.2990437,17.3644181 12.8025349,16.882486 C12.5834926,16.5350796 12.5157549,16.0774644 12.6654908,15.7044612 C12.6886785,15.6271586 12.717462,15.5520062 12.7478062,15.4770688 L12.8110912,15.3229256 L12.8110912,15.3229256 C12.8172232,15.250259 12.8311986,15.1784455 12.8514486,15.1080541 L12.8547285,15.0865812 L12.8547285,15.0865812 L12.8565824,15.0878611 L12.8565824,15.0878611 C12.9685278,14.7250965 13.2608694,14.4111083 13.6352092,14.308152 Z M28.843387,14.3642945 C29.1694135,14.0390458 29.6275292,14.0871106 29.9677481,14.3430872 L30.0128958,14.3783727 L30.0128958,14.3783727 C30.3336158,14.5204354 30.5990049,14.8308685 30.773269,15.1185489 C30.9542356,15.4173212 31.0744521,15.7216395 31.0791581,16.0505593 C31.8683377,16.053119 32.6242901,16.289179 33.2036968,16.9245502 C33.3907954,17.1296095 33.5185701,17.4458731 33.4156088,17.7238835 L33.3542884,17.8892677 L33.3542884,17.8892677 C33.1597253,18.4143435 32.2850204,18.7166037 31.987724,18.0991167 L31.9740085,18.0690146 C31.658137,17.3358065 30.4455613,17.4127393 29.8011264,17.4876813 C29.3519187,17.5401549 28.9082725,17.6515012 28.4744662,17.7762149 C28.3216286,17.8201562 28.1701547,17.867857 28.0188412,17.9165577 L27.8675366,17.9654895 C27.7868218,17.991513 27.3664204,18.2191829 27.6279592,18.1652873 C27.6982637,18.1507824 27.7511704,18.2528855 27.6794398,18.2871568 C27.3677039,18.4357609 27.0351475,18.1398326 27.055968,17.8059357 C27.0920244,17.2263344 28.0150237,16.9085446 28.4591506,16.7086859 L28.485732,16.6965958 C28.6560032,16.6180988 28.8344028,16.5428724 29.0185067,16.4730498 C28.914975,16.3194686 28.8294116,16.1488228 28.7582514,15.965663 C28.6909415,15.7927419 28.6460208,15.6246558 28.62135,15.440785 C28.597107,15.3509115 28.597107,15.2610381 28.62135,15.1710224 L28.6250577,15.1452834 L28.6250577,15.1452834 C28.6125085,15.0858417 28.606519,15.0244093 28.6073746,14.9625502 L28.6048077,14.9385175 L28.6073746,14.9385175 C28.6160736,14.7219396 28.70235,14.504935 28.843387,14.3642945 Z M23.6342599,20.5366665 C24.8867651,20.9226104 26.9531208,21.9739307 26.3004148,23.59663 C25.3890222,25.0869366 22.9719993,23.991675 21.8007792,23.5101695 C20.7484923,23.1626209 20.2006014,24.633161 21.2180926,25.0764134 C29.6259782,28.393341 29.5950327,19.6393541 23.9391507,19.7679072 C23.3163919,19.7819855 23.2968549,20.4083978 23.6342599,20.5366665 Z M12.5103217,9.12228192 L12.7239734,9.06011129 C13.8341583,8.7394394 14.9674452,8.1856938 15.9531354,9.04973033 C16.3401671,9.38903105 16.4198836,10.0940826 16.1429435,10.5172841 C15.5120562,11.4815751 14.5764206,11.3342509 13.5575033,11.4164453 C12.7817287,11.4790154 12.0175051,11.7062587 11.2933537,11.9902417 C10.7015403,12.2224622 10.1526512,12.5493911 9.63442236,12.9140043 C9.12532025,13.2725027 8.77750511,13.8329319 8.25528327,14.1555947 C8.06390651,14.2739091 7.84286778,14.1521817 7.77413187,13.9603474 C7.53056144,13.2798973 7.9421213,12.4322144 8.29036426,11.8524453 C8.71547165,11.1451185 9.36118996,10.5666292 10.0555368,10.1289228 C10.8158662,9.64953935 11.6566352,9.37274986 12.5103217,9.12228192 L12.5103217,9.12228192 Z M28.6871768,8.39011278 C30.5637243,8.38954442 32.3693968,9.43034155 33.4189743,10.9560571 C33.775631,11.4743937 33.5142349,12.2422998 33.0022806,12.5407877 C32.4279434,12.8758056 31.8138565,12.6345686 31.4353654,12.1544957 L31.4129408,12.1254074 C30.8110025,11.3260741 30.0350852,10.6965333 29.1152789,10.286699 C28.6664989,10.0866168 28.1702313,9.92436112 27.6848018,9.84202453 L27.5279207,9.81521721 C27.3080434,9.77847603 27.0529732,9.74339126 26.8541239,9.77774795 C26.7475975,9.79168402 26.6497701,9.82680861 26.5596433,9.88027763 C26.6029954,9.97470163 26.49105,10.0884655 26.3876609,10.031868 C25.9213405,9.7764681 25.9785254,9.32084384 26.3637032,8.96675382 C26.9085993,8.46576621 27.983418,8.39025545 28.6871768,8.39011278 Z" transform="translate(-341.000000, -3807.000000) translate(289.000000, 3772.000000) translate(25.000000, 19.000000) translate(75.723592, 52.046967)"/></g></g></svg>