<svg width="580" height="425" xmlns="http://www.w3.org/2000/svg"><g fill="none" fill-rule="evenodd"><g opacity=".346"><path d="M0.206340551,321.384858 C7.10112455,244.336156 377.035639,95.6240451 445.712692,168.603052 C514.389745,241.58206 448.365277,378.544566 304.44354,413.617178 C160.521804,448.68979 -6.68844344,398.433559 0.206340551,321.384858 Z" fill="#046159" opacity=".076" transform="translate(-756.000000, -102.000000) translate(756.000000, 102.000000) translate(236.500000, 287.000000) scale(-1, 1) translate(-236.500000, -287.000000)"/><path d="M139.144372,146.447681 C145.320429,80.9917944 476.692198,-45.3449619 538.210212,16.65356 C599.728225,78.6520818 584.156816,209.058789 455.237782,238.854345 C326.318748,268.649901 132.968315,211.903567 139.144372,146.447681 Z" fill="#CDB656" opacity=".295" transform="translate(-756.000000, -102.000000) translate(756.000000, 102.000000)"/></g><g opacity=".5"><path d="M75.3026429,46.9443328 C77.0617574,44.4027351 80.3261704,37.9479114 82.802091,37.0397222 C84.3968128,36.4547645 83.9318491,42.5057045 83.9515429,43.659486 C84.0282366,48.1232849 83.5993661,52.5587798 83.0697457,56.9851011 C82.115582,64.9679535 78.9955503,72.0772903 74.7161956,78.8715189 C72.5141304,82.367563 69.9312826,85.9059982 66.3539175,88.0873622 C64.707253,89.0919245 62.7259019,89.2601215 61.0997173,90.1256335 C59.2057879,91.1332027 60.2372181,90.3186889 59.3836886,92.3184715 C58.1983822,95.0949022 57.8192537,98.6767939 57.2708311,101.639344 C54.7527433,115.23906 48.6564999,187.130706 49.7133547,200.964217 C49.8072204,202.190358 48.1199338,202.483571 48.0357035,200.986708 C47.5880049,193.049924 51.4620435,138.087814 53.4165616,120.113623 C55.3710798,102.139433 57.3489629,86.2601347 59.3321826,80.0416276 C61.7381237,72.4972568 66.083391,63.4245684 69.7005226,56.389116 C71.380653,53.1206037 73.2120283,49.9646898 75.3026429,46.9443328 Z" fill="#69A1AC" transform="translate(-756.000000, -102.000000) translate(756.000000, 102.000000) translate(462.000000, 85.000000)"/><path d="M88.0537817,134.968994 C92.633412,131.553739 97.5905178,137.999344 93.4464242,141.415125 C91.155471,143.303161 88.7604132,142.631535 87.4120609,141.058134 C86.5367653,142.141916 85.7175181,143.275115 84.930328,144.232274 C82.531961,147.14892 80.2651416,150.13518 78.0987192,153.19107 C73.5983116,159.539608 69.7415435,166.246702 65.709018,172.831151 C61.7294426,179.329645 57.7816882,185.861423 54.1746547,192.524561 C51.1189852,198.169855 47.046166,204.811091 46,211 C47.5873113,197.874394 53.6104384,185.258363 60.7829323,173.687136 C67.8970632,162.210966 76.061355,149.677714 87.076669,140.620972 C85.9555796,138.946311 85.924458,136.55586 88.0537817,134.968994 Z" fill="#C1DEE2" transform="translate(-756.000000, -102.000000) translate(756.000000, 102.000000) translate(462.000000, 85.000000)"/><path d="M0.812685283,103.013017 C3.41201018,103.519323 7.65927776,109.375843 9.80189659,111.607223 C12.3482551,114.258905 14.6584342,117.08522 16.8360498,120.046495 C21.5240104,126.420517 25.7165672,133.197426 29.2816666,140.264556 C35.0937121,151.785391 39.7499164,163.611927 43.129123,176.157471 C45.1976579,183.837052 46.5369486,191.796638 47.3306844,199.700641 C47.4805848,201.191289 49.0497133,212.683899 46.7886952,212.993657 C44.7551477,213.272574 45.3832346,204.267082 45.2851307,203.042113 C44.1761721,189.222174 40.8540464,175.77549 36.2330001,162.749505 C35.22647,159.911918 34.2913679,156.43638 32.6816888,153.882825 C31.5224942,152.043541 32.6733758,152.684959 30.6362439,151.988878 C28.8870415,151.390824 26.8940743,151.536963 25.1028515,150.804895 C21.2115969,149.215511 18.0958182,146.130042 15.364625,143.026423 C10.0569591,136.994812 5.85090392,130.469553 3.65846505,122.740934 C2.44225154,118.455668 1.32461341,114.145475 0.704392868,109.727698 C0.543952615,108.585833 -0.861520262,102.686909 0.812685283,103.013017 Z" fill="#69A1AC" transform="translate(-756.000000, -102.000000) translate(756.000000, 102.000000) translate(462.000000, 85.000000)"/><path d="M10.9694465,5.8180709 C20.7547921,22.7744163 28.7959881,41.4005172 33.9882464,60.2659405 C37.1341352,71.6962962 39.3341497,83.4255206 41.5200392,95.0700175 C44.9044949,113.100069 48.1058018,131.128729 49.016422,149.479048 C49.9325644,167.935712 51.7441741,189.223306 45.6956372,207 C48.7169117,188.951826 45.8404533,169.740949 45.3311493,151.580764 C45.0877651,142.911385 44.382483,134.326765 43.4572847,125.708046 C42.5594719,117.347425 41.0926998,109.026616 39.7268045,100.73171 C39.0614516,96.6919407 38.3626811,92.6582498 37.6512357,88.6267651 C37.4388449,87.4239668 37.3491265,83.8548443 36.5855164,83.0331597 C35.8169607,82.2060649 31.8956885,81.8688864 30.6645906,81.2620136 C28.1855824,80.0396975 25.8537406,78.3034862 23.79,76.4689565 C19.8337823,72.9522096 16.392072,68.3571524 13.6755988,63.8274708 C7.39038457,53.3465003 4.87755898,40.5558999 5.00456735,28.4176025 C5.02897037,26.0608936 8.82219726,0.682909677 7.29877633,0.333433846 C7.39049919,0.226100576 7.477262,0.115275746 7.55907205,0 C8.71243223,1.92950491 9.84421273,3.87208582 10.9694465,5.8180709 Z" fill="#89C5CC" transform="translate(-756.000000, -102.000000) translate(756.000000, 102.000000) translate(462.000000, 85.000000)"/><path d="M116.230318,66.6488214 C116.381838,66.4312359 117.367996,64.9179937 116.871398,65.0147039 C117.88249,64.8177985 115.480704,66.683649 118,65.5387717 C116.803821,66.6635056 117.494174,68.1245528 117.51014,69.6383214 C117.536188,72.0960092 117.12316,74.5335434 116.658225,76.9384987 C115.923557,80.7399989 114.829099,84.4361682 113.240513,87.9720202 C109.778141,95.6774457 103.898855,103.095326 96.919051,107.912702 C93.4733147,110.291234 90.0963397,111.101036 86.1664753,112.196022 C83.6842066,112.887797 83.4873588,114.166177 82.1697645,116.564321 C79.4266324,121.559143 76.7323525,126.535998 74.3131533,131.699345 C71.4244691,137.864926 68.6202534,144.037302 65.9750642,150.31142 C57.0638958,171.44545 49.8110313,193.340623 46.0020485,216 C45.9087886,202.646898 49.0114891,188.894345 52.9252457,176.166618 C55.7761819,166.893485 59.4875655,157.954465 63.4461185,149.105939 C64.405356,146.962279 65.8589934,144.204806 66.2663504,141.838113 C66.5515819,140.17989 65.679545,138.585167 65.2802782,136.838357 C63.7237155,130.035959 63.8351238,122.415081 65.2020173,115.576311 C66.7091222,108.03527 71.0676,104.535216 78.4405281,103.467076 C81.1369554,103.076362 84.5641841,103.219561 87.0366752,102.074923 C89.7304172,100.82845 90.8416263,96.7313084 92.3733866,94.1012653 C96.4876427,87.0364143 101.375974,80.2607907 106.98913,74.3080677 C108.543359,72.6596829 110.214788,71.1389362 111.987987,69.7293906 C113.106166,68.8400456 115.468286,67.7443739 116.230318,66.6488214 Z" fill="#89C5CC" transform="translate(-756.000000, -102.000000) translate(756.000000, 102.000000) translate(462.000000, 85.000000)"/><path d="M37.8045504,202 L57.1954496,202 C59.9568734,202 62.1954496,204.238576 62.1954496,207 C62.1954496,207.24787 62.1770178,207.495397 62.1403065,207.740534 L61.2777778,213.5 C60.2879299,220.109629 54.6106491,225 47.9273119,225 L47.0726881,225 C40.3893509,225 34.7120701,220.109629 33.7222222,213.5 L32.8596935,207.740534 C32.4507078,205.009565 34.3330472,202.464129 37.0640162,202.055143 C37.3091529,202.018432 37.5566801,202 37.8045504,202 Z" fill="#C1DEE2" transform="translate(-756.000000, -102.000000) translate(756.000000, 102.000000) translate(462.000000, 85.000000)"/></g><path d="M33.5661404,8.04717603 C38.6655739,17.5631785 38.0596286,41.7013079 31.4690652,43.402083 C28.8408284,44.0803315 23.2419827,42.4189574 17.5435878,38.9803888 L21.12,64.3144476 L0,64.3144476 L7.2700246,30.3855732 C3.2154903,25.6205234 0.47138789,19.7810123 0.929963174,13.2377228 C2.25133059,-5.61651954 28.466707,-1.46882644 33.5661404,8.04717603 Z" transform="translate(-756.000000, -102.000000) translate(756.000000, 102.000000) translate(402.000000, 197.500000) scale(-1, 1) translate(-402.000000, -197.500000) translate(270.000000, 42.000000) translate(72.160000, 0.000000) translate(47.520000, 27.311615)" fill="#B28B67"/><path d="M90.4426158,22.1668446 C90.0052644,20.6277569 88.8288999,19.3099771 87.2435518,18.9190288 C86.8591072,18.8241991 86.462074,18.7858969 86.0664911,18.8018658 C85.9245941,18.8075359 85.884798,18.8484995 85.8184904,18.7491569 C85.7692964,18.6755033 85.7681941,18.4955641 85.747948,18.4090082 C85.6849471,18.1398515 85.606167,17.8740506 85.5089391,17.6151349 C85.1772273,16.7320442 84.6197914,15.9504948 83.947782,15.2921256 C82.690839,14.0604388 80.9924838,13.2103852 79.227995,13.0565979 C78.2622716,12.972472 77.3035676,13.1295572 76.390577,13.4440747 C75.9178963,13.6068879 75.4595446,13.8096232 75.0131433,14.0337662 C74.8787299,14.1012289 74.4426547,14.4316574 74.3077771,14.4102499 C74.1588027,14.3866437 73.8594035,14.0160037 73.7382747,13.9229676 C72.2410466,12.7729188 70.3921506,12.3207565 68.5272434,12.3342776 C66.422283,12.3501485 64.3953486,12.4554505 62.6397937,13.7401355 C62.2681697,14.0121272 61.9142394,14.3099237 61.5772485,14.6234576 C61.3997902,14.7885272 61.2279011,14.9597877 61.0639595,15.1381647 C60.9650493,15.2457811 60.8687496,15.3558275 60.7760467,15.4688247 C60.6187185,15.6606249 60.6439537,15.7236325 60.4237406,15.5898063 C59.5788559,15.0759092 58.5997898,14.835566 57.6136461,14.9568948 C57.0280744,15.0289862 56.4583399,15.204991 55.9173794,15.4366555 C55.7331917,15.5155163 55.3068625,15.8300917 55.1105504,15.8331582 C54.9158046,15.8361668 54.4954506,15.5445612 54.2948456,15.4704447 C53.2113581,15.0700077 52.0435214,14.9713015 50.9046905,15.1563322 C49.7299504,15.3472645 48.5759785,15.816495 47.580669,16.4649126 C47.1019551,16.7768265 46.6842697,17.1224139 46.3487871,17.5862058 C46.2039315,17.7864532 46.0729987,17.9982723 45.9088252,18.1839395 C45.8126995,18.2926552 45.6223626,18.4042059 45.5707901,18.5417929 C45.6016524,18.4594027 44.2860594,17.9516386 44.161914,17.9191801 C43.5005208,17.7462417 42.8270611,17.7813038 42.1794167,17.9946851 C40.9615737,18.3959322 39.9142276,19.2957439 39.0534476,20.218294 C38.6113393,20.6921532 38.2244582,21.215944 37.896053,21.773987 C37.7386668,22.0412922 37.5947394,22.3162347 37.4630525,22.5970208 C37.3992394,22.7330456 37.3569488,22.9032068 37.2728896,23.0257506 C37.1645235,23.1836458 37.0917186,23.1866544 36.8954645,23.2555057 C35.8987627,23.6050854 34.9901809,24.1968019 34.2982735,24.9963452 C33.5984184,25.8052616 33.1443016,26.8014074 32.9539066,27.8504356 C32.9427103,27.9122282 32.936039,28.1683089 32.8998976,28.201751 C32.8503555,28.2478062 32.6499245,28.22744 32.574103,28.2363502 C32.3115413,28.2671887 32.050836,28.3130703 31.7936114,28.3740529 C31.3194225,28.4864136 30.8578801,28.6517726 30.4212829,28.8680468 C28.7193309,29.7110995 27.5022421,31.2916138 26.9065763,33.0700611 C26.2815565,34.936453 26.2926368,37.0747209 27.0396555,38.9062822 C27.1603202,39.2021115 27.3038995,39.4892621 27.47254,39.7609066 C27.5760912,39.9276541 27.609506,39.9280591 27.5422703,40.1030225 C27.4673189,40.2976577 27.3304109,40.4867964 27.2414208,40.6769765 C26.9510714,41.2976221 26.7480879,41.9558756 26.6198817,42.6281887 C26.4095307,43.731025 26.3052834,44.889984 26.5127918,46.0012098 C26.6091495,46.5171898 26.7770358,47.0215982 27.0331582,47.4811664 C27.1637429,47.7154923 27.3165461,47.9377259 27.4890734,48.1432963 C27.5786437,48.2500448 27.6737831,48.3519911 27.7732735,48.4496559 C27.8301831,48.5054312 27.9047864,48.5542636 27.9531683,48.616577 C28.0712804,48.7685128 28.0961095,48.6435968 28.035197,48.8666982 C27.9500356,49.1786121 27.7569722,49.4863603 27.638744,49.7898847 C27.5169191,50.1026665 27.4068126,50.4197298 27.306104,50.7399174 C27.1021343,51.3882771 26.929665,52.0483821 26.821821,52.7198273 C26.6147186,54.0089673 26.6510921,55.3825803 27.2601586,56.565724 C27.5205738,57.0718102 27.8941702,57.5157567 28.3473008,57.8611127 C28.5690802,58.0300588 28.8093073,58.1756881 29.0613108,58.2952811 C29.1907933,58.3568423 29.3561271,58.3832257 29.4151832,58.5086045 C29.4787642,58.6434143 29.3843789,58.9111245 29.3628565,59.0618453 C29.1755942,60.3730293 29.081673,61.7497088 29.4709906,63.0346252 C29.8295619,64.218116 30.6190453,65.2630363 31.6440568,65.9548475 C33.6325294,67.29687 36.3129094,67.2211914 38.4022645,66.1468213 C38.9468799,65.8667294 39.456398,65.5190012 39.9109209,65.108844 C41.0683156,66.6687028 43.4499925,66.6193497 45.1415603,66.1748825 C47.2490152,65.6211789 48.9400609,64.1540669 49.9143701,62.2264609 C51.2466124,63.8501374 54.0425521,63.3233379 54.9663909,61.5619009 C55.1925212,61.130799 55.3266446,60.6556669 55.3926621,60.1748647 C55.4274112,59.9220241 55.4052507,59.6669849 55.431356,59.4161693 C55.4646548,59.0965602 55.6779064,58.7859771 55.8004855,58.4767825 C56.0392043,57.8750565 56.1874246,57.2534852 56.1938059,56.6044312 C56.1971125,56.2655553 56.1542418,55.9353003 56.1220452,55.5991438 C56.0930973,55.2965451 56.1769244,55.0146018 56.2245522,54.7159374 C55.6840557,54.8050391 55.025563,54.6591206 54.5163349,54.502209 C54.0166208,54.3482481 53.5485811,53.9427196 53.195869,53.5723688 C52.3769155,52.7123635 51.8766212,51.5849952 51.5344673,50.4629499 C50.7833877,48.0002707 51.0912567,45.0456227 53.5654045,43.6940536 C54.7179841,43.06444 58.1709672,43.0665052 59.5437406,43.3776817 C60.9871518,43.7048702 62.6234924,46.8935 62.7040128,47.1932058 C62.753845,47.3786994 62.7287839,47.608281 62.8989907,47.7318662 C63.2730512,48.0036265 63.8899493,47.5320238 64.1658537,47.29926 C64.641957,46.89755 64.9815585,46.3630554 65.2756786,45.8212706 C65.9165356,44.640962 66.4331892,43.3751967 66.7981418,42.0830481 C67.0794994,41.0868445 67.2593941,40.059571 67.6271313,39.0887671 C67.9930701,38.1227656 68.5699401,37.2593467 69.4668614,36.7121232 C70.4425629,36.1168195 71.5609736,35.8032856 72.6321046,35.429174 C73.6938376,35.0584183 74.7372389,34.6052723 75.5602532,33.8185735 C75.7411922,33.6455773 75.9169681,33.4617616 76.0626359,33.2581005 C76.1776154,33.0973124 76.2912606,32.7895064 76.4664565,32.6875601 C76.7388222,32.5289706 77.1363194,32.9413843 77.3718476,33.0911215 C78.5338251,33.8299716 79.5032613,34.8604273 80.2851452,35.9861177 C81.0626781,37.1056751 81.700681,38.1829381 82.219133,39.4330817 C82.6036937,40.3602604 82.8437002,41.5476856 83.5200605,42.3075382 C83.8220123,42.646819 86.0664911,42.8520747 86.7934958,42.5558658 C87.5205004,42.2596569 88.335277,41.4905216 88.5792748,41.0085044 C88.8290739,40.515147 88.8887681,39.9731886 88.7820263,39.4330817 C88.7192575,39.1153241 88.5910513,38.8185112 88.5209149,38.5064237 C88.4618588,38.2442679 88.4082559,37.996461 88.2808038,37.7562913 C88.0392424,37.3011782 87.6265461,36.9740476 87.1288623,36.8372706 C87.6467922,36.3591878 88.0759639,35.7872588 88.3729267,35.147925 C88.6814917,34.4837121 88.9430092,33.6759529 89.0172064,32.9469387 C89.0775387,32.3548172 88.9844297,31.7413461 88.6606655,31.2324826 C88.321006,30.6986823 87.719307,30.3504334 87.1987086,30.017459 C87.9939352,29.394557 88.6745303,28.6370187 89.2340547,27.7983053 C90.3221832,26.1672808 90.9952368,24.1113452 90.4426158,22.1668446 Z" fill="#191847" transform="translate(-756.000000, -102.000000) translate(756.000000, 102.000000) translate(402.000000, 197.500000) scale(-1, 1) translate(-402.000000, -197.500000) translate(270.000000, 42.000000) translate(72.160000, 0.000000)"/><ellipse cx="102.08" cy="51.54" rx="67.76" ry="64.755" transform="translate(-756.000000, -102.000000) translate(756.000000, 102.000000) translate(402.000000, 197.500000) scale(-1, 1) translate(-402.000000, -197.500000) translate(270.000000, 42.000000) translate(0.000000, 164.750708) translate(8.800000, 37.002833)" fill="#C5CFD6"/><path d="M227.999402,33.0398547 C232.467915,44.6243131 240.268929,82.6860092 249.642442,140.176784 L238.928143,143.306552 C227.652892,118.322325 219.498745,96.5670692 216.2257,85.0889449 C210.621453,65.4356095 206.358079,48.1418219 205.280528,41.6834944 C202.71097,26.2827842 225.047042,25.3859701 227.999402,33.0398547 Z M194.197144,65.3360391 C161.578175,70.0360542 115.335278,74.8895836 111.377897,75.4342606 C105.831458,76.1976487 101.640216,67.4718964 108.141745,64.8990408 C118.486775,60.8051931 154.714521,47.9934497 172.187163,44.3692419 C177.208099,43.32779 182.074538,42.3601636 186.649844,41.4856984 C200.249272,38.8864784 207.295053,63.4487824 194.197144,65.3360391 Z" fill="#B28B67" transform="translate(-756.000000, -102.000000) translate(756.000000, 102.000000) translate(402.000000, 197.500000) scale(-1, 1) translate(-402.000000, -197.500000) translate(270.000000, 42.000000) translate(0.000000, 164.750708)"/><path d="M145.694723,0 C199.830291,13.8106221 227.493522,22.661301 228.684417,26.5520367 C228.697592,26.5950831 228.709642,26.6381876 228.720565,26.68135 C228.748445,26.7156542 228.774443,26.7506398 228.8,26.7858294 C239.528525,41.5577281 245.953796,113.675315 248.062686,119.075236 L227.504402,122.145802 C219.640313,92.9504953 194.48,72.6119811 195.148349,37.6451056 C194.967891,36.6194525 194.922286,35.6467918 194.996653,34.7266686 L139.04,6.20829778 L139.04,0 L145.694723,0 Z" fill="#1F28CF" transform="translate(-756.000000, -102.000000) translate(756.000000, 102.000000) translate(402.000000, 197.500000) scale(-1, 1) translate(-402.000000, -197.500000) translate(270.000000, 42.000000) translate(0.000000, 164.750708)"/><path d="M148.668751,-4.26325641e-14 C156.512042,2.25569099 197.273152,19.3690779 218.421827,28.4713338 C232.418777,34.495532 228.006913,56.2119957 220.080599,61.8643591 C220.037243,62.2110751 219.894563,62.4469084 219.640313,62.5524079 C177.000443,80.2456232 143.268392,70.9620383 132,73.9282834 L126.787865,57.4675283 L143.687156,51.6630141 C138.568037,50.6370983 133.85387,49.7214855 129.81998,49.0131236 C103.760175,44.4369515 96.160914,30.4711725 100.654003,-4.26325641e-14 L148.668751,-4.26325641e-14 Z" fill="#2B44FF" transform="translate(-756.000000, -102.000000) translate(756.000000, 102.000000) translate(402.000000, 197.500000) scale(-1, 1) translate(-402.000000, -197.500000) translate(270.000000, 42.000000) translate(0.000000, 164.750708)"/><path d="M2.2637156,22.630264 C1.34123853,25.1361269 0.88,27.0212831 0.88,28.2857327 C0.88,29.8744636 1.1443645,32.1928171 1.6730935,35.2407932 C3.51399943,35.2407932 20.058531,35.2407932 51.3066882,35.2407932 C52.5964894,30.971818 51.8519414,28.6671357 49.0730441,28.3267462 C46.2941468,27.9863567 43.9856697,27.6790122 42.1476126,27.4047128 L19.191755,17.1590171 C18.6874228,16.9339227 18.0961057,17.1602897 17.8710114,17.6646219 C17.8670467,17.673505 17.8632118,17.6824454 17.859508,17.6914404 L16.4236275,21.178567 L16.4236275,21.178567 C13.8510955,22.3802403 11.7606461,22.9810769 10.1522794,22.9810769 C8.88809464,22.9810769 7.15793771,22.4865754 4.96180861,21.4975723 L4.96180178,21.4975875 C3.95465737,21.0440309 2.77052522,21.4928025 2.3169686,22.4999469 C2.2976938,22.5427475 2.2799318,22.5862135 2.2637156,22.630264 Z" transform="translate(-756.000000, -102.000000) translate(756.000000, 102.000000) translate(402.000000, 197.500000) scale(-1, 1) translate(-402.000000, -197.500000) translate(270.000000, 42.000000) translate(0.000000, 164.750708) translate(126.684179, 82.227185) rotate(64.000000) translate(-126.684179, -82.227185) translate(99.844179, 64.606788)" fill="#E4E4E4"/><path d="M2.2637156,22.630264 C1.34123853,25.1361269 0.88,27.0212831 0.88,28.2857327 C0.88,29.8744636 1.1443645,32.1928171 1.6730935,35.2407932 C3.51399943,35.2407932 20.058531,35.2407932 51.3066882,35.2407932 C52.5964894,30.971818 51.8519414,28.6671357 49.0730441,28.3267462 C46.2941468,27.9863567 43.9856697,27.6790122 42.1476126,27.4047128 L19.191755,17.1590171 C18.6874228,16.9339227 18.0961057,17.1602897 17.8710114,17.6646219 C17.8670467,17.673505 17.8632118,17.6824454 17.859508,17.6914404 L16.4236275,21.178567 L16.4236275,21.178567 C13.8510955,22.3802403 11.7606461,22.9810769 10.1522794,22.9810769 C8.88809464,22.9810769 7.15793771,22.4865754 4.96180861,21.4975723 L4.96180178,21.4975875 C3.95465737,21.0440309 2.77052522,21.4928025 2.3169686,22.4999469 C2.2976938,22.5427475 2.2799318,22.5862135 2.2637156,22.630264 Z" transform="translate(-756.000000, -102.000000) translate(756.000000, 102.000000) translate(402.000000, 197.500000) scale(-1, 1) translate(-402.000000, -197.500000) translate(270.000000, 42.000000) translate(0.000000, 164.750708) translate(231.440000, 116.294618)" fill="#E4E4E4"/><g><path d="M99.537688,-7.81597009e-14 L124.169302,3.81303817 C124.169302,17.6809827 135.190638,30.656355 142.162838,41.8202826 C153.001192,59.1747185 172.286973,78.4105085 159.921713,104.192649 C148.779981,127.423679 119.758192,131.196255 72.8563466,115.510378 C72.8563466,102.997792 83.1288641,90.418752 83.4562246,75.2043354 C83.7678491,60.7212668 86.4727212,16.8408742 97.7611425,2.01602584 C97.9668457,1.34722655 98.175755,0.674579099 98.3877223,8.52651283e-14 L98.3877223,8.52651283e-14 L99.1683466,0.368 L99.537688,-7.81597009e-14 Z" fill="#C1DEE2" transform="translate(-756.000000, -102.000000) translate(756.000000, 102.000000) translate(402.000000, 197.500000) scale(-1, 1) translate(-402.000000, -197.500000) translate(270.000000, 42.000000) translate(19.360000, 72.243626)"/><path d="M128.359446,97.605739 C130.006691,89.0948298 131.075298,83.4128445 131.565267,80.5597831 C144.687804,95.4057344 152.26879,102.914814 154.308224,103.087022 C158.143775,103.410892 160.977937,100.005662 161.784929,100.962975 C163.118747,104.92757 159.351479,114.851601 152.150425,116.294618 C148.711776,116.983687 143.390667,109.884398 141.19828,107.36896 C140.335976,106.379595 136.056365,103.125188 128.359446,97.605739 L128.359446,97.605739 Z M151.026682,52.2288999 C154.42837,52.2288999 156.255597,53.6368512 158.266927,56.47746 C160.278258,59.3180688 162.181528,72.7150045 158.952288,72.7150045 C155.723047,72.7150045 142.193409,67.5361794 142.193409,64.0545557 C142.193409,60.572932 151.425248,59.0984965 151.425248,56.47746 C151.425248,53.8564234 147.624995,52.2288999 151.026682,52.2288999 Z" fill="#B28B67" transform="translate(-756.000000, -102.000000) translate(756.000000, 102.000000) translate(402.000000, 197.500000) scale(-1, 1) translate(-402.000000, -197.500000) translate(270.000000, 42.000000) translate(19.360000, 72.243626)"/><path d="M121.490781,110.556068 L121.38365,110.945337 C121.216416,111.544551 121.046528,112.152951 120.873983,112.770538 C82.3321031,85.8019841 82.3150275,53.119948 93.778457,16.4874038 C85.1377519,52.5514478 88.6564831,82.9670181 121.490781,110.556068 Z" fill-opacity=".2" fill="#000000" transform="translate(-756.000000, -102.000000) translate(756.000000, 102.000000) translate(402.000000, 197.500000) scale(-1, 1) translate(-402.000000, -197.500000) translate(270.000000, 42.000000) translate(19.360000, 72.243626)"/></g><g><path d="M28.607506,6.83104332 C32.9536141,14.9089361 32.4371835,35.399181 26.820226,36.8429258 C24.5802142,37.4186833 19.808349,36.0083284 14.9516788,33.0893161 L18,54.5949008 L0,54.5949008 L6.1963764,25.7939307 C2.74062481,21.7489297 0.401738499,16.7917771 0.792582251,11.2371666 C1.91874767,-4.76772077 24.261398,-1.24684946 28.607506,6.83104332 Z" transform="translate(-756.000000, -102.000000) translate(756.000000, 102.000000) translate(17.000000, 130.000000) translate(61.500000, 0.000000) translate(40.500000, 23.184136)" fill="#B28B67"/><path d="M55.5,21.6883853 C65.1518035,21.6883853 68.8114269,25.6567745 69,29.1671388 C64.8640148,30.3006222 57.6369374,30.7370911 47.25,30.6628895 L47.25,31.4107649 L56.25,32.1586402 L57.75,36.6458924 C55.3634586,36.4682356 53.6580731,38.1006216 52.2971997,40.2860843 C51.7081727,39.8822297 51.0051531,39.6373938 50.25,39.6373938 C48.1789322,39.6373938 46.5,41.4789874 46.5,43.3767705 C46.5,45.3508693 47.4347669,46.8772946 48.7697177,47.5250187 C48.0573402,48.9150013 47.3401719,49.924357 46.5,50.1076487 C43.2586046,49.780684 39,41.7467912 39,35.1501416 C39,27.9297855 44.7614871,21.6883853 55.5,21.6883853 Z" fill="#191847" transform="translate(-756.000000, -102.000000) translate(756.000000, 102.000000) translate(17.000000, 130.000000) translate(61.500000, 0.000000)"/><path d="M126.5,0 C135.336556,-1.623249e-15 142.5,7.163444 142.5,16 L142.5,76.7365439 C142.5,85.5730999 135.336556,92.7365439 126.5,92.7365439 L48.25,92.7365439 C39.413444,92.7365439 32.25,85.5730999 32.25,76.7365439 L32.25,16 C32.25,7.163444 39.413444,1.623249e-15 48.25,0 L126.5,0 Z M117.5,20.9405099 L57.25,20.9405099 C55.040861,20.9405099 53.25,22.7313709 53.25,24.9405099 L53.25,24.9405099 L53.25,67.796034 C53.25,70.005173 55.040861,71.796034 57.25,71.796034 L57.25,71.796034 L117.5,71.796034 C119.709139,71.796034 121.5,70.005173 121.5,67.796034 L121.5,67.796034 L121.5,24.9405099 C121.5,22.7313709 119.709139,20.9405099 117.5,20.9405099 L117.5,20.9405099 Z" transform="translate(-756.000000, -102.000000) translate(756.000000, 102.000000) translate(17.000000, 130.000000) translate(0.000000, 139.852691) translate(7.500000, 31.410765)" fill="#C5CFD6"/><path d="M224.369223,120.407932 C209.582321,102.402216 199.57715,89.0535828 194.35371,80.3620333 C185.409912,65.4799905 178.089841,52.2377209 175.779809,47.1792335 C170.271241,35.1166216 188.461422,29.468247 192.578273,35.0946493 C198.80929,43.6104326 212.116533,70.4072051 232.5,115.484967 L224.369223,120.407932 Z" fill="#B28B67" transform="translate(-756.000000, -102.000000) translate(756.000000, 102.000000) translate(17.000000, 130.000000) translate(0.000000, 139.852691)"/><path d="M194.068175,115.172805 L166.548898,46.0966264 C160.663072,33.5044996 189.086818,25.2273886 193.412456,31.0875121 C203.232991,44.3918065 226.574134,96.8753181 229.5,100.839112 L194.068175,115.172805 Z" fill="#2F3676" transform="translate(-756.000000, -102.000000) translate(756.000000, 102.000000) translate(17.000000, 130.000000) translate(0.000000, 139.852691)"/><path d="M3.60784635,103.173169 C2.85286903,93.7494798 1.45021474,61.1266292 2.85362737,46.0267202 C3.25691187,41.687612 3.68179917,37.4923904 4.10998339,33.5569003 C5.38269841,21.8592315 27.1342708,22.2290022 25.4069233,33.3423739 C21.1051452,61.0190616 13.5335253,99.8063369 12.9908389,103.157776 C12.2302407,107.854961 4.08232606,109.095665 3.60784635,103.173169 Z" transform="translate(-756.000000, -102.000000) translate(756.000000, 102.000000) translate(17.000000, 130.000000) translate(0.000000, 139.852691) translate(165.129721, 73.665187) rotate(39.000000) translate(-165.129721, -73.665187) translate(144.504721, 19.818161)" fill="#B28B67"/><path d="M1.81527692,19.5227243 C1.10509231,21.4947858 0.75,22.990891 0.75,24.0110399 C0.75,25.3596732 0.975310653,27.3276647 1.42593196,29.9150142 C2.99488588,29.9150142 17.0953389,29.9150142 43.7272911,29.9150142 C44.8265535,26.2911896 44.1919955,24.3348033 41.8236171,24.0458553 C39.4552388,23.7569073 37.4877867,23.4960104 35.9212608,23.2631646 L16.4934081,14.6266665 C15.9887422,14.4023213 15.397762,14.6295661 15.1734167,15.134232 C15.169857,15.1422396 15.1664027,15.1502936 15.1630547,15.158392 L13.9974098,17.9779476 L13.9974098,17.9779476 C11.8049109,18.9980175 10.0232779,19.5080524 8.65251085,19.5080524 C7.62689438,19.5080524 6.24142066,19.1276854 4.49608969,18.3669514 L4.49608378,18.3669649 C3.48352598,17.9256233 2.30490762,18.3886855 1.863566,19.4012433 C1.84615018,19.4411999 1.83004522,19.4817152 1.81527692,19.5227243 Z" transform="translate(-756.000000, -102.000000) translate(756.000000, 102.000000) translate(17.000000, 130.000000) translate(0.000000, 139.852691) translate(142.125000, 104.702550) rotate(30.000000) translate(-142.125000, -104.702550) translate(119.250000, 89.745042)" fill="#E4E4E4"/><path d="M1.81527692,19.5227243 C1.10509231,21.4947858 0.75,22.990891 0.75,24.0110399 C0.75,25.3596732 0.975310653,27.3276647 1.42593196,29.9150142 C2.99488588,29.9150142 17.0953389,29.9150142 43.7272911,29.9150142 C44.8265535,26.2911896 44.1919955,24.3348033 41.8236171,24.0458553 C39.4552388,23.7569073 37.4877867,23.4960104 35.9212608,23.2631646 L16.4934081,14.6266665 C15.9887422,14.4023213 15.397762,14.6295661 15.1734167,15.134232 C15.169857,15.1422396 15.1664027,15.1502936 15.1630547,15.158392 L13.9974098,17.9779476 L13.9974098,17.9779476 C11.8049109,18.9980175 10.0232779,19.5080524 8.65251085,19.5080524 C7.62689438,19.5080524 6.24142066,19.1276854 4.49608969,18.3669514 L4.49608378,18.3669649 C3.48352598,17.9256233 2.30490762,18.3886855 1.863566,19.4012433 C1.84615018,19.4411999 1.83004522,19.4817152 1.81527692,19.5227243 Z" transform="translate(-756.000000, -102.000000) translate(756.000000, 102.000000) translate(17.000000, 130.000000) translate(0.000000, 139.852691) translate(216.000000, 98.719547)" fill="#E4E4E4"/><path d="M156.646568,49.5467813 C133.773954,45.8310994 118.453567,43.2903305 110.685407,41.9244745 C88.5430883,38.0312466 82.0861998,26.149709 85.903857,0.226029365 L126.700703,0.226029365 C132.099509,1.78068644 154.657819,11.3957361 194.375631,29.0711784 C201.521649,32.6085122 200.190825,43.0383556 198.88466,46.4745277 C198.83139,46.6146679 186.784573,67.1988553 162.74421,108.22709 L129.37067,87.0268823 L156.709244,52.0449357 C157.43123,50.5948801 157.410338,49.7621619 156.646568,49.5467813 Z" fill="#5C63AB" transform="translate(-756.000000, -102.000000) translate(756.000000, 102.000000) translate(17.000000, 130.000000) translate(0.000000, 139.852691)"/><g><path d="M45.7273439,50.4439559 L62.1503878,50.505416 C49.6420745,90.9159682 43.0022605,112.074293 42.230946,113.98039 C40.4954884,118.269108 44.1679501,124.800751 45.7384405,128.310808 C40.6234056,130.593149 41.1684181,122.140706 34.7159392,125.134125 C28.8264157,127.866378 24.3462698,132.817039 17.5417764,128.630351 C16.7052039,128.115623 15.7884568,126.177577 18.0034338,124.663096 C23.5217493,120.889973 31.4739762,114.286327 32.5484472,112.112686 C34.0136805,109.148538 38.4066461,88.5922948 45.7273439,50.4439559 L45.7273439,50.4439559 Z M149.619843,69.1488053 L170.865771,89.816358 C177.047553,92.4457463 182.112642,95.3491219 186.06104,98.5264849 C186.948976,99.5945047 187.915638,101.640886 183.737946,100.72516 C179.560253,99.8094333 175.124647,99.0335808 174.339458,100.388348 C173.554268,101.743116 175.867893,103.819101 174.416766,105.592143 C173.449347,106.774171 170.195843,103.014371 164.656252,94.3127438 L142.563297,81.3241826 L149.619843,69.1488053 Z" fill="#B28B67" transform="translate(-756.000000, -102.000000) translate(756.000000, 102.000000) translate(17.000000, 130.000000) translate(16.500000, 61.325779)"/><path d="M92.0869549,7.27381117 L98.4509432,5.60357238 C111.767062,40.5877125 166.198203,60.4663071 170.58162,73.5962736 C172.189135,78.4113793 168.857039,81.2080673 170.821655,82.545659 L162.960354,89.4103165 C161.393547,87.8802677 158.623656,91.1721662 152.101092,89.6096466 C145.578529,88.047127 95.8033423,49.7523135 92.0869549,7.27381117 Z" fill="#DB2721" transform="translate(-756.000000, -102.000000) translate(756.000000, 102.000000) translate(17.000000, 130.000000) translate(16.500000, 61.325779) translate(131.561332, 47.822814) rotate(5.000000) translate(-131.561332, -47.822814)"/><path d="M85.2343409,-3.46113749 L103.439775,-2.19169589 C105.643673,-2.03960371 107.305624,-0.128508599 107.151957,2.07527938 C107.15192,2.07580453 107.151883,2.07632968 107.150271,2.07674436 L106.681294,8.72724453 C105.914239,56.443759 133.573942,68.6070691 127.415447,87.7394243 C122.331571,103.533301 73.6704983,120.511652 65.25,105.029925 C61.8410083,98.7622344 60.2945978,91.1817203 60.1194959,82.9400786 C57.9679901,89.2726067 56.2655851,94.7235622 55.0133451,99.2935252 C52.8533879,107.176139 44.4796949,108.429116 44.4796949,111.465782 L44.4796949,111.465782 L33.4474725,108.429116 C34.1957621,104.303679 28.9949059,102.294837 30.3893911,93.0782516 C36.6374527,51.7828701 53.424783,21.8490534 80.751382,3.27680134 L80.964215,0.250824193 C81.120285,-1.95217724 83.0310582,-3.61318614 85.2343409,-3.46113749 Z" fill="#FF4133" transform="translate(-756.000000, -102.000000) translate(756.000000, 102.000000) translate(17.000000, 130.000000) translate(16.500000, 61.325779)"/></g></g></g></svg>