<svg viewBox="0 0 156 60" xmlns="http://www.w3.org/2000/svg">
<path d="M40.3435795,55.7231833 C40.4119128,56.6716286 39.697041,57.4952232 38.7466821,57.5644681 L34.5794,57.8645293 C33.6710923,57.9295776 32.8689641,57.2790952 32.7459641,56.3789115 C32.5640923,55.0433243 30.9934769,54.4243169 29.9474513,55.276239 C28.0183487,56.84579 25.1084,58.7972371 21.9955538,59.3921137 C17.3299641,60.2839041 12.8609641,60.3080349 9.49791282,58.6954681 C7.28706667,57.6347622 5.55245128,55.9288197 4.28986154,53.5786898 C3.02727179,51.2296091 2.12422051,48.2825043 1.58281026,44.7394737 C1.04034872,41.1953939 0.604066667,37.1256824 0.271861538,32.5271917 C-0.0634974359,27.878341 -0.0887282051,23.7530237 0.197220513,20.1491416 C0.483169231,16.5463085 1.30211795,13.4764514 2.65406667,10.938521 C4.00391282,8.4016397 5.98032308,6.40298015 8.58119487,4.94359147 C11.1799641,3.48420278 14.6029385,2.60185492 18.8469641,2.29654787 C21.3826564,2.11399314 23.7490923,2.28185955 25.9462718,2.79804879 C28.1413487,3.3152872 30.0715026,4.26792913 31.7325282,5.65282709 C33.3925026,7.03982338 34.7476051,8.8769115 35.7978359,11.1630423 C36.6325538,12.9833438 36.8512205,13.9202482 37.0278359,15.9189078 C37.1129897,16.8893855 36.3676308,17.7381601 35.392041,17.7864217 L25.2377077,18.2805785 C24.3420154,18.3235942 23.5661692,17.6699644 23.4431692,16.784469 C23.2528872,15.4100627 22.9953231,15.2705237 22.5211949,14.2591286 C21.8872718,12.6969217 20.7171949,11.9750961 19.0088615,12.0978484 C17.817759,12.18388 16.8936821,12.5363994 16.2366308,13.1543577 C15.5785282,13.7733651 15.1338359,14.8183336 14.9015026,16.2882139 C14.6691692,17.7580942 14.5913744,19.7242297 14.6649641,22.1855711 C14.7375026,24.6469124 14.9099128,27.7356545 15.1779897,31.4549449 C15.4460667,35.1742353 15.7204513,38.2577315 16.0021949,40.7033354 C16.2828872,43.1499885 16.6434769,45.084649 17.0850154,46.5052186 C17.5255026,47.9278865 18.0889897,48.9004625 18.7775795,49.4208484 C19.4661692,49.9433327 20.3534513,50.1647065 21.4404769,50.0860191 C22.2163231,50.0304134 22.8912462,49.8258262 23.4641949,49.4733067 C24.0360923,49.1207872 24.4997077,48.5028289 24.8518872,47.6204811 C25.2040667,46.7391824 25.4427077,45.5284458 25.5657077,43.9872223 C25.6561179,42.8488781 25.6666308,41.481816 25.5961949,39.887085 C25.5541436,38.9176564 24.7141692,38.1685525 23.7459385,38.2377974 L22.0891179,38.3574022 C21.1398103,38.425598 20.3124513,37.7121657 20.2441179,36.7637204 L20.0717077,34.3747714 C20.0033744,33.4273753 20.7182462,32.6016824 21.6686051,32.5334866 L36.8596308,31.4413058 C37.8099897,31.37311 38.6362974,32.0865423 38.7046308,33.0349876 L40.3435795,55.7231833 Z" fill="#694561" className="letterG" transform="translate(-151.000000, -67.000000) translate(151.000000, 67.000000)"/>
<path d="M65.4891876,18.3310096 C66.1850804,19.5362158 68.0317525,19.0253585 68.0025396,17.6345756 C67.9002945,12.7293031 67.6478116,7.31734366 67.5351333,2.53196627 C67.5163536,1.79070192 68.1068714,1.18080088 68.8486702,1.16307726 L75.4320041,1.00043699 C76.1758895,0.9816708 76.7935336,1.56967796 76.81127,2.31198486 L77.9996087,50.3179734 C78.0173451,51.0613229 77.4299573,51.6785219 76.6860718,51.6962455 L64.4250036,51.9996322 C63.8866518,52.012143 63.3921192,51.704586 63.1667626,51.2156226 L56.8014821,37.3713903 C56.190098,36.0421188 54.1952747,36.5039755 54.2317909,37.9666954 L54.5260064,49.8550742 C54.5437428,50.5973811 53.956355,51.2156226 53.2124696,51.2333463 L43.5419589,51.4720939 C42.7991168,51.49086 42.1804295,50.9038955 42.1626931,50.160546 L41.0004373,3.1971233 C40.9816576,2.45481639 41.5700887,1.83657482 42.3129308,1.8188512 L54.9475067,1.50608144 C55.4399526,1.49461321 55.9000557,1.75212699 56.1462786,2.17853643 L65.4891876,18.3310096 Z" fill="#F79A6F" className="letterN" transform="translate(-151.000000, -67.000000) translate(151.000000, 67.000000)"/>
<path d="M90.5489801,15.9149212 C91.4078419,22.1685876 109.003391,23.1319022 113.15791,26.2077858 C117.230885,29.22274 119.036507,33.3827464 118.999441,38.9724925 C118.962376,44.6284205 117.309252,48.7243461 114.041129,51.2581682 C110.771947,53.7930409 106.063562,55.0399923 99.9106803,54.9990225 C97.0100359,54.9801134 94.4472175,54.7279918 92.2243432,54.2416072 C90.0025279,53.7562731 88.1323059,52.9253223 86.6136771,51.7498054 C85.0961074,50.5742884 83.9428391,49.0415991 83.1559903,47.1496366 C82.3670235,45.2587245 81.9826008,42.9244987 82.000604,40.1459085 C82.0080171,39.1185129 82.8531118,38.2907137 83.8888293,38.2970167 L93.8456965,39.446271 C94.7448009,39.5502712 95.485053,40.2446561 95.5708333,41.1375868 C95.8451184,43.9781569 97.085226,45.8259981 100.046234,45.8459578 C103.006184,45.8648669 104.563996,43.5054289 104.581999,40.7394448 C104.593648,39.0029572 104.064141,37.6225914 102.996653,36.5983474 C101.927047,35.5751539 100.582096,34.6979808 98.9628611,33.9668282 C97.3415078,33.2377765 95.5824825,32.4940178 93.6879031,31.7366025 C91.7912057,30.9802376 90.0342984,30.0022159 88.4171811,28.7993858 C86.8000639,27.5986566 85.4582908,26.0270986 84.3960979,24.0847117 C83.333905,22.1423249 82.8128692,19.6085028 82.8329905,16.4832454 C82.868997,11.0752369 84.3473832,6.96565477 87.2660309,4.15659989 C90.1867967,1.34754501 94.5975977,-0.0380733113 100.500552,0.000795436105 C110.471187,0.0659268507 116.852816,3.11974979 117.652373,12.2948752 C117.746625,13.3737456 116.858111,14.2960904 115.766266,14.2887369 L112.201618,14.2666762 C111.250622,14.2603732 110.477541,13.5449782 110.350459,12.6100272 C110.027459,10.2558417 108.33727,6.19878489 100.525969,6.14731006 C93.9177095,6.10423929 89.4984363,8.26092952 90.5489801,15.9149212 Z" fill="#CDB656" className="letterS" transform="translate(-151.000000, -67.000000) translate(151.000000, 67.000000)"/>
<path d="M131.820987,23.6593675 C131.79534,24.2421309 132.234415,24.7354811 132.802751,24.7617791 L141.537064,25.168872 C142.1054,25.19517 142.586536,24.7449484 142.612183,24.1632369 L143.461608,5.0067309 C143.487255,4.42501941 143.968392,3.97479787 144.535701,4.00109585 L155.018108,4.49023842 C155.586444,4.51653641 156.025519,5.00988665 155.998846,5.59159814 L153.764487,55.9932691 C153.737814,56.5749806 153.257704,57.0252021 152.689368,56.9989041 L142.206961,56.5097616 C141.639652,56.4834636 141.200576,55.9901133 141.226223,55.4084019 L142.034614,37.1933638 C142.060261,36.6106004 141.62016,36.1172501 141.05285,36.0909521 L133.307482,35.7290918 C132.740172,35.7038458 132.259036,36.1540673 132.232363,36.7357788 L131.424998,54.9508169 C131.399352,55.5335803 130.918215,55.9838018 130.350906,55.9575038 L121.98283,55.5672417 C121.415521,55.5409437 120.975419,55.0475935 121.001066,54.465882 L123.096932,7.21681377 C123.123605,6.63405036 123.603715,6.18488074 124.172051,6.2101268 L131.550155,6.5551564 C132.117465,6.58145439 132.55654,7.07480463 132.530893,7.65651612 L131.820987,23.6593675 Z" fill="#046159" className="letterH" transform="translate(-151.000000, -67.000000) translate(151.000000, 67.000000)"/>
</svg>